<?xml version="1.0" encoding="utf-8"?>
<!-- Generator: Adobe Illustrator 27.9.3, SVG Export Plug-In . SVG Version: 9.03 Build 53313)  -->
<svg version="1.1" xmlns="http://www.w3.org/2000/svg" xmlns:xlink="http://www.w3.org/1999/xlink" x="0px" y="0px"
	 viewBox="0 0 200 150" style="enable-background:new 0 0 200 150;" xml:space="preserve">
<style type="text/css">
	.st0{display:none;}
	.st1{display:inline;}
	.st2{fill:url(#SVGID_1_);}
	.st3{opacity:0.1;fill:#FFFFFF;}
	.st4{clip-path:url(#SVGID_00000171690300434263983180000018363452813392145337_);}
	.st5{fill:none;stroke:#FFFFFF;stroke-width:3;stroke-miterlimit:10;}
	.st6{opacity:0.2;fill:#FFFFFF;}
	.st7{display:inline;fill:url(#SVGID_00000125576381811214734350000003430271430754161332_);}
	.st8{fill:#0B0A0B;}
	.st9{clip-path:url(#SVGID_00000054979018597659169770000005504492138178967961_);fill:#0087CD;}
	.st10{clip-path:url(#SVGID_00000054979018597659169770000005504492138178967961_);fill:#FFFFFF;}
	.st11{clip-path:url(#SVGID_00000036933502317246006370000008092924271338211994_);}
	.st12{clip-path:url(#SVGID_00000036933502317246006370000008092924271338211994_);fill:#FFFFFF;}
</style>
<g id="kwc" class="st0">
	<g class="st1">
		<g>
			<path d="M148.3,75c0-4.6,1.4-9,4-12.8c1.3-1.8,2.8-3.4,4.5-4.8c1.6-1.3,3.3-2.3,5.2-3.1l4.1-12.6l-0.4,0.1
				c-7.9,1.2-15.1,5.2-20.3,11.2c-2.6,3-4.6,6.4-6,10.1c-1.5,3.8-2.2,7.8-2.2,12c0,4.5,0.9,8.9,2.6,13.1c1.7,4,4.1,7.6,7.2,10.7
				l0.4,0.4l4.1-12.6C149.4,83,148.3,79.1,148.3,75z"/>
			<g>
				<path d="M170.8,52.5c5.7,0,10.9,2.1,14.9,5.7H200c-1.5-2.5-3.3-4.9-5.3-6.9c-3.1-3.1-6.7-5.5-10.7-7.2
					c-4.1-1.8-8.6-2.6-13.1-2.6c-0.2,0-0.3,0-0.5,0l-3.8,11.5l0.3-0.1C168.2,52.6,169.5,52.5,170.8,52.5z"/>
				<path d="M185.8,91.8c-4,3.6-9.2,5.7-15,5.7c-3.1,0-6.2-0.6-9-1.9c-2.8-1.2-5.2-2.9-7.3-5.1l-0.2-0.2l-3.8,11.5
					c2.8,2.1,5.9,3.8,9.2,4.9c3.6,1.2,7.3,1.9,11.1,1.9c4.5,0,8.9-0.9,13.1-2.6c4-1.7,7.6-4.1,10.7-7.2c2.1-2.1,3.9-4.4,5.4-7H185.8
					z"/>
			</g>
		</g>
		<g>
			<g>
				<rect x="0" y="42.3" width="11.1" height="65.4"/>
				<polygon points="40.9,107.7 56.7,107.7 24,75 56.7,42.3 40.9,42.3 15,68.2 21.8,75 15,81.8 				"/>
			</g>
			<g>
				<polygon points="115.1,88.8 99.2,42.3 77.3,107.7 89,107.7 99.2,75.9 109.4,107.7 120.6,107.7 141.8,42.3 130.1,42.3 				"/>
				<polygon points="81.4,82.6 68.3,42.3 56.6,42.3 75.5,100.5 				"/>
			</g>
		</g>
	</g>
</g>
<g id="Layer_9" class="st0">
	<g class="st1">
		<path d="M173.4,82.2h0.3c1.5,0,3-0.3,4.4-0.9c1.4-0.6,2.6-1.4,3.6-2.4c1-1,1.9-2.3,2.4-3.6c0.6-1.4,0.9-2.9,0.9-4.5
			c0-1.5-0.3-3-0.9-4.5c-0.6-1.4-1.4-2.6-2.4-3.6c-1-1.1-2.3-1.9-3.6-2.5c-1.4-0.6-2.9-0.9-4.4-0.9H168v22.9L173.4,82.2L173.4,82.2z
			 M171.8,78.4V63.1h2.1c1,0,1.9,0.2,2.8,0.6c0.9,0.4,1.7,0.9,2.4,1.7c0.7,0.7,1.2,1.5,1.6,2.4c0.4,0.9,0.6,1.9,0.6,2.9
			c0,4.2-3.4,7.7-7.6,7.7h-0.3v0H171.8z"/>
		<polygon points="30.4,61.1 28.4,59.2 26.5,61.1 26.5,82.2 30.4,82.2 		"/>
		<g>
			<rect x="1.5" y="59.3" width="3.9" height="22.9"/>
			<polygon points="15.8,82.2 21.3,82.2 9.9,70.7 21.3,59.3 15.8,59.3 6.7,68.4 9.1,70.7 6.7,73.1 			"/>
		</g>
		<path d="M45,73.5h1.5c0.9,0,1.7-0.2,2.5-0.6c0.8-0.4,1.6-0.9,2.2-1.5c0.6-0.7,1.1-1.4,1.5-2.3c0.4-0.9,0.6-1.8,0.6-2.7
			c0-1-0.2-1.9-0.6-2.7c-0.4-0.8-0.9-1.6-1.5-2.2c-0.6-0.7-1.4-1.2-2.2-1.5c-0.9-0.4-1.8-0.6-2.7-0.6l-10.2,0v22.9h3.9l0-8.3
			l8.3,8.3h5.5L45,73.5z M39.9,63.2H46l0.1,0c1.8,0,3.2,1.5,3.2,3.2c0,1.8-1.4,3.2-3.2,3.2l-0.1,0h-6.1V63.2z"/>
		<path d="M36,87.4h-4l-7.4,22.9h4.1l1.3-3.9H38l1.3,3.9h4.1L36,87.6L36,87.4z M36.8,102.5h-5.6l2.8-8.6L36.8,102.5z"/>
		<polygon points="138.6,91.3 144.6,91.3 144.6,110.3 148.5,110.3 148.5,91.3 154.4,91.3 154.4,87.4 138.6,87.4 		"/>
		<polygon points="106.8,91.3 108.8,87.4 94.4,87.4 94.4,110.3 108.8,110.3 106.8,106.4 98.2,106.4 98.2,100.8 105.1,100.8 
			107,98.8 105.1,96.9 98.2,96.9 98.2,91.3 		"/>
		<polygon points="114.1,87.4 114.1,110.3 118,110.3 118,94.5 118,94.5 118,87.4 		"/>
		<polygon points="194.5,87.4 189.2,96.1 184,87.4 179.5,87.4 187.3,100.4 187.3,110.3 191.2,110.3 191.2,100.3 199,87.4 		"/>
		<path d="M86.4,82.2"/>
		<g>
			<polygon points="101.1,75.6 95.5,59.3 87.8,82.2 91.9,82.2 95.5,71.1 99.1,82.2 103,82.2 110.4,59.3 106.3,59.3 			"/>
			<polygon points="89.3,73.4 84.7,59.3 80.6,59.3 87.2,79.7 			"/>
		</g>
		<g>
			<path d="M116.7,70.7c0-1.6,0.5-3.2,1.4-4.5c0.4-0.6,1-1.2,1.6-1.7c0.6-0.4,1.2-0.8,1.8-1.1l1.4-4.4l-0.1,0
				c-2.8,0.4-5.3,1.8-7.1,3.9c-0.9,1-1.6,2.2-2.1,3.5c-0.5,1.3-0.8,2.7-0.8,4.2c0,1.6,0.3,3.1,0.9,4.6c0.6,1.4,1.4,2.7,2.5,3.7
				l0.1,0.1l1.4-4.4C117.1,73.6,116.7,72.2,116.7,70.7z"/>
			<path d="M135.5,66.2c-0.6-1.4-1.4-2.7-2.5-3.7c-1.1-1.1-2.3-1.9-3.7-2.5c-1.5-0.6-3-0.9-4.6-0.9c-0.1,0-0.1,0-0.2,0l-1.3,4l0.1,0
				c0.5-0.1,0.9-0.1,1.4-0.1c4.3,0,7.9,3.5,7.9,7.9c0,4.3-3.5,7.9-7.9,7.9c-1.1,0-2.2-0.2-3.2-0.7c-1-0.4-1.8-1-2.6-1.8l-0.1-0.1
				l-1.3,4c1,0.7,2.1,1.3,3.2,1.7c1.2,0.4,2.6,0.7,3.9,0.7c1.6,0,3.1-0.3,4.6-0.9c1.4-0.6,2.7-1.4,3.7-2.5c1.1-1.1,1.9-2.3,2.5-3.7
				c0.6-1.5,0.9-3,0.9-4.6C136.4,69.2,136.1,67.6,135.5,66.2z"/>
		</g>
		<g>
			<path d="M4.9,99.2c0-1.6,0.5-3.2,1.4-4.5c0.4-0.6,1-1.2,1.6-1.7c0.6-0.4,1.2-0.8,1.8-1.1l1.4-4.4l-0.1,0
				c-2.8,0.4-5.3,1.8-7.1,3.9c-0.9,1-1.6,2.2-2.1,3.5C1.3,96.3,1,97.7,1,99.2c0,1.6,0.3,3.1,0.9,4.6c0.6,1.4,1.4,2.7,2.5,3.7
				l0.1,0.1l1.4-4.4C5.3,102,4.9,100.6,4.9,99.2z"/>
			<g>
				<path d="M12.8,91.3c2,0,3.8,0.8,5.2,2h5c-0.5-0.9-1.1-1.7-1.9-2.4c-1.1-1.1-2.3-1.9-3.7-2.5c-1.5-0.6-3-0.9-4.6-0.9
					c-0.1,0-0.1,0-0.2,0l-1.3,4l0.1,0C11.9,91.3,12.3,91.3,12.8,91.3z"/>
				<path d="M18,105.1c-1.4,1.2-3.2,2-5.2,2c-1.1,0-2.2-0.2-3.2-0.7c-1-0.4-1.8-1-2.6-1.8L7,104.6l-1.3,4c1,0.7,2.1,1.3,3.2,1.7
					c1.2,0.4,2.6,0.7,3.9,0.7c1.6,0,3.1-0.3,4.6-0.9c1.4-0.6,2.7-1.4,3.7-2.5c0.7-0.7,1.4-1.6,1.9-2.4H18z"/>
			</g>
		</g>
		<polygon points="129.1,87.4 129.1,103.6 119.4,89.5 119.4,96.4 129.1,110.2 129.1,110.3 133.1,110.3 133.1,87.4 		"/>
		<path d="M88.2,91.8c-0.4-0.8-0.9-1.6-1.5-2.2v0c-0.6-0.7-1.4-1.2-2.2-1.5c-0.9-0.4-1.8-0.6-2.7-0.6l-10.2,0v22.9h3.9v-19h6.1
			l0.1,0c1.8,0,3.2,1.5,3.2,3.2s-1.4,3.2-3.2,3.2l-0.1,0h-4.7v3.9H82v0c0.9,0,1.7-0.2,2.5-0.6c0.8-0.4,1.6-0.9,2.2-1.5
			c0.6-0.7,1.1-1.4,1.5-2.3c0.4-0.9,0.6-1.8,0.6-2.7C88.8,93.5,88.6,92.6,88.2,91.8z"/>
		<g>
			<path d="M142.8,70.7c0-1.6,0.5-3.2,1.4-4.5c0.4-0.6,1-1.2,1.6-1.7c0.6-0.4,1.2-0.8,1.8-1.1l1.4-4.4l-0.1,0
				c-2.8,0.4-5.3,1.8-7.1,3.9c-0.9,1-1.6,2.2-2.1,3.5c-0.5,1.3-0.8,2.7-0.8,4.2c0,1.6,0.3,3.1,0.9,4.6c0.6,1.4,1.4,2.7,2.5,3.7
				l0.1,0.1l1.4-4.4C143.2,73.6,142.8,72.2,142.8,70.7z"/>
			<path d="M161.5,66.2c-0.6-1.4-1.4-2.7-2.5-3.7c-1.1-1.1-2.3-1.9-3.7-2.5c-1.5-0.6-3-0.9-4.6-0.9c-0.1,0-0.1,0-0.2,0l-1.3,4l0.1,0
				c0.5-0.1,0.9-0.1,1.4-0.1c4.3,0,7.9,3.5,7.9,7.9c0,4.3-3.5,7.9-7.9,7.9c-1.1,0-2.2-0.2-3.2-0.7c-1-0.4-1.8-1-2.6-1.8l-0.1-0.1
				l-1.3,4c1,0.7,2.1,1.3,3.2,1.7c1.2,0.4,2.6,0.7,3.9,0.7c1.6,0,3.1-0.3,4.6-0.9c1.4-0.6,2.7-1.4,3.7-2.5c1.1-1.1,1.9-2.3,2.5-3.7
				c0.6-1.5,0.9-3,0.9-4.6C162.5,69.2,162.1,67.6,161.5,66.2z"/>
		</g>
		<g>
			<rect x="58.7" y="59.3" width="3.9" height="22.9"/>
			<polygon points="73,82.2 78.5,82.2 67.1,70.7 78.5,59.3 73,59.3 64,68.4 66.3,70.7 64,73.1 			"/>
		</g>
		<path d="M57.9,101.6h1.5c0.9,0,1.7-0.2,2.5-0.6c0.8-0.4,1.6-0.9,2.2-1.5c0.6-0.7,1.1-1.4,1.5-2.3c0.4-0.9,0.6-1.8,0.6-2.7
			c0-1-0.2-1.9-0.6-2.7c-0.4-0.8-0.9-1.6-1.5-2.2c-0.6-0.7-1.4-1.2-2.2-1.5c-0.9-0.4-1.8-0.6-2.7-0.6l-10.2,0v22.9h3.9l0-8.3
			l8.3,8.3h5.5L57.9,101.6z M52.7,91.3h6.2l0.1,0c1.8,0,3.2,1.5,3.2,3.2s-1.4,3.2-3.2,3.2l-0.1,0h-6.1V91.3z"/>
		<path d="M168.8,101.6h1.5c0.9,0,1.7-0.2,2.5-0.6c0.8-0.4,1.6-0.9,2.2-1.5c0.6-0.7,1.1-1.4,1.5-2.3c0.4-0.9,0.6-1.8,0.6-2.7
			c0-1-0.2-1.9-0.6-2.7c-0.4-0.8-0.9-1.6-1.5-2.2c-0.6-0.7-1.4-1.2-2.2-1.5c-0.9-0.4-1.8-0.6-2.7-0.6l-10.2,0v22.9h3.9l0-8.3
			l8.3,8.3h5.5L168.8,101.6z M163.7,91.3h6.2l0.1,0c1.8,0,3.2,1.5,3.2,3.2s-1.4,3.2-3.2,3.2l-0.1,0h-6.1V91.3z"/>
	</g>
</g>
<g id="mwo" class="st0">
	<g class="st1">
		<path d="M191.7,51.6h-53.4l-6.6-3H99.4H65.8l-5.9,3H7.2l-5,5.2v14.9l0.6,0.6c0.8,0.8,1.3,1.4,1.9,2c0.6,0.6,1.2,1.3,2,2.1l0.6,0.6
			h18.6l2.5,2.5l6.6,0l10.8,18.7l6.9,4.9h14.3l9.7,6h22.9h22.9l9.7-6h14.3l6.9-4.9l10.8-18.7h6.6l2.5-2.5h18.7l5.1-5.3V56.8
			L191.7,51.6z M194.8,70.8c-1.5,1.6-2.4,2.5-3.9,4.1h-18.7c-1,1-1.5,1.5-2.5,2.5h-35.3l25.9,4.5l-8.6,14.7c-2.1,1.3-3.8,3.1-6,4.3
			h-14.3l-9.7,6H99.4H77l-9.7-6H53c-2.1-1.3-3.8-3.1-6-4.3l-8.6-14.7l25.9-4.5H29c-1-1-1.5-1.5-2.5-2.5H8c-1.5-1.6-2.4-2.5-3.9-4.1
			V57.6c1.5-1.6,2.4-2.5,3.9-4h49.5l6.6-3h35.3H134l6.6,3h50.3c1.5,1.6,2.4,2.5,3.9,4V70.8z"/>
		<linearGradient id="SVGID_1_" gradientUnits="userSpaceOnUse" x1="2.149" y1="78.7982" x2="196.7501" y2="78.7982">
			<stop  offset="0" style="stop-color:#FFFFFF;stop-opacity:0"/>
			<stop  offset="0.2836" style="stop-color:#FFFFFF;stop-opacity:0"/>
			<stop  offset="0.9997" style="stop-color:#FFFFFF;stop-opacity:0.1"/>
		</linearGradient>
		<path class="st2" d="M191.7,51.6h-53.4l-6.6-3H99.4H65.8l-5.9,3H7.2l-5,5.2v14.9l0.6,0.6c0.8,0.8,1.3,1.4,1.9,2
			c0.6,0.6,1.2,1.3,2,2.1l0.6,0.6h18.6l2.5,2.5l6.6,0l10.8,18.7l6.9,4.9h14.3l9.7,6h22.9h22.9l9.7-6h14.3l6.9-4.9l10.8-18.7h6.6
			l2.5-2.5h18.7l5.1-5.3V56.8L191.7,51.6z M194.8,70.8c-1.5,1.6-2.4,2.5-3.9,4.1h-18.7c-1,1-1.5,1.5-2.5,2.5l-5.8,2l-12.3,17.2
			c-2.1,1.3-3.8,3.1-6,4.3h-14.3l-9.7,6H99.4H77l-9.7-6H53c-2.1-1.3-3.8-3.1-6-4.3l-8.6-14.7l25.9-4.5H29c-1-1-1.5-1.5-2.5-2.5H8
			c-1.5-1.6-2.4-2.5-3.9-4.1V57.6c1.5-1.6,2.4-2.5,3.9-4h49.5l6.6-3h35.3H134l6.6,3h50.3c1.5,1.6,2.4,2.5,3.9,4V70.8z"/>
		<polygon points="79.6,103.9 73.5,100.6 125.7,100.6 119.6,103.9 		"/>
		<polygon points="79.8,103.3 76.2,101.3 123.2,101.3 119.4,103.3 		"/>
		<polygon class="st3" points="53.1,101 52.5,103 45.6,98.1 34.8,79.5 47.1,96.7 		"/>
		<g>
			<defs>
				<polygon id="SVGID_00000119810442997161697190000006601542392521144760_" points="79.8,103.3 76.2,101.2 123.2,101.2 
					119.4,103.3 				"/>
			</defs>
			<clipPath id="SVGID_00000179622302432201976640000017060686888173979827_">
				<use xlink:href="#SVGID_00000119810442997161697190000006601542392521144760_"  style="overflow:visible;"/>
			</clipPath>
			<g style="clip-path:url(#SVGID_00000179622302432201976640000017060686888173979827_);">
				<g>
					<polygon class="st5" points="75.8,98.7 75.8,99.3 76.4,99.6 76.9,99.3 76.9,98.7 76.4,98.4 					"/>
					<polygon class="st5" points="76.9,98.7 76.9,99.3 77.5,99.6 78,99.3 78,98.7 77.5,98.4 					"/>
					<polygon class="st5" points="78.1,98.7 78.1,99.3 78.6,99.6 79.2,99.3 79.2,98.7 78.6,98.4 					"/>
					<polygon class="st5" points="79.2,98.7 79.2,99.3 79.7,99.6 80.3,99.3 80.3,98.7 79.7,98.4 					"/>
					<polygon class="st5" points="80.3,98.7 80.3,99.3 80.8,99.6 81.4,99.3 81.4,98.7 80.8,98.4 					"/>
					<polygon class="st5" points="81.4,98.7 81.4,99.3 81.9,99.6 82.5,99.3 82.5,98.7 81.9,98.4 					"/>
					<polygon class="st5" points="82.5,98.7 82.5,99.3 83.1,99.6 83.6,99.3 83.6,98.7 83.1,98.4 					"/>
					<polygon class="st5" points="83.6,98.7 83.6,99.3 84.2,99.6 84.7,99.3 84.7,98.7 84.2,98.4 					"/>
					<polygon class="st5" points="84.7,98.7 84.7,99.3 85.3,99.6 85.8,99.3 85.8,98.7 85.3,98.4 					"/>
					<polygon class="st5" points="85.8,98.7 85.8,99.3 86.4,99.6 86.9,99.3 86.9,98.7 86.4,98.4 					"/>
					<polygon class="st5" points="87,98.7 87,99.3 87.5,99.6 88.1,99.3 88.1,98.7 87.5,98.4 					"/>
					<polygon class="st5" points="88.1,98.7 88.1,99.3 88.6,99.6 89.2,99.3 89.2,98.7 88.6,98.4 					"/>
					<polygon class="st5" points="89.2,98.7 89.2,99.3 89.7,99.6 90.3,99.3 90.3,98.7 89.7,98.4 					"/>
					<polygon class="st5" points="90.3,98.7 90.3,99.3 90.8,99.6 91.4,99.3 91.4,98.7 90.8,98.4 					"/>
					<polygon class="st5" points="91.4,98.7 91.4,99.3 92,99.6 92.5,99.3 92.5,98.7 92,98.4 					"/>
					<polygon class="st5" points="92.5,98.7 92.5,99.3 93.1,99.6 93.6,99.3 93.6,98.7 93.1,98.4 					"/>
					<polygon class="st5" points="93.6,98.7 93.6,99.3 94.2,99.6 94.7,99.3 94.7,98.7 94.2,98.4 					"/>
					<polygon class="st5" points="94.7,98.7 94.7,99.3 95.3,99.6 95.8,99.3 95.8,98.7 95.3,98.4 					"/>
					<polygon class="st5" points="95.9,98.7 95.9,99.3 96.4,99.6 97,99.3 97,98.7 96.4,98.4 					"/>
					<polygon class="st5" points="97,98.7 97,99.3 97.5,99.6 98.1,99.3 98.1,98.7 97.5,98.4 					"/>
					<polygon class="st5" points="98.1,98.7 98.1,99.3 98.6,99.6 99.2,99.3 99.2,98.7 98.6,98.4 					"/>
					<polygon class="st5" points="76.4,99.6 76.4,100.3 76.9,100.6 77.5,100.3 77.5,99.6 76.9,99.3 					"/>
					<polygon class="st5" points="77.5,99.6 77.5,100.3 78,100.6 78.6,100.3 78.6,99.6 78,99.3 					"/>
					<polygon class="st5" points="78.6,99.6 78.6,100.3 79.2,100.6 79.7,100.3 79.7,99.6 79.2,99.3 					"/>
					<polygon class="st5" points="79.7,99.6 79.7,100.3 80.3,100.6 80.8,100.3 80.8,99.6 80.3,99.3 					"/>
					<polygon class="st5" points="80.8,99.6 80.8,100.3 81.4,100.6 81.9,100.3 81.9,99.6 81.4,99.3 					"/>
					<polygon class="st5" points="81.9,99.6 81.9,100.3 82.5,100.6 83,100.3 83,99.6 82.5,99.3 					"/>
					<polygon class="st5" points="83.1,99.6 83.1,100.3 83.6,100.6 84.2,100.3 84.2,99.6 83.6,99.3 					"/>
					<polygon class="st5" points="84.2,99.6 84.2,100.3 84.7,100.6 85.3,100.3 85.3,99.6 84.7,99.3 					"/>
					<polygon class="st5" points="85.3,99.6 85.3,100.3 85.8,100.6 86.4,100.3 86.4,99.6 85.8,99.3 					"/>
					<polygon class="st5" points="86.4,99.6 86.4,100.3 86.9,100.6 87.5,100.3 87.5,99.6 86.9,99.3 					"/>
					<polygon class="st5" points="87.5,99.6 87.5,100.3 88.1,100.6 88.6,100.3 88.6,99.6 88.1,99.3 					"/>
					<polygon class="st5" points="88.6,99.6 88.6,100.3 89.2,100.6 89.7,100.3 89.7,99.6 89.2,99.3 					"/>
					<polygon class="st5" points="89.7,99.6 89.7,100.3 90.3,100.6 90.8,100.3 90.8,99.6 90.3,99.3 					"/>
					<polygon class="st5" points="90.8,99.6 90.8,100.3 91.4,100.6 91.9,100.3 91.9,99.6 91.4,99.3 					"/>
					<polygon class="st5" points="92,99.6 92,100.3 92.5,100.6 93.1,100.3 93.1,99.6 92.5,99.3 					"/>
					<polygon class="st5" points="93.1,99.6 93.1,100.3 93.6,100.6 94.2,100.3 94.2,99.6 93.6,99.3 					"/>
					<polygon class="st5" points="94.2,99.6 94.2,100.3 94.7,100.6 95.3,100.3 95.3,99.6 94.7,99.3 					"/>
					<polygon class="st5" points="95.3,99.6 95.3,100.3 95.8,100.6 96.4,100.3 96.4,99.6 95.8,99.3 					"/>
					<polygon class="st5" points="96.4,99.6 96.4,100.3 97,100.6 97.5,100.3 97.5,99.6 97,99.3 					"/>
					<polygon class="st5" points="97.5,99.6 97.5,100.3 98.1,100.6 98.6,100.3 98.6,99.6 98.1,99.3 					"/>
					<polygon class="st5" points="98.6,99.6 98.6,100.3 99.2,100.6 99.7,100.3 99.7,99.6 99.2,99.3 					"/>
					<polygon class="st5" points="75.8,100.6 75.8,101.2 76.4,101.6 76.9,101.2 76.9,100.6 76.4,100.3 					"/>
					<polygon class="st5" points="76.9,100.6 76.9,101.2 77.5,101.6 78,101.2 78,100.6 77.5,100.3 					"/>
					<polygon class="st5" points="78.1,100.6 78.1,101.2 78.6,101.6 79.2,101.2 79.2,100.6 78.6,100.3 					"/>
					<polygon class="st5" points="79.2,100.6 79.2,101.2 79.7,101.6 80.3,101.2 80.3,100.6 79.7,100.3 					"/>
					<polygon class="st5" points="80.3,100.6 80.3,101.2 80.8,101.6 81.4,101.2 81.4,100.6 80.8,100.3 					"/>
					<polygon class="st5" points="81.4,100.6 81.4,101.2 81.9,101.6 82.5,101.2 82.5,100.6 81.9,100.3 					"/>
					<polygon class="st5" points="82.5,100.6 82.5,101.2 83.1,101.6 83.6,101.2 83.6,100.6 83.1,100.3 					"/>
					<polygon class="st5" points="83.6,100.6 83.6,101.2 84.2,101.6 84.7,101.2 84.7,100.6 84.2,100.3 					"/>
					<polygon class="st5" points="84.7,100.6 84.7,101.2 85.3,101.6 85.8,101.2 85.8,100.6 85.3,100.3 					"/>
					<polygon class="st5" points="85.8,100.6 85.8,101.2 86.4,101.6 86.9,101.2 86.9,100.6 86.4,100.3 					"/>
					<polygon class="st5" points="87,100.6 87,101.2 87.5,101.6 88.1,101.2 88.1,100.6 87.5,100.3 					"/>
					<polygon class="st5" points="88.1,100.6 88.1,101.2 88.6,101.6 89.2,101.2 89.2,100.6 88.6,100.3 					"/>
					<polygon class="st5" points="89.2,100.6 89.2,101.2 89.7,101.6 90.3,101.2 90.3,100.6 89.7,100.3 					"/>
					<polygon class="st5" points="90.3,100.6 90.3,101.2 90.8,101.6 91.4,101.2 91.4,100.6 90.8,100.3 					"/>
					<polygon class="st5" points="91.4,100.6 91.4,101.2 92,101.6 92.5,101.2 92.5,100.6 92,100.3 					"/>
					<polygon class="st5" points="92.5,100.6 92.5,101.2 93.1,101.6 93.6,101.2 93.6,100.6 93.1,100.3 					"/>
					<polygon class="st5" points="93.6,100.6 93.6,101.2 94.2,101.6 94.7,101.2 94.7,100.6 94.2,100.3 					"/>
					<polygon class="st5" points="94.7,100.6 94.7,101.2 95.3,101.6 95.8,101.2 95.8,100.6 95.3,100.3 					"/>
					<polygon class="st5" points="95.9,100.6 95.9,101.2 96.4,101.6 97,101.2 97,100.6 96.4,100.3 					"/>
					<polygon class="st5" points="97,100.6 97,101.2 97.5,101.6 98.1,101.2 98.1,100.6 97.5,100.3 					"/>
					<polygon class="st5" points="98.1,100.6 98.1,101.2 98.6,101.6 99.2,101.2 99.2,100.6 98.6,100.3 					"/>
				</g>
				<g>
					<polygon class="st5" points="99.2,98.7 99.2,99.3 99.7,99.6 100.3,99.3 100.3,98.7 99.7,98.4 					"/>
					<polygon class="st5" points="100.3,98.7 100.3,99.3 100.8,99.6 101.4,99.3 101.4,98.7 100.8,98.4 					"/>
					<polygon class="st5" points="101.4,98.7 101.4,99.3 101.9,99.6 102.5,99.3 102.5,98.7 101.9,98.4 					"/>
					<polygon class="st5" points="102.5,98.7 102.5,99.3 103.1,99.6 103.6,99.3 103.6,98.7 103.1,98.4 					"/>
					<polygon class="st5" points="103.6,98.7 103.6,99.3 104.2,99.6 104.7,99.3 104.7,98.7 104.2,98.4 					"/>
					<polygon class="st5" points="104.7,98.7 104.7,99.3 105.3,99.6 105.8,99.3 105.8,98.7 105.3,98.4 					"/>
					<polygon class="st5" points="105.8,98.7 105.8,99.3 106.4,99.6 106.9,99.3 106.9,98.7 106.4,98.4 					"/>
					<polygon class="st5" points="107,98.7 107,99.3 107.5,99.6 108.1,99.3 108.1,98.7 107.5,98.4 					"/>
					<polygon class="st5" points="108.1,98.7 108.1,99.3 108.6,99.6 109.2,99.3 109.2,98.7 108.6,98.4 					"/>
					<polygon class="st5" points="109.2,98.7 109.2,99.3 109.7,99.6 110.3,99.3 110.3,98.7 109.7,98.4 					"/>
					<polygon class="st5" points="110.3,98.7 110.3,99.3 110.8,99.6 111.4,99.3 111.4,98.7 110.8,98.4 					"/>
					<polygon class="st5" points="111.4,98.7 111.4,99.3 112,99.6 112.5,99.3 112.5,98.7 112,98.4 					"/>
					<polygon class="st5" points="112.5,98.7 112.5,99.3 113.1,99.6 113.6,99.3 113.6,98.7 113.1,98.4 					"/>
					<polygon class="st5" points="113.6,98.7 113.6,99.3 114.2,99.6 114.7,99.3 114.7,98.7 114.2,98.4 					"/>
					<polygon class="st5" points="114.7,98.7 114.7,99.3 115.3,99.6 115.8,99.3 115.8,98.7 115.3,98.4 					"/>
					<polygon class="st5" points="115.9,98.7 115.9,99.3 116.4,99.6 117,99.3 117,98.7 116.4,98.4 					"/>
					<polygon class="st5" points="117,98.7 117,99.3 117.5,99.6 118.1,99.3 118.1,98.7 117.5,98.4 					"/>
					<polygon class="st5" points="118.1,98.7 118.1,99.3 118.6,99.6 119.2,99.3 119.2,98.7 118.6,98.4 					"/>
					<polygon class="st5" points="119.2,98.7 119.2,99.3 119.7,99.6 120.3,99.3 120.3,98.7 119.7,98.4 					"/>
					<polygon class="st5" points="120.3,98.7 120.3,99.3 120.9,99.6 121.4,99.3 121.4,98.7 120.9,98.4 					"/>
					<polygon class="st5" points="121.4,98.7 121.4,99.3 122,99.6 122.5,99.3 122.5,98.7 122,98.4 					"/>
					<polygon class="st5" points="99.7,99.6 99.7,100.3 100.3,100.6 100.8,100.3 100.8,99.6 100.3,99.3 					"/>
					<polygon class="st5" points="100.8,99.6 100.8,100.3 101.4,100.6 101.9,100.3 101.9,99.6 101.4,99.3 					"/>
					<polygon class="st5" points="101.9,99.6 101.9,100.3 102.5,100.6 103.1,100.3 103.1,99.6 102.5,99.3 					"/>
					<polygon class="st5" points="103.1,99.6 103.1,100.3 103.6,100.6 104.2,100.3 104.2,99.6 103.6,99.3 					"/>
					<polygon class="st5" points="104.2,99.6 104.2,100.3 104.7,100.6 105.3,100.3 105.3,99.6 104.7,99.3 					"/>
					<polygon class="st5" points="105.3,99.6 105.3,100.3 105.8,100.6 106.4,100.3 106.4,99.6 105.8,99.3 					"/>
					<polygon class="st5" points="106.4,99.6 106.4,100.3 106.9,100.6 107.5,100.3 107.5,99.6 106.9,99.3 					"/>
					<polygon class="st5" points="107.5,99.6 107.5,100.3 108.1,100.6 108.6,100.3 108.6,99.6 108.1,99.3 					"/>
					<polygon class="st5" points="108.6,99.6 108.6,100.3 109.2,100.6 109.7,100.3 109.7,99.6 109.2,99.3 					"/>
					<polygon class="st5" points="109.7,99.6 109.7,100.3 110.3,100.6 110.8,100.3 110.8,99.6 110.3,99.3 					"/>
					<polygon class="st5" points="110.8,99.6 110.8,100.3 111.4,100.6 112,100.3 112,99.6 111.4,99.3 					"/>
					<polygon class="st5" points="112,99.6 112,100.3 112.5,100.6 113.1,100.3 113.1,99.6 112.5,99.3 					"/>
					<polygon class="st5" points="113.1,99.6 113.1,100.3 113.6,100.6 114.2,100.3 114.2,99.6 113.6,99.3 					"/>
					<polygon class="st5" points="114.2,99.6 114.2,100.3 114.7,100.6 115.3,100.3 115.3,99.6 114.7,99.3 					"/>
					<polygon class="st5" points="115.3,99.6 115.3,100.3 115.8,100.6 116.4,100.3 116.4,99.6 115.8,99.3 					"/>
					<polygon class="st5" points="116.4,99.6 116.4,100.3 117,100.6 117.5,100.3 117.5,99.6 117,99.3 					"/>
					<polygon class="st5" points="117.5,99.6 117.5,100.3 118.1,100.6 118.6,100.3 118.6,99.6 118.1,99.3 					"/>
					<polygon class="st5" points="118.6,99.6 118.6,100.3 119.2,100.6 119.7,100.3 119.7,99.6 119.2,99.3 					"/>
					<polygon class="st5" points="119.7,99.6 119.7,100.3 120.3,100.6 120.9,100.3 120.9,99.6 120.3,99.3 					"/>
					<polygon class="st5" points="120.9,99.6 120.9,100.3 121.4,100.6 122,100.3 122,99.6 121.4,99.3 					"/>
					<polygon class="st5" points="122,99.6 122,100.3 122.5,100.6 123.1,100.3 123.1,99.6 122.5,99.3 					"/>
					<polygon class="st5" points="99.2,100.6 99.2,101.2 99.7,101.6 100.3,101.2 100.3,100.6 99.7,100.3 					"/>
					<polygon class="st5" points="100.3,100.6 100.3,101.2 100.8,101.6 101.4,101.2 101.4,100.6 100.8,100.3 					"/>
					<polygon class="st5" points="101.4,100.6 101.4,101.2 101.9,101.6 102.5,101.2 102.5,100.6 101.9,100.3 					"/>
					<polygon class="st5" points="102.5,100.6 102.5,101.2 103.1,101.6 103.6,101.2 103.6,100.6 103.1,100.3 					"/>
					<polygon class="st5" points="103.6,100.6 103.6,101.2 104.2,101.6 104.7,101.2 104.7,100.6 104.2,100.3 					"/>
					<polygon class="st5" points="104.7,100.6 104.7,101.2 105.3,101.6 105.8,101.2 105.8,100.6 105.3,100.3 					"/>
					<polygon class="st5" points="105.8,100.6 105.8,101.2 106.4,101.6 106.9,101.2 106.9,100.6 106.4,100.3 					"/>
					<polygon class="st5" points="107,100.6 107,101.2 107.5,101.6 108.1,101.2 108.1,100.6 107.5,100.3 					"/>
					<polygon class="st5" points="108.1,100.6 108.1,101.2 108.6,101.6 109.2,101.2 109.2,100.6 108.6,100.3 					"/>
					<polygon class="st5" points="109.2,100.6 109.2,101.2 109.7,101.6 110.3,101.2 110.3,100.6 109.7,100.3 					"/>
					<polygon class="st5" points="110.3,100.6 110.3,101.2 110.8,101.6 111.4,101.2 111.4,100.6 110.8,100.3 					"/>
					<polygon class="st5" points="111.4,100.6 111.4,101.2 112,101.6 112.5,101.2 112.5,100.6 112,100.3 					"/>
					<polygon class="st5" points="112.5,100.6 112.5,101.2 113.1,101.6 113.6,101.2 113.6,100.6 113.1,100.3 					"/>
					<polygon class="st5" points="113.6,100.6 113.6,101.2 114.2,101.6 114.7,101.2 114.7,100.6 114.2,100.3 					"/>
					<polygon class="st5" points="114.7,100.6 114.7,101.2 115.3,101.6 115.8,101.2 115.8,100.6 115.3,100.3 					"/>
					<polygon class="st5" points="115.9,100.6 115.9,101.2 116.4,101.6 117,101.2 117,100.6 116.4,100.3 					"/>
					<polygon class="st5" points="117,100.6 117,101.2 117.5,101.6 118.1,101.2 118.1,100.6 117.5,100.3 					"/>
					<polygon class="st5" points="118.1,100.6 118.1,101.2 118.6,101.6 119.2,101.2 119.2,100.6 118.6,100.3 					"/>
					<polygon class="st5" points="119.2,100.6 119.2,101.2 119.7,101.6 120.3,101.2 120.3,100.6 119.7,100.3 					"/>
					<polygon class="st5" points="120.3,100.6 120.3,101.2 120.9,101.6 121.4,101.2 121.4,100.6 120.9,100.3 					"/>
					<polygon class="st5" points="121.4,100.6 121.4,101.2 122,101.6 122.5,101.2 122.5,100.6 122,100.3 					"/>
				</g>
				<g>
					<polygon class="st5" points="76.4,101.6 76.4,102.2 76.9,102.5 77.5,102.2 77.5,101.6 76.9,101.2 					"/>
					<polygon class="st5" points="77.5,101.6 77.5,102.2 78,102.5 78.6,102.2 78.6,101.6 78,101.2 					"/>
					<polygon class="st5" points="78.6,101.6 78.6,102.2 79.1,102.5 79.7,102.2 79.7,101.6 79.1,101.2 					"/>
					<polygon class="st5" points="79.7,101.6 79.7,102.2 80.3,102.5 80.8,102.2 80.8,101.6 80.3,101.2 					"/>
					<polygon class="st5" points="80.8,101.6 80.8,102.2 81.4,102.5 81.9,102.2 81.9,101.6 81.4,101.2 					"/>
					<polygon class="st5" points="81.9,101.6 81.9,102.2 82.5,102.5 83,102.2 83,101.6 82.5,101.2 					"/>
					<polygon class="st5" points="83,101.6 83,102.2 83.6,102.5 84.1,102.2 84.1,101.6 83.6,101.2 					"/>
					<polygon class="st5" points="84.2,101.6 84.2,102.2 84.7,102.5 85.3,102.2 85.3,101.6 84.7,101.2 					"/>
					<polygon class="st5" points="85.3,101.6 85.3,102.2 85.8,102.5 86.4,102.2 86.4,101.6 85.8,101.2 					"/>
					<polygon class="st5" points="86.4,101.6 86.4,102.2 86.9,102.5 87.5,102.2 87.5,101.6 86.9,101.2 					"/>
					<polygon class="st5" points="87.5,101.6 87.5,102.2 88,102.5 88.6,102.2 88.6,101.6 88,101.2 					"/>
					<polygon class="st5" points="88.6,101.6 88.6,102.2 89.2,102.5 89.7,102.2 89.7,101.6 89.2,101.2 					"/>
					<polygon class="st5" points="89.7,101.6 89.7,102.2 90.3,102.5 90.8,102.2 90.8,101.6 90.3,101.2 					"/>
					<polygon class="st5" points="90.8,101.6 90.8,102.2 91.4,102.5 91.9,102.2 91.9,101.6 91.4,101.2 					"/>
					<polygon class="st5" points="91.9,101.6 91.9,102.2 92.5,102.5 93,102.2 93,101.6 92.5,101.2 					"/>
					<polygon class="st5" points="93.1,101.6 93.1,102.2 93.6,102.5 94.2,102.2 94.2,101.6 93.6,101.2 					"/>
					<polygon class="st5" points="94.2,101.6 94.2,102.2 94.7,102.5 95.3,102.2 95.3,101.6 94.7,101.2 					"/>
					<polygon class="st5" points="95.3,101.6 95.3,102.2 95.8,102.5 96.4,102.2 96.4,101.6 95.8,101.2 					"/>
					<polygon class="st5" points="96.4,101.6 96.4,102.2 96.9,102.5 97.5,102.2 97.5,101.6 96.9,101.2 					"/>
					<polygon class="st5" points="97.5,101.6 97.5,102.2 98.1,102.5 98.6,102.2 98.6,101.6 98.1,101.2 					"/>
					<polygon class="st5" points="98.6,101.6 98.6,102.2 99.2,102.5 99.7,102.2 99.7,101.6 99.2,101.2 					"/>
					<polygon class="st5" points="76.9,102.5 76.9,103.2 77.5,103.5 78,103.2 78,102.5 77.5,102.2 					"/>
					<polygon class="st5" points="78,102.5 78,103.2 78.6,103.5 79.1,103.2 79.1,102.5 78.6,102.2 					"/>
					<polygon class="st5" points="79.1,102.5 79.1,103.2 79.7,103.5 80.3,103.2 80.3,102.5 79.7,102.2 					"/>
					<polygon class="st5" points="80.3,102.5 80.3,103.2 80.8,103.5 81.4,103.2 81.4,102.5 80.8,102.2 					"/>
					<polygon class="st5" points="81.4,102.5 81.4,103.2 81.9,103.5 82.5,103.2 82.5,102.5 81.9,102.2 					"/>
					<polygon class="st5" points="82.5,102.5 82.5,103.2 83,103.5 83.6,103.2 83.6,102.5 83,102.2 					"/>
					<polygon class="st5" points="83.6,102.5 83.6,103.2 84.1,103.5 84.7,103.2 84.7,102.5 84.1,102.2 					"/>
					<polygon class="st5" points="84.7,102.5 84.7,103.2 85.3,103.5 85.8,103.2 85.8,102.5 85.3,102.2 					"/>
					<polygon class="st5" points="85.8,102.5 85.8,103.2 86.4,103.5 86.9,103.2 86.9,102.5 86.4,102.2 					"/>
					<polygon class="st5" points="86.9,102.5 86.9,103.2 87.5,103.5 88,103.2 88,102.5 87.5,102.2 					"/>
					<polygon class="st5" points="88,102.5 88,103.2 88.6,103.5 89.2,103.2 89.2,102.5 88.6,102.2 					"/>
					<polygon class="st5" points="89.2,102.5 89.2,103.2 89.7,103.5 90.3,103.2 90.3,102.5 89.7,102.2 					"/>
					<polygon class="st5" points="90.3,102.5 90.3,103.2 90.8,103.5 91.4,103.2 91.4,102.5 90.8,102.2 					"/>
					<polygon class="st5" points="91.4,102.5 91.4,103.2 91.9,103.5 92.5,103.2 92.5,102.5 91.9,102.2 					"/>
					<polygon class="st5" points="92.5,102.5 92.5,103.2 93,103.5 93.6,103.2 93.6,102.5 93,102.2 					"/>
					<polygon class="st5" points="93.6,102.5 93.6,103.2 94.2,103.5 94.7,103.2 94.7,102.5 94.2,102.2 					"/>
					<polygon class="st5" points="94.7,102.5 94.7,103.2 95.3,103.5 95.8,103.2 95.8,102.5 95.3,102.2 					"/>
					<polygon class="st5" points="95.8,102.5 95.8,103.2 96.4,103.5 96.9,103.2 96.9,102.5 96.4,102.2 					"/>
					<polygon class="st5" points="96.9,102.5 96.9,103.2 97.5,103.5 98.1,103.2 98.1,102.5 97.5,102.2 					"/>
					<polygon class="st5" points="98.1,102.5 98.1,103.2 98.6,103.5 99.2,103.2 99.2,102.5 98.6,102.2 					"/>
					<polygon class="st5" points="99.2,102.5 99.2,103.2 99.7,103.5 100.3,103.2 100.3,102.5 99.7,102.2 					"/>
					<polygon class="st5" points="76.4,103.5 76.4,104.1 76.9,104.4 77.5,104.1 77.5,103.5 76.9,103.2 					"/>
					<polygon class="st5" points="77.5,103.5 77.5,104.1 78,104.4 78.6,104.1 78.6,103.5 78,103.2 					"/>
					<polygon class="st5" points="78.6,103.5 78.6,104.1 79.1,104.4 79.7,104.1 79.7,103.5 79.1,103.2 					"/>
					<polygon class="st5" points="79.7,103.5 79.7,104.1 80.3,104.4 80.8,104.1 80.8,103.5 80.3,103.2 					"/>
					<polygon class="st5" points="80.8,103.5 80.8,104.1 81.4,104.4 81.9,104.1 81.9,103.5 81.4,103.2 					"/>
					<polygon class="st5" points="81.9,103.5 81.9,104.1 82.5,104.4 83,104.1 83,103.5 82.5,103.2 					"/>
					<polygon class="st5" points="83,103.5 83,104.1 83.6,104.4 84.1,104.1 84.1,103.5 83.6,103.2 					"/>
					<polygon class="st5" points="84.2,103.5 84.2,104.1 84.7,104.4 85.3,104.1 85.3,103.5 84.7,103.2 					"/>
					<polygon class="st5" points="85.3,103.5 85.3,104.1 85.8,104.4 86.4,104.1 86.4,103.5 85.8,103.2 					"/>
					<polygon class="st5" points="86.4,103.5 86.4,104.1 86.9,104.4 87.5,104.1 87.5,103.5 86.9,103.2 					"/>
					<polygon class="st5" points="87.5,103.5 87.5,104.1 88,104.4 88.6,104.1 88.6,103.5 88,103.2 					"/>
					<polygon class="st5" points="88.6,103.5 88.6,104.1 89.2,104.4 89.7,104.1 89.7,103.5 89.2,103.2 					"/>
					<polygon class="st5" points="89.7,103.5 89.7,104.1 90.3,104.4 90.8,104.1 90.8,103.5 90.3,103.2 					"/>
					<polygon class="st5" points="90.8,103.5 90.8,104.1 91.4,104.4 91.9,104.1 91.9,103.5 91.4,103.2 					"/>
					<polygon class="st5" points="91.9,103.5 91.9,104.1 92.5,104.4 93,104.1 93,103.5 92.5,103.2 					"/>
					<polygon class="st5" points="93.1,103.5 93.1,104.1 93.6,104.4 94.2,104.1 94.2,103.5 93.6,103.2 					"/>
					<polygon class="st5" points="94.2,103.5 94.2,104.1 94.7,104.4 95.3,104.1 95.3,103.5 94.7,103.2 					"/>
					<polygon class="st5" points="95.3,103.5 95.3,104.1 95.8,104.4 96.4,104.1 96.4,103.5 95.8,103.2 					"/>
					<polygon class="st5" points="96.4,103.5 96.4,104.1 96.9,104.4 97.5,104.1 97.5,103.5 96.9,103.2 					"/>
					<polygon class="st5" points="97.5,103.5 97.5,104.1 98.1,104.4 98.6,104.1 98.6,103.5 98.1,103.2 					"/>
					<polygon class="st5" points="98.6,103.5 98.6,104.1 99.2,104.4 99.7,104.1 99.7,103.5 99.2,103.2 					"/>
				</g>
				<g>
					<polygon class="st5" points="99.7,101.6 99.7,102.2 100.3,102.5 100.8,102.2 100.8,101.6 100.3,101.2 					"/>
					<polygon class="st5" points="100.8,101.6 100.8,102.2 101.4,102.5 101.9,102.2 101.9,101.6 101.4,101.2 					"/>
					<polygon class="st5" points="101.9,101.6 101.9,102.2 102.5,102.5 103,102.2 103,101.6 102.5,101.2 					"/>
					<polygon class="st5" points="103,101.6 103,102.2 103.6,102.5 104.2,102.2 104.2,101.6 103.6,101.2 					"/>
					<polygon class="st5" points="104.2,101.6 104.2,102.2 104.7,102.5 105.3,102.2 105.3,101.6 104.7,101.2 					"/>
					<polygon class="st5" points="105.3,101.6 105.3,102.2 105.8,102.5 106.4,102.2 106.4,101.6 105.8,101.2 					"/>
					<polygon class="st5" points="106.4,101.6 106.4,102.2 106.9,102.5 107.5,102.2 107.5,101.6 106.9,101.2 					"/>
					<polygon class="st5" points="107.5,101.6 107.5,102.2 108.1,102.5 108.6,102.2 108.6,101.6 108.1,101.2 					"/>
					<polygon class="st5" points="108.6,101.6 108.6,102.2 109.2,102.5 109.7,102.2 109.7,101.6 109.2,101.2 					"/>
					<polygon class="st5" points="109.7,101.6 109.7,102.2 110.3,102.5 110.8,102.2 110.8,101.6 110.3,101.2 					"/>
					<polygon class="st5" points="110.8,101.6 110.8,102.2 111.4,102.5 111.9,102.2 111.9,101.6 111.4,101.2 					"/>
					<polygon class="st5" points="111.9,101.6 111.9,102.2 112.5,102.5 113.1,102.2 113.1,101.6 112.5,101.2 					"/>
					<polygon class="st5" points="113.1,101.6 113.1,102.2 113.6,102.5 114.2,102.2 114.2,101.6 113.6,101.2 					"/>
					<polygon class="st5" points="114.2,101.6 114.2,102.2 114.7,102.5 115.3,102.2 115.3,101.6 114.7,101.2 					"/>
					<polygon class="st5" points="115.3,101.6 115.3,102.2 115.8,102.5 116.4,102.2 116.4,101.6 115.8,101.2 					"/>
					<polygon class="st5" points="116.4,101.6 116.4,102.2 116.9,102.5 117.5,102.2 117.5,101.6 116.9,101.2 					"/>
					<polygon class="st5" points="117.5,101.6 117.5,102.2 118.1,102.5 118.6,102.2 118.6,101.6 118.1,101.2 					"/>
					<polygon class="st5" points="118.6,101.6 118.6,102.2 119.2,102.5 119.7,102.2 119.7,101.6 119.2,101.2 					"/>
					<polygon class="st5" points="119.7,101.6 119.7,102.2 120.3,102.5 120.8,102.2 120.8,101.6 120.3,101.2 					"/>
					<polygon class="st5" points="120.8,101.6 120.8,102.2 121.4,102.5 122,102.2 122,101.6 121.4,101.2 					"/>
					<polygon class="st5" points="122,101.6 122,102.2 122.5,102.5 123.1,102.2 123.1,101.6 122.5,101.2 					"/>
					<polygon class="st5" points="100.3,102.5 100.3,103.2 100.8,103.5 101.4,103.2 101.4,102.5 100.8,102.2 					"/>
					<polygon class="st5" points="101.4,102.5 101.4,103.2 101.9,103.5 102.5,103.2 102.5,102.5 101.9,102.2 					"/>
					<polygon class="st5" points="102.5,102.5 102.5,103.2 103,103.5 103.6,103.2 103.6,102.5 103,102.2 					"/>
					<polygon class="st5" points="103.6,102.5 103.6,103.2 104.2,103.5 104.7,103.2 104.7,102.5 104.2,102.2 					"/>
					<polygon class="st5" points="104.7,102.5 104.7,103.2 105.3,103.5 105.8,103.2 105.8,102.5 105.3,102.2 					"/>
					<polygon class="st5" points="105.8,102.5 105.8,103.2 106.4,103.5 106.9,103.2 106.9,102.5 106.4,102.2 					"/>
					<polygon class="st5" points="106.9,102.5 106.9,103.2 107.5,103.5 108,103.2 108,102.5 107.5,102.2 					"/>
					<polygon class="st5" points="108.1,102.5 108.1,103.2 108.6,103.5 109.2,103.2 109.2,102.5 108.6,102.2 					"/>
					<polygon class="st5" points="109.2,102.5 109.2,103.2 109.7,103.5 110.3,103.2 110.3,102.5 109.7,102.2 					"/>
					<polygon class="st5" points="110.3,102.5 110.3,103.2 110.8,103.5 111.4,103.2 111.4,102.5 110.8,102.2 					"/>
					<polygon class="st5" points="111.4,102.5 111.4,103.2 111.9,103.5 112.5,103.2 112.5,102.5 111.9,102.2 					"/>
					<polygon class="st5" points="112.5,102.5 112.5,103.2 113.1,103.5 113.6,103.2 113.6,102.5 113.1,102.2 					"/>
					<polygon class="st5" points="113.6,102.5 113.6,103.2 114.2,103.5 114.7,103.2 114.7,102.5 114.2,102.2 					"/>
					<polygon class="st5" points="114.7,102.5 114.7,103.2 115.3,103.5 115.8,103.2 115.8,102.5 115.3,102.2 					"/>
					<polygon class="st5" points="115.8,102.5 115.8,103.2 116.4,103.5 116.9,103.2 116.9,102.5 116.4,102.2 					"/>
					<polygon class="st5" points="116.9,102.5 116.9,103.2 117.5,103.5 118.1,103.2 118.1,102.5 117.5,102.2 					"/>
					<polygon class="st5" points="118.1,102.5 118.1,103.2 118.6,103.5 119.2,103.2 119.2,102.5 118.6,102.2 					"/>
					<polygon class="st5" points="119.2,102.5 119.2,103.2 119.7,103.5 120.3,103.2 120.3,102.5 119.7,102.2 					"/>
					<polygon class="st5" points="120.3,102.5 120.3,103.2 120.8,103.5 121.4,103.2 121.4,102.5 120.8,102.2 					"/>
					<polygon class="st5" points="121.4,102.5 121.4,103.2 122,103.5 122.5,103.2 122.5,102.5 122,102.2 					"/>
					<polygon class="st5" points="122.5,102.5 122.5,103.2 123.1,103.5 123.6,103.2 123.6,102.5 123.1,102.2 					"/>
					<polygon class="st5" points="99.7,103.5 99.7,104.1 100.3,104.4 100.8,104.1 100.8,103.5 100.3,103.2 					"/>
					<polygon class="st5" points="100.8,103.5 100.8,104.1 101.4,104.4 101.9,104.1 101.9,103.5 101.4,103.2 					"/>
					<polygon class="st5" points="101.9,103.5 101.9,104.1 102.5,104.4 103,104.1 103,103.5 102.5,103.2 					"/>
					<polygon class="st5" points="103,103.5 103,104.1 103.6,104.4 104.2,104.1 104.2,103.5 103.6,103.2 					"/>
					<polygon class="st5" points="104.2,103.5 104.2,104.1 104.7,104.4 105.3,104.1 105.3,103.5 104.7,103.2 					"/>
					<polygon class="st5" points="105.3,103.5 105.3,104.1 105.8,104.4 106.4,104.1 106.4,103.5 105.8,103.2 					"/>
					<polygon class="st5" points="106.4,103.5 106.4,104.1 106.9,104.4 107.5,104.1 107.5,103.5 106.9,103.2 					"/>
					<polygon class="st5" points="107.5,103.5 107.5,104.1 108.1,104.4 108.6,104.1 108.6,103.5 108.1,103.2 					"/>
					<polygon class="st5" points="108.6,103.5 108.6,104.1 109.2,104.4 109.7,104.1 109.7,103.5 109.2,103.2 					"/>
					<polygon class="st5" points="109.7,103.5 109.7,104.1 110.3,104.4 110.8,104.1 110.8,103.5 110.3,103.2 					"/>
					<polygon class="st5" points="110.8,103.5 110.8,104.1 111.4,104.4 111.9,104.1 111.9,103.5 111.4,103.2 					"/>
					<polygon class="st5" points="111.9,103.5 111.9,104.1 112.5,104.4 113.1,104.1 113.1,103.5 112.5,103.2 					"/>
					<polygon class="st5" points="113.1,103.5 113.1,104.1 113.6,104.4 114.2,104.1 114.2,103.5 113.6,103.2 					"/>
					<polygon class="st5" points="114.2,103.5 114.2,104.1 114.7,104.4 115.3,104.1 115.3,103.5 114.7,103.2 					"/>
					<polygon class="st5" points="115.3,103.5 115.3,104.1 115.8,104.4 116.4,104.1 116.4,103.5 115.8,103.2 					"/>
					<polygon class="st5" points="116.4,103.5 116.4,104.1 116.9,104.4 117.5,104.1 117.5,103.5 116.9,103.2 					"/>
					<polygon class="st5" points="117.5,103.5 117.5,104.1 118.1,104.4 118.6,104.1 118.6,103.5 118.1,103.2 					"/>
					<polygon class="st5" points="118.6,103.5 118.6,104.1 119.2,104.4 119.7,104.1 119.7,103.5 119.2,103.2 					"/>
					<polygon class="st5" points="119.7,103.5 119.7,104.1 120.3,104.4 120.8,104.1 120.8,103.5 120.3,103.2 					"/>
					<polygon class="st5" points="120.8,103.5 120.8,104.1 121.4,104.4 122,104.1 122,103.5 121.4,103.2 					"/>
					<polygon class="st5" points="122,103.5 122,104.1 122.5,104.4 123.1,104.1 123.1,103.5 122.5,103.2 					"/>
				</g>
			</g>
		</g>
		<polygon class="st6" points="2.1,56.8 4.1,57.7 4.1,70.8 2.1,71.7 		"/>
		<path class="st5" d="M156.7,64.7"/>
		<path class="st5" d="M159.6,67.5"/>
	</g>
	<g class="st1">
		<g>
			<rect id="XMLID_00000150818767631703293020000002742734791617965756_" x="152" y="56.8" width="3.4" height="14.3"/>
			<path id="XMLID_00000071543695854123997550000007408956349110190250_" d="M176.9,56.9v4.1h10.4c0.3,0,0.6,0.3,0.6,0.7v0
				c0,0.4-0.3,0.7-0.6,0.7h-10.4v8.7h3.5v-4.9h5.9c0.7,0,1.3,0.7,1.3,1.5v3.4h3.9v-2.5V67c0-0.9-0.6-2.3-1.4-2.3l0,0l0,0
				c0.9-0.9,1.4-2.1,1.4-3v-0.5v-0.6c0-2.1-1.9-3.7-3.6-3.7H176.9z"/>
			<path id="XMLID_00000105426920560571012020000012689608258504579245_" d="M134.6,56.9v4.1H145c0.3,0,0.6,0.3,0.6,0.7v0
				c0,0.4-0.3,0.7-0.6,0.7h-10.4v8.7h3.5v-4.9h5.9c0.7,0,1.3,0.7,1.3,1.5v3.4h3.9v-2.5V67c0-0.9-0.6-2.3-1.4-2.3l0,0l0,0
				c0.9-0.9,1.4-2.1,1.4-3v-0.5v-0.6c0-2.1-1.9-3.7-3.6-3.7H134.6z"/>
			<path id="XMLID_00000086660448397795585720000003187000527442222236_" d="M117.6,56.9v4.1H128c0.3,0,0.6,0.3,0.6,0.7v0
				c0,0.4-0.3,0.7-0.6,0.7h-10.4v8.7h3.5v-4.9h5.9c0.7,0,1.3,0.7,1.3,1.5v3.4h3.9v-2.5V67c0-0.9-0.6-2.3-1.4-2.3l0,0l0,0
				c0.9-0.9,1.4-2.1,1.4-3v-0.5v-0.6c0-2.1-1.9-3.7-3.6-3.7H117.6z"/>
			<g id="XMLID_00000073701105828963707960000012919803685143537808_">
				<rect id="XMLID_00000145027276136079121430000006762706931549423774_" x="62.6" y="56.9" width="3.7" height="14.1"/>
				<polygon id="XMLID_00000006700017756764750010000005439084155941350068_" points="74.1,56.9 74.1,62 67.5,62 67.5,65.8 
					74.1,65.8 74.1,71.1 77.7,71.1 77.7,56.9 				"/>
			</g>
			<g id="XMLID_00000139293298668317494990000012941182987454030506_">
				<path id="XMLID_00000142152057811541733170000013173985403872238982_" d="M55.8,56.8h-7h-0.5c-2,0-3.9,2.3-3.9,4.7v0v1.9H48
					v-1.9c0-0.4,0.3-0.7,0.6-0.7h7.6c0.3,0,0.5,0.3,0.5,0.7V62h3.5v-0.7v-0.4c0-2.2-2.1-4.1-3.9-4.1H55.8z"/>
				<path id="XMLID_00000048480264915301105040000004050434544286118550_" d="M55.8,71.1h-7h-0.5c-2,0-3.9-2.3-3.9-4.7l0,0v-1.9H48
					v1.9c0,0.4,0.3,0.7,0.6,0.7h7.6c0.3,0,0.5-0.3,0.5-0.7v-0.7h3.5v0.7V67c0,2.2-2.1,4.1-3.9,4.1H55.8z"/>
			</g>
			<g>
				<rect x="33" y="56.8" width="9.5" height="3.7"/>
				<polygon points="38.3,62.6 32,62.6 32,56.8 28.4,56.8 28.4,71.1 32,71.1 32,65.3 38.3,65.3 				"/>
				<rect x="33" y="67.4" width="9.5" height="3.7"/>
			</g>
			<g id="XMLID_00000081613944762712229910000002644338862756458376_">
				<rect id="XMLID_00000091016406145171604200000002946047740440513155_" x="7.4" y="56.8" width="3.7" height="14.3"/>
				<polygon id="XMLID_00000049940291162021378350000011027617253168833470_" points="20.8,56.8 16.9,65.3 13,56.8 12.1,56.8 
					12.1,64 15.4,71.1 18.5,71.1 22.7,61.6 22.7,71.1 26.4,71.1 26.4,56.8 				"/>
			</g>
			<g id="XMLID_00000039817849050339687720000003616533160465323185_">
				<polygon id="XMLID_00000178909941835930229580000001528838229662823831_" points="87.2,71.1 83.5,71.1 79.9,56.8 83.5,56.8 				
					"/>
				<g id="XMLID_00000158723527718755156580000017153865753600488863_">
					<polygon id="XMLID_00000129921326737314978770000002946469874013696142_" points="97.7,56.8 95.1,66.3 92.5,56.8 91.3,56.8 
						91.3,56.8 88.7,56.8 86.5,64.3 88,70.4 90.6,61.7 93.1,71.1 97.5,71.1 101.4,56.8 					"/>
				</g>
			</g>
			<polygon id="XMLID_00000157289502062835413850000015569860231886752137_" points="111.6,71.1 115.2,71.1 111.3,56.8 104.4,56.8 
				100.4,71.1 104,71.1 107,60.3 108.6,60.3 			"/>
		</g>
		<g>
			<g>
				<g>
					<polygon points="169.7,68.2 169.7,68.7 170.2,68.8 170.7,68.5 170.6,68 170.1,67.8 					"/>
					<polygon points="162.8,68.2 162.3,67.8 161.8,68 161.8,68.5 162.2,68.8 162.7,68.7 					"/>
				</g>
				<g>
					<polygon points="159.6,69.7 159.6,68.7 158.4,66.6 159.1,68.7 159.1,70.1 162.3,71 162.9,72.2 162.3,70.3 					"/>
					<polygon points="172.9,69.7 170.2,70.3 169.5,72.2 170.1,71 173.4,70.1 173.4,68.7 174.1,66.6 172.9,68.7 					"/>
				</g>
				<path d="M170.3,66.8h2.5c0,0,1.2-1.9,1.2-1.9c0-0.2,0-0.4,0-0.7c0.1-0.1,0.2-0.5,0.2-0.8c0-0.2,0-0.6-0.2-0.8
					c0-3.9-3.6-7.1-7.8-7.1s-7.8,3.1-7.8,7.1c-0.1,0.1-0.2,0.5-0.2,0.8c0,0.2,0,0.6,0.2,0.8c0,0.3,0,0.5,0,0.7c0,0,1.2,1.9,1.2,1.9
					h2.5l1.4,0.9l1.2-1.1l-1.1,1.2l0.6,4.4h0.8v-1.4h0.7v1.4h0.5h0.5v-1.4h0.7v1.4h0.8l0.6-4.4l-1.1-1.2l1.2,1.1L170.3,66.8z
					 M173.9,62.8c0,0,0.1,0.3,0.1,0.7c0,0.4-0.1,0.6-0.1,0.7c0,0-0.1-0.3-0.1-0.7S173.9,62.8,173.9,62.8z M166.3,58
					c1.6,0,3.1,0.7,4.1,1.4c0,0,0,0,0,0c0,0,0,0,0,0c-0.1-0.1-0.8-0.5-1-0.5l-0.5,2.1l0.3-2.2c-0.9-0.4-1.9-0.7-3-0.7
					c-1.1,0-2.1,0.3-3,0.7l0.3,2.2L163,59c-0.1,0.1-1,0.6-1,0.6C163.3,58.6,164.7,58,166.3,58z M158.5,64.2c0,0-0.1-0.3-0.1-0.7
					c0-0.4,0.1-0.6,0.1-0.7c0,0,0.1,0.3,0.1,0.7S158.6,64.1,158.5,64.2z M167.2,63.9L167.2,63.9l-0.4,2.8h-0.3v2h-0.6v-2h-0.3
					l-0.4-2.8l0,0l-0.9-0.1l-1.5,1.5h-2.7l-0.8-1v-1.5l1.2-0.6l3.2,0.5l0.6,1.1l0,0l0.9,0l0.4-1.5h1l0.4,1.5l1,0l0,0l0.6-1.1
					l3.2-0.5l1.2,0.6v1.5l-0.7,1h-2.7l-1.5-1.5L167.2,63.9z"/>
			</g>
		</g>
	</g>
	<g class="st1">
		<g>
			<g>
				<path d="M72.6,75.2v3.9h7v-3.9H72.6z M78.7,78.4h-5.2v-2.5h5.2V78.4z"/>
			</g>
			<g>
				<path d="M90.5,79.1c0,0-1.3,0-1.3,0L85,76.2v2.9c0,0-1.2,0-1.2,0l0-3.9H85c0,0,0,0,0,0l4.4,3c0,0,0-3,0-3h1.1
					C90.5,75.2,90.5,79.1,90.5,79.1z"/>
			</g>
			<path d="M94.5,79.1h6.1v-0.7h-5.2c0,0,0,0,0,0v-3.1h-0.9V79.1z"/>
			<g>
				<path d="M115.6,79.1c0,0-1.3,0-1.3,0l-4.3-2.9v2.9c0,0-1.2,0-1.2,0l0-3.9h1.2c0,0,0,0,0,0l4.4,3c0,0,0-3,0-3h1.1
					C115.7,75.2,115.7,79.1,115.6,79.1z"/>
			</g>
			<polygon points="126.3,75.9 126.3,75.2 119.9,75.2 119.9,79.1 126.3,79.1 126.3,78.4 120.8,78.4 120.8,77.5 124.4,77.5 
				124.4,76.8 120.8,76.8 120.8,75.9 			"/>
			<rect x="104.3" y="75.2" width="1" height="3.8"/>
		</g>
	</g>
	<g class="st1">
		<g>
			<g>
				<g>
					<path d="M146.6,85.6l9.3-1.7c0,0-9.4,0.3-9.4,0.3l14.3-2.4c0,0,0,0,0,0l-13.3,0.9h-10.2l-2.2,2.2v4v0.6v2h7.3v3h-8.7l-1.7,1.5
						h-27.2l-3.3,1.6h41.2l2.6-2.5V89H138v-3.4H146.6z"/>
					<path d="M160.7,81.9C160.7,81.9,160.7,81.9,160.7,81.9l-13.3,0.9h-10.2l-2.2,2.2v4v0.6v2h7.3v3h-8.7l-1.7,1.5h-27.2l-3.3,1.6
						h41.2l2.6-2.5V89H138v-3.4h8.6l9.3-1.7c0,0,0,0,0,0c-0.2,0-9.4,0.3-9.4,0.3L160.7,81.9C160.8,81.9,160.8,81.9,160.7,81.9
						L160.7,81.9z"/>
				</g>
			</g>
			<g>
				<polygon points="100.4,97.8 97.1,96.2 69.7,96.2 68,94.6 59.3,94.6 59.3,82.8 56.4,82.8 38.9,82 38.9,82 56.5,84.3 45.7,84 
					45.7,84 56.4,85.7 56.4,95.4 58.8,97.8 				"/>
				<polygon points="38.9,82 38.9,82 56.5,84.3 45.7,84 45.7,84 45.7,84 56.4,85.7 56.4,95.4 58.8,97.8 100.4,97.8 97.1,96.2 
					69.7,96.2 68,94.6 59.3,94.6 59.3,82.8 56.4,82.8 38.9,82 38.9,82 				"/>
			</g>
		</g>
		<g>
			<g>
				<g>
					<rect x="107.7" y="83.2" width="1.9" height="10"/>
					<polygon points="109.7,83.2 107.7,83.2 107.7,93.2 109.7,93.2 109.7,83.2 					"/>
				</g>
				<g>
					<polygon points="114.9,88.8 110.7,83.9 110.7,87.6 114.9,92.6 					"/>
					<polygon points="110.7,83.9 110.7,87.6 114.9,92.6 114.9,88.8 110.7,83.9 					"/>
				</g>
				<g>
					<rect x="116" y="83.2" width="1.9" height="10"/>
					<polygon points="117.9,83.2 116,83.2 116,93.2 117.9,93.2 117.9,83.2 					"/>
				</g>
			</g>
			<g>
				<g>
					<polygon points="98.3,89.2 105.2,89.2 105.2,87.3 98.3,87.3 					"/>
					<polygon points="98.3,87.3 98.3,89.2 105.2,89.2 105.2,87.3 98.3,87.3 					"/>
				</g>
				<g>
					<polygon points="98.3,85.2 105.2,85.2 105.2,83.3 98.3,83.3 					"/>
					<polygon points="98.3,83.3 98.3,85.2 105.2,85.2 105.2,83.3 98.3,83.3 					"/>
				</g>
				<g>
					<polygon points="96.3,83.3 94.8,84.9 94.8,91.7 96.3,93.2 97.2,93.2 97.2,83.3 					"/>
					<polygon points="97.2,83.3 96.3,83.3 94.8,84.9 94.8,91.7 96.3,93.2 97.2,93.2 97.2,83.3 					"/>
				</g>
				<g>
					<polygon points="98.3,93.2 105.2,93.2 105.2,91.4 98.3,91.3 					"/>
					<polygon points="98.3,91.3 98.3,93.2 105.2,93.2 105.2,91.4 98.3,91.3 					"/>
				</g>
			</g>
			<g>
				<path d="M128.5,83.2h-8v10h2.1v-8.1h5.1l0.5,0.7v4.9l-0.5,0.5h-3.8v1.9h4.7c0.7-0.7,1-1.2,1.7-1.9V85
					C129.5,84.3,129.2,83.9,128.5,83.2z"/>
				<path d="M128.5,83.2h-8v10h2.1v-8.1h5.1l0.5,0.7v4.9l-0.5,0.5h-3.8v1.9h4.7c0.7-0.7,1-1.2,1.7-1.9V85
					C129.5,84.3,129.2,83.9,128.5,83.2L128.5,83.2z"/>
			</g>
			<g>
				<g>
					<polygon points="88.1,87.3 88.1,89.3 90.1,89.3 90.1,91.4 85.6,91.4 85.6,93.2 91,93.2 92.5,91.8 92.5,87.3 					"/>
					<polygon points="92.5,87.3 88.1,87.3 88.1,89.3 90.1,89.3 90.1,91.4 85.6,91.4 85.6,93.2 91,93.2 92.5,91.8 92.5,87.3 					"/>
				</g>
				<g>
					<polygon points="85.6,83.2 85.6,85.2 90.1,85.2 90.1,86.1 92.5,86.1 92.5,84.6 91.1,83.2 					"/>
					<polygon points="91.1,83.2 85.6,83.2 85.6,85.2 90.1,85.2 90.1,86.1 92.5,86.1 92.5,84.6 91.1,83.2 					"/>
				</g>
				<g>
					<polygon points="83.7,83.3 82.2,84.9 82.2,91.7 83.7,93.3 84.6,93.3 84.6,83.3 					"/>
					<polygon points="84.6,83.3 83.7,83.3 82.2,84.9 82.2,91.7 83.7,93.3 84.6,93.3 84.6,83.3 					"/>
				</g>
			</g>
			<g>
				<g>
					<polygon points="72.9,89.2 79.8,89.2 79.8,87.3 72.9,87.3 					"/>
					<polygon points="72.9,87.3 72.9,89.2 79.8,89.2 79.8,87.3 72.9,87.3 					"/>
				</g>
				<g>
					<polygon points="72.9,85.2 79.8,85.2 79.8,83.3 72.9,83.3 					"/>
					<polygon points="72.9,83.3 72.9,85.2 79.8,85.2 79.8,83.3 72.9,83.3 					"/>
				</g>
				<g>
					<polygon points="70.9,83.3 69.5,84.9 69.5,91.7 70.9,93.2 71.8,93.2 71.8,83.3 					"/>
					<polygon points="71.8,83.3 70.9,83.3 69.5,84.9 69.5,91.7 70.9,93.2 71.8,93.2 71.8,83.3 					"/>
				</g>
				<g>
					<polygon points="72.9,93.2 79.8,93.2 79.8,91.4 72.9,91.3 					"/>
					<polygon points="72.9,91.3 72.9,93.2 79.8,93.2 79.8,91.4 72.9,91.3 					"/>
				</g>
			</g>
		</g>
	</g>
	
		<linearGradient id="SVGID_00000134961153995632938600000013388448611103317160_" gradientUnits="userSpaceOnUse" x1="76.4844" y1="107.9896" x2="122.2784" y2="107.9896">
		<stop  offset="2.839078e-03" style="stop-color:#FFFFFF;stop-opacity:0"/>
		<stop  offset="0.5252" style="stop-color:#FFFFFF;stop-opacity:0.2"/>
		<stop  offset="0.9926" style="stop-color:#000000;stop-opacity:0"/>
		<stop  offset="0.9982" style="stop-color:#FFFFFF;stop-opacity:0"/>
	</linearGradient>
	<polygon style="display:inline;fill:url(#SVGID_00000134961153995632938600000013388448611103317160_);" points="122.3,109 
		76.5,109 77,107 121.8,107 	"/>
</g>
<g id="mw5" class="st0">
	<path class="st1" d="M27.6,72.1h9.1v2.9h-9.1L27.6,72.1z"/>
	<path class="st1" d="M141.2,63.8h3.2v11.3h-3.2V63.8z"/>
	<path class="st1" d="M163.7,63.8v3.2h9.9c0.3,0,0.6,0.3,0.6,0.6c0,0.3-0.3,0.6-0.6,0.6h-9.9v6.9h3.3v-3.9h5.6
		c0.7,0,1.2,0.5,1.2,1.2v2.7h3.7v-2v-1.2c0-0.7-0.6-1.8-1.3-1.8c0.8-0.7,1.3-1.6,1.3-2.4v-0.4v-0.5c0-1.6-1.8-3-3.4-3L163.7,63.8z"
		/>
	<path class="st1" d="M125,63.8v3.2h9.9c0.3,0,0.6,0.3,0.6,0.6c0,0.3-0.3,0.6-0.6,0.6H125v6.9h3.3v-3.9h5.6c0.7,0,1.2,0.5,1.2,1.2
		v2.7h3.7v-2v-1.2c0-0.7-0.6-1.8-1.3-1.8c0.8-0.7,1.3-1.6,1.3-2.4v-0.4v-0.5c0-1.6-1.8-3-3.4-3L125,63.8z"/>
	<path class="st1" d="M108.9,63.8v3.2h9.9c0.3,0,0.6,0.3,0.6,0.6c0,0.3-0.3,0.6-0.6,0.6h-9.9v6.9h3.3v-3.9h5.6
		c0.7,0,1.2,0.5,1.2,1.2v2.7h3.7v-2v-1.2c0-0.7-0.6-1.8-1.3-1.8c0.8-0.7,1.3-1.6,1.3-2.4v-0.4v-0.5c0-1.6-1.8-3-3.4-3L108.9,63.8z"
		/>
	<path class="st1" d="M56.2,63.8h3.5v11.3h-3.5V63.8z"/>
	<path class="st1" d="M67.1,63.8v4.2h-6.3v3h6.3v4.1h3.5V63.8H67.1z"/>
	<path class="st1" d="M49.7,63.8H43h-0.5c-1.9,0-3.7,1.8-3.7,3.7V69h3.3v-1.5c0-0.3,0.3-0.5,0.5-0.5H50c0.3,0,0.5,0.2,0.5,0.5v0.5
		h3.3v-0.6V67c0-1.7-2-3.2-3.7-3.2L49.7,63.8z"/>
	<path class="st1" d="M49.7,75.1H43h-0.5c-1.9,0-3.7-1.7-3.7-3.6v-1.5h3.3v1.5c0,0.3,0.3,0.5,0.5,0.5H50c0.3,0,0.5-0.2,0.5-0.5V71
		h3.3v0.6v0.3c0,1.7-2,3.2-3.7,3.2L49.7,75.1z"/>
	<path class="st1" d="M27.6,63.8h9.1v3h-9.1L27.6,63.8z"/>
	<path class="st1" d="M32.6,68.3h-6v-4.6h-3.5v11.3h3.5v-4.5h6V68.3z"/>
	<path class="st1" d="M3,63.8h3.5v11.3H3V63.8z"/>
	<path class="st1" d="M15.7,63.8L12,70.5l-3.7-6.7H7.4v5.7l3.2,5.5h2.9l4-7.5v7.5H21V63.8H15.7z"/>
	<path class="st1" d="M79.8,75.1h-3.5l-3.5-11.3h3.5L79.8,75.1z"/>
	<path class="st1" d="M89.9,63.8l-2.4,7.5L85,63.8h-1.2h0h-2.5l-2.1,5.9l1.5,4.8l2.4-6.9l2.4,7.4h4.2l3.7-11.3H89.9z"/>
	<path class="st1" d="M103,75.1h3.5l-3.8-11.3h-6.6l-3.8,11.3h3.5l2.9-8.5h1.5L103,75.1z"/>
	<path class="st1" d="M157.7,63.8h-0.5h-3.1h-3.3h-0.5c-1.9,0-3.7,1.8-3.7,3.7v0v1h3.3v-1.1c0-0.3,0.3-0.5,0.5-0.5h3.6h3.4
		c0.3,0,0.5,0.2,0.5,0.5v1.1h3.3v-1v0C161.4,65.5,159.7,63.8,157.7,63.8L157.7,63.8z"/>
	<path class="st1" d="M157.7,75.1h-0.5h-3.1h-3.3h-0.5c-1.9,0-3.7-1.8-3.7-3.7v-1.6h3.3v1.6c0,0.3,0.3,0.5,0.5,0.5h3.6h3.4
		c0.3,0,0.5-0.3,0.5-0.5v-1.6h3.3v1.6C161.4,73.3,159.7,75.1,157.7,75.1L157.7,75.1z"/>
	<path class="st1" d="M84.8,79.6h3.6v0.7h-2.8v2H87v0.7h-1.5v2.3h2.9v0.7h-3.7L84.8,79.6L84.8,79.6z"/>
	<path class="st1" d="M97.4,83.1c0.8-0.2,1.4-0.8,1.4-1.8c0-1.3-0.9-1.8-2.2-1.8h-2v6.3h0.8v-5.6h1.1c1,0,1.5,0.3,1.5,1.1
		c0,0.8-0.5,1.2-1.5,1.2v0.6l1.6,2.6H99L97.4,83.1z"/>
	<path class="st1" d="M104.6,82.8c0-2,1.2-3.2,2.8-3.2c0.8,0,1.3,0.4,1.7,0.8l-0.4,0.5c-0.3-0.4-0.7-0.6-1.3-0.6c-1.2,0-2,1-2,2.5
		c0,1.6,0.8,2.6,1.9,2.6c0.6,0,1.1-0.3,1.5-0.7l0.4,0.5c-0.5,0.6-1.1,0.9-1.9,0.9C105.8,86,104.6,84.8,104.6,82.8z"/>
	<path class="st1" d="M115.3,79.6h3.6v0.7h-2.8v2h1.5v0.7h-1.5v2.3h2.9v0.7h-3.7L115.3,79.6z"/>
	<path class="st1" d="M137.5,79.6h0.9l2.1,6.2h-0.8l-1.1-3.5c-0.2-0.7-0.4-1.4-0.6-2.1h0c-0.2,0.7-0.4,1.4-0.6,2.1l-1.1,3.5h-0.8
		L137.5,79.6z"/>
	<path class="st1" d="M156.6,79.6h0.8v6.3h-0.8V79.6z"/>
	<path class="st1" d="M164,79.6h3.6v0.7h-2.8v2h1.5v0.7h-1.5v2.3h2.9v0.7H164L164,79.6z"/>
	<path class="st1" d="M173.4,85.1l0.5-0.5c0.4,0.5,1.1,0.8,1.7,0.8c0.8,0,1.3-0.4,1.3-1c0-0.6-0.5-0.8-1-1.1l-0.9-0.4
		c-0.6-0.3-1.3-0.7-1.3-1.6c0-0.9,0.8-1.7,2-1.7c0.7,0,1.4,0.3,1.8,0.8l-0.4,0.5c-0.4-0.4-0.8-0.6-1.4-0.6c-0.7,0-1.2,0.4-1.2,0.9
		c0,0.6,0.5,0.8,1,1l0.9,0.4c0.7,0.3,1.3,0.7,1.3,1.7c0,1-0.8,1.8-2.1,1.8C174.7,86,174,85.6,173.4,85.1L173.4,85.1z"/>
	<path class="st1" d="M149,83.1c0.8-0.2,1.4-0.8,1.4-1.8c0-1.3-0.9-1.8-2.2-1.8h-2v6.3h0.8v-5.6h1.1c1,0,1.5,0.3,1.5,1.1
		c0,0.8-0.5,1.2-1.5,1.2v0.6l1.6,2.6h0.9L149,83.1z"/>
	<path class="st1" d="M129.6,79.6h-0.8v4.7l-2.7-4.7h-1v6.3h0.8v-5l2.8,5h0.8V79.6z"/>
	<path class="st1" d="M78.2,79.6h-1c0,0-1.5,4.2-1.6,4.6h0c-0.1-0.4-1.6-4.6-1.6-4.6h-0.9v6.3h0.7v-5.1l1.6,4.5h0.5l1.6-4.4v5h0.7h0
		L78.2,79.6z"/>
	<path class="st1" d="M185.8,70.4V69h-3.7v3.6C183.2,71.6,184.5,70.8,185.8,70.4z"/>
	<path class="st1" d="M197,63.8h-14.8V67l11.6,0L197,63.8z"/>
	<path class="st1" d="M195.8,74.8c-0.1-0.1-0.1-0.2-0.2-0.2c0,0,0-0.1-0.1-0.1c0,0,0,0,0-0.1c-1.3-1.8-3.5-2.9-5.9-2.9
		c-2.6,0-5,1.5-6.3,3.6h6.2c2.1,0,3.9,1.7,3.9,3.8s-1.7,3.9-3.9,3.9c-1.9,0-3.5-1.4-3.8-3.2h-3.6c0.3,3.8,3.6,6.7,7.4,6.7
		c4.1,0,7.4-3.3,7.4-7.4C197,77.4,196.6,76,195.8,74.8z"/>
</g>
<g id="clans" class="st0">
	<g class="st1">
		<g>
			<path d="M81.1,44.1v20.3h78.3V44.1H81.1z M85.4,62.5l-2.3-16.4H86l2.1,16.4H85.4z M90.6,62.5l-1.4-9.6l-0.8,9.6l-1.2-9.3l0.9-7.1
				h2l2.4,16.4H90.6z M91.6,53.1l0.9-7h3l-2.5,16.4L91.6,53.1z M98.2,61.3l-0.1,1.2h-2.8l2.4-16.4h0.9l0.8,5.4L98.5,59h2l0.3,2.3
				H98.2z M101.4,62.5L99,46.1h2.7l2.4,16.4H101.4z M108.9,62.5h-3V46.1h3V62.5z M113.2,52.4c0,0.7-0.4,1.3-1,1.7
				c0.6,0.3,1,0.9,1,1.7v6.8h-3v-6.6c0-0.5-0.5-0.9-1-0.9l0-2.3c0.5,0.1,0.9-0.3,0.9-0.8c0,0,0-3.1,0-3.1c0-0.5-0.4-0.9-0.9-0.8
				v-1.9c0,0,2.3,0,2.3,0c1.3,0,1.7,0.8,1.7,2L113.2,52.4z M118.1,62.5h-3V46.1h3V62.5z M122.5,52.4c0,0.7-0.4,1.3-1,1.7
				c0.6,0.3,1,0.9,1,1.7v6.8h-3v-6.6c0-0.5-0.5-0.9-1-0.9l0-2.3c0.5,0.1,0.9-0.3,0.9-0.8c0,0,0-3.1,0-3.1c0-0.5-0.4-0.9-0.9-0.8
				v-1.9c0,0,2.3,0,2.3,0c1.3,0,1.7,0.8,1.7,2L122.5,52.4z M127.5,62.5h-3.2V46.1h3.2V62.5z M132.9,48.1c-0.4,0.1-0.6,0.4-0.6,0.8
				v10.9c0,0.4,0.3,0.7,0.6,0.8v1.9c-1.4,0-3.4,0.3-3.5-1.7c0,0,0-13,0-13c0.1-2,2.1-1.7,3.5-1.7V48.1z M133.2,62.5v-1.9
				c0.4-0.1,0.6-0.4,0.6-0.8V48.9c0-0.4-0.3-0.7-0.6-0.8v-2c1.4,0,3.4-0.3,3.5,1.7c0,0,0,13,0,13C136.6,62.8,134.7,62.5,133.2,62.5z
				 M141.6,62.5h-3V46.1h3V62.5z M145.9,52.4c0,0.7-0.4,1.3-1,1.7c0.6,0.3,1,0.9,1,1.7v6.8h-3v-6.6c0-0.5-0.5-0.9-1-0.9l0-2.3
				c0.5,0.1,0.9-0.3,0.9-0.8c0,0,0-3.1,0-3.1c0-0.5-0.4-0.9-0.9-0.8v-1.9c0,0,2.3,0,2.3,0c1.3,0,1.7,0.8,1.7,2L145.9,52.4z
				 M157.1,59c-0.4,5-7.4,4.9-7.4,0c0-0.5,0-1,0-1.7h2.8V59c0,1.1,1.6,1.1,1.7,0c0,0,0-3.6,0-3.6c0-0.5-0.4-0.8-0.9-0.8v0h-3.7v-8.5
				h7.4l-1.6,2.6h-3v3c0,0,0.6,0,0.9,0C157.6,51.9,157.1,56,157.1,59z"/>
			<path d="M66,48.8v2.5h2.8v-3.6c0-0.9-0.7-1.6-1.6-1.6c-0.5,0-1.8,0-2.3,0l0,2C65.3,47.8,66,48.2,66,48.8z"/>
			<path d="M56.4,46.1c-0.2,0-2.6,0-2.9,0v16.4h2.9V46.1z"/>
			<rect x="48.3" y="46.1" width="3.2" height="16.4"/>
			<rect x="40.7" y="46.1" width="3.2" height="16.4"/>
			<polygon points="47.9,54.9 47.9,46.1 46,54.9 44.3,46.1 44.3,54.8 46.2,62.5 			"/>
			<polygon points="75.8,62.5 79,62.5 79,46.1 75.8,46.1 75.8,51.8 74.1,51.8 74.1,54.1 75.8,54.1 			"/>
			<path d="M73.7,54.3c0-1.8,0-6.3,0-8.2h-3v16.4h3V54.3z"/>
			<rect x="56.8" y="46.1" width="2.5" height="2.3"/>
			<rect x="56.8" y="51.8" width="2.5" height="2.3"/>
			<path d="M64.5,46.1c-1.3,0-3.1-0.3-3.2,1.6v13.2c0.1,1.8,1.9,1.6,3.2,1.6V46.1z"/>
			<path d="M65.7,62.5L65.7,62.5l1.5,0c0.9,0,1.6-0.7,1.6-1.6v-3.4H66v2.4c0,0.6-0.6,0.9-1.1,0.7l0,1.9L65.7,62.5z"/>
			<rect x="56.8" y="60.2" width="2.5" height="2.3"/>
		</g>
		<path d="M46.6,67.3h-5.9v31.1c0,2.9,2.4,5.3,5.3,5.3h29.5v-6.3H46.6V67.3z"/>
		<path d="M153.1,94l-21.3-25.4c-0.8-1-2-1.5-3.3-1.4c-2.2,0-3.9,1.8-3.9,3.9v32.5h6V76.8l21.3,25.4c0.8,1,2.2,1.5,3.5,1.4
			c2.2,0,3.9-1.8,3.9-3.9V67.3h-6.3V94z"/>
		<path d="M188.1,82.3c0,0-15.4,0-15.4,0c-2.4,0-4.4-2.1-4.4-4.5c-0.1-2.3,2-4.5,4.4-4.5c0,0,26,0,26,0v-6.2h-26
			c-5.7,0-10.4,4.8-10.4,10.7c0,6.3,5.1,10.6,10.6,10.6c0.5,0,15.4,0,15.4,0c2.3,0,4.4,1.8,4.4,4.5c0,2.4-1.9,4.4-4.4,4.5
			c0,0-25.9,0-25.9,0v6.2h25.9c6.6,0,10.6-5.6,10.6-10.9C198.7,87.8,194.8,82.3,188.1,82.3z"/>
		<path d="M1.3,85.5L1.3,85.5c0,10,8.2,18.1,18.1,18.1h18.4v-6.4H19.4c-3.1,0-6.1-1.2-8.3-3.5c-2.2-2.2-3.5-5.2-3.5-8.3
			s1.2-6.1,3.5-8.3c2.2-2.2,5.2-3.5,8.3-3.5h18.4v-6.4H19.4C9.5,67.3,1.3,75.5,1.3,85.5z"/>
		<path d="M100.1,74.7l14.2,29h7.4l-17.1-33.8c-2-3.4-7-3.4-9,0l-17.1,33.8h7.7L100.1,74.7z M100.1,118"/>
		<path d="M96.2,94.9l-6,1.6l6,1.6l-3.1,5.5l5.2-3.2l1.8,17.2l1.8-17.2l5.2,3.2l-3.1-5.5l6-1.5l-6-1.7l3-5.4l-5.3,3.2l-1.5-5.8
			l-1.5,5.8l-5.3-3.2L96.2,94.9z M106.4,102.9l-4.3-4.3l1.6-0.4L106.4,102.9z M106.2,90.1l-4.2,4.2l-0.4-1.4L106.2,90.1z M102,94.6
			l7,1.8h-7.9L102,94.6z M93.7,102.9l2.7-4.8l1.6,0.4L93.7,102.9z M91.1,96.4l7-1.8l0.9,1.8H91.1z M100.1,115.5l-1.7-16.9l1.7-0.8
			L100.1,115.5z M100.1,87.8v7.5l-1.8-0.8L100.1,87.8z M98.5,92.9l-0.4,1.4l-4.2-4.2L98.5,92.9z"/>
	</g>
</g>
<g id="ctd" class="st0">
	<g class="st1">
		<rect x="165.5" y="60.3" width="3.4" height="2.1"/>
		<rect x="158.8" y="60.3" width="3.4" height="2.1"/>
		<rect x="152.1" y="60.3" width="3.4" height="2.1"/>
		<rect x="145.4" y="60.3" width="3.4" height="2.1"/>
		<rect x="138.6" y="60.3" width="3.4" height="2.1"/>
		<rect x="131.9" y="60.3" width="3.4" height="2.1"/>
		<rect x="125.2" y="60.3" width="3.4" height="2.1"/>
		<rect x="118.5" y="60.3" width="3.4" height="2.1"/>
		<rect x="111.7" y="60.3" width="3.4" height="2.1"/>
		<rect x="105" y="60.3" width="3.4" height="2.1"/>
		<rect x="98.3" y="60.3" width="3.4" height="2.1"/>
		<rect x="91.6" y="60.3" width="3.4" height="2.1"/>
		<rect x="84.8" y="60.3" width="3.4" height="2.1"/>
		<rect x="78.1" y="60.3" width="3.4" height="2.1"/>
		<rect x="71.4" y="60.3" width="3.4" height="2.1"/>
		<rect x="64.7" y="60.3" width="3.4" height="2.1"/>
		<rect x="57.9" y="60.3" width="3.4" height="2.1"/>
		<rect x="51.2" y="60.3" width="3.4" height="2.1"/>
		<rect x="44.5" y="60.3" width="3.4" height="2.1"/>
		<rect x="37.8" y="60.3" width="3.4" height="2.1"/>
		<rect x="31.1" y="60.3" width="3.4" height="2.1"/>
		<rect x="24.3" y="60.3" width="3.4" height="2.1"/>
		<rect x="24.3" y="64.9" width="2.1" height="3.4"/>
		<rect x="24.3" y="70.8" width="2.1" height="3.4"/>
		<rect x="173.5" y="64.9" width="2.1" height="3.4"/>
		<rect x="173.5" y="70.8" width="2.1" height="3.4"/>
		<rect x="172.2" y="60.3" width="3.4" height="2.1"/>
		<path d="M109.6,78.4h-2.2v-3.3h2.2v-4.9h4.4v4.9h2.1v3.3h-2.1v11.3h-4.4V78.4z"/>
		<path d="M16.5,83.7c-0.8,3.3-3.7,6-7.7,6c-4.4,0-7.8-3.5-7.8-7.8c0-4.3,3.3-7.8,7.7-7.8c3.9,0,7,2.6,7.7,6.1H12
			c-0.5-1-1.3-2.1-3.2-2.1c-1-0.1-1.9,0.3-2.5,1c-0.6,0.7-0.9,1.6-0.9,2.7c0,2.1,1.4,3.7,3.5,3.7c1.8,0,2.7-1.1,3.2-1.9H16.5z"/>
		<path d="M34.3,75.1h4.1v1.6c0.5-0.7,1.4-2.1,4-2.1c4.9,0,5.4,4,5.4,6v9.1h-4.4v-8c0-1.6-0.3-3-2.3-3c-2.2,0-2.5,1.6-2.5,3.1v7.9
			h-4.4V75.1z"/>
		<path d="M49.6,75.1h4.1v1.6c0.5-0.7,1.4-2.1,4-2.1c4.9,0,5.4,4,5.4,6v9.1h-4.4v-8c0-1.6-0.3-3-2.3-3c-2.2,0-2.5,1.6-2.5,3.1v7.9
			h-4.4V75.1z"/>
		<path d="M68.7,83.5c0.2,1.6,1.7,2.6,3.4,2.6c1.4,0,2.1-0.6,2.7-1.4h4.5c-0.7,1.6-1.7,2.9-3,3.7c-1.2,0.9-2.7,1.3-4.2,1.3
			c-4.2,0-7.7-3.4-7.7-7.7c0-4.1,3.2-7.8,7.7-7.8c2.2,0,4.2,0.9,5.5,2.3c1.8,2,2.4,4.3,2.1,7H68.7z M75.2,80.2
			c-0.1-0.7-1-2.3-3.3-2.3c-2.3,0-3.2,1.6-3.3,2.3H75.2z"/>
		<path d="M96.2,83.7c-0.8,3.3-3.7,6-7.7,6c-4.4,0-7.8-3.5-7.8-7.8c0-4.3,3.3-7.8,7.7-7.8c3.9,0,7,2.6,7.7,6.1h-4.4
			c-0.5-1-1.3-2.1-3.2-2.1c-1-0.1-1.9,0.3-2.5,1c-0.6,0.7-0.9,1.6-0.9,2.7c0,2.1,1.4,3.7,3.5,3.7c1.8,0,2.7-1.1,3.2-1.9H96.2z"/>
		<path d="M99,78.4h-2.2v-3.3H99v-4.9h4.4v4.9h2.1v3.3h-2.1v11.3H99V78.4z"/>
		<path d="M165.4,89.3h-4.2v-1.6c-0.4,0.6-1.5,2.1-4.4,2.1c-4.4,0-7.3-3.4-7.3-7.8c0-4.9,3.5-7.8,7.2-7.8c2.6,0,3.8,1.3,4.3,1.7
			v-1.6v-4.5h4.4V89.3z M153.9,81.9c0,2.2,1.6,3.7,3.7,3.7c1.1,0,2-0.4,2.7-1.1c0.7-0.7,1.1-1.6,1-2.7c0-1.1-0.4-1.9-1.1-2.6
			c-0.7-0.7-1.6-1-2.6-1C155,78.2,153.9,80.2,153.9,81.9L153.9,81.9z"/>
		<path d="M199,83.7c-0.8,3.3-3.7,6-7.7,6c-4.4,0-7.8-3.5-7.8-7.8c0-4.3,3.3-7.8,7.7-7.8c3.9,0,7,2.6,7.7,6.1h-4.4
			c-0.5-1-1.3-2.1-3.2-2.1c-1-0.1-1.9,0.3-2.5,1c-0.6,0.7-0.9,1.6-0.9,2.7c0,2.1,1.4,3.7,3.5,3.7c1.8,0,2.7-1.1,3.2-1.9H199z"/>
		<path d="M117.9,70.3h4.4v4.4v1.8c0.8-1.3,2.3-1.8,3.8-1.8c2.2,0,3.5,0.8,4.3,2.1c0.8,1.3,1,3,1,4.9v8.2h-4.4v-7.9
			c0-0.8-0.1-1.6-0.4-2.1c-0.4-0.6-0.9-0.9-1.9-0.9c-1.2,0-1.8,0.6-2.1,1.2c-0.3,0.6-0.3,1.3-0.3,1.7v8.1h-4.4V70.3z"/>
		<path d="M137.3,83.5c0.2,1.6,1.7,2.6,3.4,2.6c1.4,0,2.1-0.6,2.7-1.4h4.5c-0.7,1.6-1.7,2.9-3,3.7c-1.2,0.9-2.7,1.3-4.2,1.3
			c-4.2,0-7.7-3.4-7.7-7.7c0-4.1,3.2-7.8,7.7-7.8c2.2,0,4.2,0.9,5.5,2.3c1.8,2,2.4,4.3,2.1,7H137.3z M143.8,80.2
			c-0.1-0.7-1-2.3-3.3-2.3c-2.3,0-3.2,1.6-3.3,2.3H143.8z"/>
	</g>
	<g class="st1">
		<path d="M24.9,84.5c-1.9-0.2-3.4-1.9-3.4-3.8c0-2.1,1.7-3.9,3.9-3.9c2.1,0,3.9,1.7,3.9,3.9c0,2-1.5,3.6-3.4,3.8
			c2.1,0.1,4.1,1.1,5.5,2.5c1.3-1.5,1.9-3.4,1.9-5.2c0-3.6-2.6-7.8-7.9-7.8c-5.3,0-7.9,4.2-7.9,7.7v0c0,1.8,0.6,3.7,1.9,5.1
			C20.8,85.5,22.8,84.6,24.9,84.5z"/>
	</g>
	<path class="st1" d="M174.6,74.2c-5.3,0-7.9,4.2-7.9,7.7v0c0,3.6,2.6,7.8,7.9,7.8c5.3,0,7.9-4.2,7.9-7.8
		C182.4,78.4,179.9,74.2,174.6,74.2z M179.7,83.9h-3.3v3.3h-3.6v-3.3h-3.3v-3.6h3.3V77h3.6v3.3h3.3V83.9z"/>
</g>
<g id="smartt" class="st0">
	<g class="st1">
		<path class="st8" d="M34,87.7c-3.3,6-10.2,6.8-12,7c-1.2,0.2-2.5,0.3-3.8,0.3c-7.6,0-11.9-2.5-14.4-4.6c-1-0.9-1.5-1.4-3-3.2
			l7.3-4.5c0.2,0.2,0.9,1,1.7,1.6c2.5,2.1,6.2,3.2,9.4,3.2c0.4,0,1.7,0,3-0.4C22.2,87,26,86,26,83c0-3.5-5.1-3.6-8.5-4.1
			c-1.8-0.2-3.6-0.5-5.4-1c-2.8-0.7-5.3-1.7-7.2-4c-0.4-0.4-1.1-1.4-1.6-2.8c-0.2-0.5-0.5-1.8-0.5-3.4c0-0.3,0.1-1.6,0.2-2.7
			c0.4-2.4,1.5-4.4,3.3-6.1c1.9-1.8,5.6-4,11.9-4c2.3,0,7.4,0.3,12.6,3.8c1.3,0.9,2.1,1.5,4.2,3.4l-7,5c-2.1-2.1-3.6-3.2-6.4-4.2
			c-0.5-0.1-1.9-0.5-3.6-0.5c-3.9,0-5.7,2.3-5.7,4.1c0,1,0.5,1.7,0.8,2c1.3,1.4,3.4,1.4,7,1.9c2.2,0.3,4.3,0.8,6.4,1.2
			c1.4,0.3,6.3,1.2,8.2,5.9c0.3,0.7,0.8,2.2,0.8,4.1C35.5,82.8,35.4,85.1,34,87.7"/>
		<path class="st8" d="M70,88.3V63.9l-8.3,29.8h-8.1l-8.3-29.8v29.8h-3.8c-2.5,0-4.6-2.4-4.6-5.4V56.3h13.7l7.1,26.2l7-26.2h13.7
			v37.4h-3.8C72,93.7,69.9,91.3,70,88.3"/>
		<path d="M96.8,63.9l-8.6,29.8h-5c-2.8,0-4.1-2.3-3.1-5l12-32.4h9.8l13.8,37.4h-5c-2.8,0-5.7-2.3-6.6-5.1l-2.4-7.6"/>
		<path class="st8" d="M199.3,56.3h-50.8v7.6l10.9,0v24.2c0,3,1.8,5.6,4.4,5.6h4.9V63.9h10.2l-0.1,24.3c0.3,3.8,3.4,6.8,7.3,6.8
			c4,0,7.3-3.3,7.3-7.3c0-0.8-0.1-1.7-0.4-2.4c0,0.1,0,0.3,0,0.4c0,1.5-1.2,2.7-2.7,2.7c-1.4,0-2.6-1.1-2.6-2.5c0-9.2,0.1-22,0.1-22
			h11.5V56.3z"/>
		<path class="st8" d="M135.7,89l-4.9-8.7H125v13.4h-4.7c-2.6,0-4.7-2.4-4.7-5.4v-32l16.9,0c1.1,0,2.1,0,3.2,0.1
			c1.7,0.1,7.6,0.4,10.5,5.7c0.5,1,1.5,3.2,1.5,6.3c0,4.2-1.6,6.4-2.9,7.6c-0.5,0.5-1.2,1-1.8,1.4c-0.7,0.4-1.5,0.7-3,1.3l8.6,15
			h-5.1C140.6,93.7,137.2,91.6,135.7,89 M132.9,63.9h-8v9.5h7.7c0.4,0,1.4,0,2.5-0.4c3-1,3.1-3.9,3.1-4.8
			C138.3,63.3,134.6,63.9,132.9,63.9"/>
	</g>
</g>
<g id="columbia" class="st0">
	<path class="st1" d="M14.6,98.1H15l0.2,5.1h-0.6c-0.4-2.9-2.4-4.9-5.4-4.9c-4.6,0-6,4.6-6,8.4c0,3.9,1.5,8,6.1,8
		c3.6,0,4.9-2.6,5.7-5.7h0.5v5.6h-0.3l-0.6-1.3c-1.7,1.4-3.5,1.9-5.7,1.9c-5.2,0-8.8-3.4-8.8-8.6c0-5.2,3.8-9,9-9
		c2.1,0,3.5,0.5,5.2,1.6L14.6,98.1z"/>
	<path class="st1" d="M29.7,109.5c0,3.5-2.8,5.9-6.2,5.9c-3.3,0-6.2-2.6-6.2-6c0-3.3,3-5.7,6.2-5.7
		C26.7,103.7,29.7,106.1,29.7,109.5 M19.9,109.5c0,2.4,0.7,5.3,3.7,5.3c2.8,0,3.5-2.8,3.5-5.1c0-2.5-0.7-5.3-3.7-5.3
		C20.6,104.3,19.9,107.2,19.9,109.5"/>
	<path class="st1" d="M35.4,111.9c0.1,1.7-0.2,2.5,1.8,2.6v0.5c-1,0-2-0.1-3-0.1c-1,0-1.9,0.1-2.8,0.1v-0.5c1.9-0.1,1.8-0.7,1.8-2.4
		v-9.9c0-0.6,0-2.2-0.3-2.8c-0.3-0.6-1.1-0.6-1.7-0.7v-0.5l4.1-0.8V111.9z"/>
	<path class="st1" d="M42.6,110.9c0,1.5,0.1,3.6,2.1,3.6c2,0,3.5-1.8,3.5-3.8v-3.4c0-2,0.2-2.6-2-2.9v-0.5c0.7,0.1,1.4,0.1,2.1,0.1
		c0.7-0.1,1.4-0.1,2-0.1v8.3c0,0.7,0,1.7,1,1.7c0.3,0,0.6-0.1,1-0.1v0.6l-3.6,0.9l-0.5-2.4c-0.9,1.4-2.6,2.4-4.3,2.4
		c-2.6,0-3.6-1.4-3.6-3.7v-4.4c0-2,0.2-2.6-2-2.9v-0.5c0.7,0,1.4,0.1,2.1,0.1c0.7,0,1.4-0.1,2-0.1V110.9z"/>
	<path class="st1" d="M57.6,111.9c0,1.7-0.3,2.5,1.7,2.6v0.5c-0.9,0-1.9-0.1-2.8-0.1c-1,0-2,0.1-2.9,0.1v-0.5
		c1.9-0.1,1.8-0.7,1.8-2.4v-3.2c0-0.7,0-2.5-0.1-3.1c-0.2-0.9-0.9-0.8-1.7-0.8v-0.5c1.3-0.2,2.3-0.6,3.6-0.8l0.3,2.1
		c1-1.3,2.2-2.1,3.9-2.1c1.5,0,3,0.5,3.5,2.1c0.9-1.4,2.3-2.1,3.9-2.1c1.1,0,2.3,0.3,3,1.2c0.7,0.8,0.7,2.3,0.7,3.4v3.6
		c0,1.7-0.3,2.5,1.8,2.6v0.5c-1,0-1.9-0.1-2.9-0.1c-1,0-1.9,0.1-2.9,0.1v-0.5c1.9-0.1,1.7-0.7,1.8-2.4v-3.2c0-1.8,0.2-4.4-2.4-4.4
		c-1.1,0-2.1,0.8-2.5,1.7c-0.3,0.7-0.3,1.7-0.3,2.7v3.1c0.1,1.7-0.3,2.5,1.8,2.6v0.5c-0.9,0-1.9-0.1-2.8-0.1c-1,0-1.9,0.1-2.9,0.1
		v-0.5c1.9-0.1,1.8-0.7,1.8-2.4v-3.2c0-1.8,0.2-4.4-2.4-4.4c-1.1,0-2.1,0.8-2.5,1.7c-0.3,0.7-0.3,1.7-0.3,2.7V111.9z"/>
	<path class="st1" d="M79.5,105.1c1-1,2.1-1.4,3.5-1.4c3.3,0,5.6,2.6,5.6,5.8c0,3.2-2.4,5.9-5.8,5.9c-1.4,0-3-0.6-3.9-1.7l-1.2,1.5
		h-0.4v-13c0-0.6,0-2.2-0.3-2.8c-0.3-0.6-1.1-0.6-1.7-0.7v-0.5l4.1-0.8V105.1z M79.5,112c0,1.7,1,2.7,2.8,2.7c2.9,0,3.7-2.7,3.7-5.1
		c0-2.4-0.8-5-3.7-5c-0.9,0-2.1,0.5-2.5,1.3c-0.3,0.5-0.3,1.3-0.3,1.9V112z"/>
	<path class="st1" d="M94.1,103.7v8.3c0,1.7-0.2,2.5,1.8,2.6v0.5c-0.9,0-1.8-0.1-2.8-0.1c-1,0-2,0.1-3,0.1v-0.5
		c1.9-0.1,1.8-0.7,1.8-2.4v-3.7c0-0.5,0-2.5-0.1-2.9c-0.2-0.6-1.3-0.6-1.8-0.6v-0.5L94.1,103.7z M91.3,99.1c0-0.8,0.6-1.4,1.4-1.4
		c0.8,0,1.4,0.6,1.4,1.4c0,0.7-0.6,1.4-1.3,1.4C92,100.5,91.3,99.9,91.3,99.1"/>
	<path class="st1" d="M104.1,108c0.3-0.1,0.2-0.5,0.2-0.7c0-1.8-0.2-3-2.3-3c-1.3,0-2.3,0.1-2.4,1.5c-0.1,0.6-0.4,1.1-1,1.1
		c-0.6,0-1-0.4-1-0.9c0-1.9,3.4-2.3,4.7-2.3c2.9,0,4.2,0.8,4.2,3.7v4.2c0,0.6-0.1,2.5,0.9,2.5c0.5,0,0.8-0.5,1.1-0.8l0.5,0.3
		c-0.4,0.8-1.4,1.7-2.3,1.7c-1.1,0-2-0.8-2.2-1.8c-1.2,1-2.7,1.8-4.3,1.8c-1.4,0-2.7-0.8-2.7-2.3c0-2.2,2.4-3.1,4.1-3.8L104.1,108z
		 M104.4,108.6c-1.5,0.8-4.5,1.8-4.5,3.8c0,1,0.6,1.9,1.6,1.9c1,0,2.1-0.8,2.8-1.5V108.6z"/>
	<path class="st1" d="M131.5,98.1h0.4l0.2,5.1h-0.6c-0.4-2.9-2.4-4.9-5.4-4.9c-4.6,0-6,4.6-6,8.4c0,3.9,1.5,8,6.1,8
		c3.6,0,4.9-2.6,5.7-5.7h0.5v5.6H132l-0.6-1.3c-1.7,1.4-3.5,1.9-5.7,1.9c-5.2,0-8.8-3.4-8.8-8.6c0-5.2,3.8-9,9-9
		c2.1,0,3.4,0.5,5.2,1.6L131.5,98.1z"/>
	<path class="st1" d="M146.6,109.5c0,3.5-2.8,5.9-6.2,5.9c-3.4,0-6.2-2.6-6.2-6c0-3.3,3-5.7,6.2-5.7
		C143.6,103.7,146.6,106.1,146.6,109.5 M136.8,109.5c0,2.4,0.7,5.3,3.7,5.3c2.8,0,3.5-2.8,3.5-5.1c0-2.5-0.7-5.3-3.7-5.3
		C137.5,104.3,136.8,107.2,136.8,109.5"/>
	<path class="st1" d="M152.3,111.9c0,1.7-0.2,2.5,1.8,2.6v0.5c-1,0-2-0.1-3-0.1c-0.9,0-1.9,0.1-2.8,0.1v-0.5
		c1.9-0.1,1.8-0.7,1.8-2.4v-9.9c0-0.6,0-2.2-0.3-2.8c-0.3-0.6-1.1-0.6-1.7-0.7v-0.5l4.1-0.8V111.9z"/>
	<path class="st1" d="M159.5,111.9c0.1,1.7-0.2,2.5,1.8,2.6v0.5c-1,0-2-0.1-3-0.1c-1,0-1.9,0.1-2.8,0.1v-0.5
		c1.9-0.1,1.8-0.7,1.8-2.4v-9.9c0-0.6,0-2.2-0.3-2.8c-0.3-0.6-1.1-0.6-1.7-0.7v-0.5l4.1-0.8V111.9z"/>
	<path class="st1" d="M173.4,113.1c-1.2,1.5-2.7,2.2-4.6,2.2c-3.2,0-5.8-2.2-5.8-5.5c0-3.2,2.4-6.1,5.8-6.1c2.5,0,4.9,1.4,4.9,4.2
		c0,0.3-0.4,0.2-0.6,0.2h-7.4l-0.1,1.2c0,2.4,1.3,5.2,4,5.2c1.3,0,2.5-0.9,3.2-1.9L173.4,113.1z M170.1,107.4c0.4,0,1.3,0.1,1.3-0.5
		c0-1.6-0.9-2.6-2.5-2.6c-1.9,0-2.7,1.5-3,3.1H170.1z"/>
	<path class="st1" d="M181.6,113.9c2.6,0.2,5.4,0.3,5.4,3.8c0,3.3-3,4.3-5.8,4.3c-2.1,0-5.4-0.7-5.4-3.4c0-1.1,0.8-2.1,1.9-2.1
		c0.4,0,0.8,0.2,1.1,0.5c-0.8,0.2-1.3,1-1.3,1.8c0,2.2,2.3,2.7,4.1,2.7c1.8,0,3.8-0.8,3.8-2.9c0-2.5-2.8-2.4-4.6-2.5
		c-1.7-0.1-4,0-4-2.3c0-1.2,1.2-2.1,2.3-2.2v-0.1c-1.5-0.5-2.8-1.9-2.8-3.6c0-2.7,2.3-4.2,4.8-4.2c1.2,0,2.4,0.4,3.3,1.2
		c0.7-0.5,1.6-1.1,2.5-1.1c0.7,0,1.5,0.3,1.5,1.1c0,0.5-0.4,0.9-0.8,0.9c-0.8,0-0.9-0.9-1.7-0.9c-0.4,0-0.8,0.3-1.1,0.5
		c0.6,0.7,0.9,1.6,0.9,2.5c0,3-2.3,3.9-4.9,4c-0.8,0-2.8,0-2.8,1.1c0,0.9,1.4,0.8,2,0.8L181.6,113.9z M183.4,107.8
		c0-1.6-0.6-3.6-2.6-3.6c-2,0-2.5,1.9-2.5,3.6c0,1.5,0.6,3.4,2.5,3.4C182.7,111.3,183.4,109.5,183.4,107.8"/>
	<path class="st1" d="M199.7,113.1c-1.2,1.5-2.7,2.2-4.6,2.2c-3.2,0-5.8-2.2-5.8-5.5c0-3.2,2.4-6.1,5.8-6.1c2.5,0,4.9,1.4,4.9,4.2
		c0,0.3-0.4,0.2-0.6,0.2H192l-0.1,1.2c0,2.4,1.3,5.2,4,5.2c1.3,0,2.5-0.9,3.2-1.9L199.7,113.1z M196.3,107.4c0.4,0,1.3,0.1,1.3-0.5
		c0-1.6-0.9-2.6-2.5-2.6c-1.9,0-2.7,1.5-3,3.1H196.3z"/>
	<g class="st1">
		<defs>
			<rect id="SVGID_00000078014937586895946120000005182896287102826145_" x="66.8" y="11.8" width="66.7" height="77"/>
		</defs>
		<clipPath id="SVGID_00000122680781535810297020000016423625429686495383_">
			<use xlink:href="#SVGID_00000078014937586895946120000005182896287102826145_"  style="overflow:visible;"/>
		</clipPath>
		<path style="clip-path:url(#SVGID_00000122680781535810297020000016423625429686495383_);fill:#0087CD;" d="M133.5,11.8V48
			c-0.3,6-1.9,13.4-10.8,23.4c-9.2,10.4-22.2,17.2-22.3,17.3l-0.2,0.1l-0.2-0.1c-0.1-0.1-13.1-6.9-22.3-17.3
			C69.4,62.1,67.4,55.8,66.8,48l0,0V11.8H133.5z M132.4,48V12.9H67.9V48c0.6,7.5,2.5,13.6,10.5,22.7c8.4,9.4,19.9,15.9,21.7,16.9
			c1.8-1,13.4-7.5,21.7-16.9C130.6,60.9,132.1,53.7,132.4,48"/>
		<path style="clip-path:url(#SVGID_00000122680781535810297020000016423625429686495383_);fill:#FFFFFF;" d="M132.4,12.9V48
			c-0.3,5.7-1.8,12.9-10.5,22.7c-8.4,9.4-19.9,15.9-21.7,16.9c-1.9-1-13.4-7.5-21.7-16.9c-8-9-9.9-15.1-10.5-22.7V12.9H132.4z"/>
	</g>
	<g class="st1">
		<defs>
			<path id="SVGID_00000057862937182859195620000000255630711109306003_" d="M100.2,12.3H67.4c0,0-0.6,28.2,0,35.7
				c0.6,7.5,2.5,13.8,10.6,23c9.2,10.4,22.1,17.1,22.1,17.1s12.9-6.7,22.1-17.1c8.2-9.2,10.3-16.4,10.6-23c0.4-6.6,0-35.7,0-35.7
				H100.2z"/>
		</defs>
		<clipPath id="SVGID_00000178194015973218054100000007636646620550326410_">
			<use xlink:href="#SVGID_00000057862937182859195620000000255630711109306003_"  style="overflow:visible;"/>
		</clipPath>
		<path style="clip-path:url(#SVGID_00000178194015973218054100000007636646620550326410_);" d="M166,45.1c0,0-42.2-15.7-42.6-15.8
			c-0.4-0.1-2.3-1.4-3.2-1.3c-0.8,0.1-1.7,0.8-2.4,1.2c-0.7,0.4-2.7,0.6-2.7,0.6l-8-6.6c0,0-3.4-3.3-5.5-3.3c-2,0-6.4,3.8-6.4,3.8
			l-6.6,4.4c0,0-1.1-1.2-2.4-2.9c-0.5-0.7-1.4-1.4-2.2-1.3c-1.4,0.1-2.8,1.8-5.6,3c-0.2,0.1-1,0.2-2.3,0.9c-0.6,0.3-2.3,0.9-3,1.4
			c-8.3,5-24.6,15.9-24.6,15.9H166z"/>
		
			<rect x="43" y="38.9" style="clip-path:url(#SVGID_00000178194015973218054100000007636646620550326410_);" width="110.3" height="57.3"/>
		<path style="clip-path:url(#SVGID_00000178194015973218054100000007636646620550326410_);fill:#FFFFFF;" d="M74.5,57.3
			c0.9-0.3,5.2-2.2,11.9-2.8c6.9-0.8,14.8,2.4,22.5,4.4c7.7,2.2,15.5,3.8,21.4,3.7c5.9,0,9.6-1.5,9.6-1.5c0-0.1-3.6,1.7-9.6,2
			c-6,0.4-14-0.7-21.8-2.5c-7.9-1.6-15.8-4.2-21.7-3.2c-6,0.9-10.1,2.9-10.9,3.1c-3.2,1.3-5.9,1.9-6.4,1.1
			C68.9,60.9,71.1,58.7,74.5,57.3"/>
		<path style="clip-path:url(#SVGID_00000178194015973218054100000007636646620550326410_);fill:#FFFFFF;" d="M97.9,51.8h34.6
			c0,0-2.3,2.7-7.7,3.7c-3.1,0.6-7.3,0.7-12.7-0.5C98.6,51.8,97.9,51.8,97.9,51.8"/>
		<path style="clip-path:url(#SVGID_00000178194015973218054100000007636646620550326410_);fill:#FFFFFF;" d="M69.4,68.6
			c0.8-0.4,4.8-2.3,10.8-3.6c5.9-1.3,13.8-1.7,21.3-0.6c15.2,2.1,28,9.6,27.9,9.6c0.1,0-13.3-6.7-28.1-7.8
			c-7.4-0.7-14.9,0.2-20.4,1.8c-5.6,1.5-9.2,3.5-9.9,3.9c-2.8,1.4-5.3,2.2-5.9,1.5C64.4,72.5,66.3,70.1,69.4,68.6"/>
		<path style="clip-path:url(#SVGID_00000178194015973218054100000007636646620550326410_);fill:#FFFFFF;" d="M114.2,79.3
			c-0.7-0.5-10.1-7.7-21-5.6c-10.7,1.8-20.3,6.8-20.3,6.7c0,0.1,9.1-5.7,20-8.5c5.4-1.5,11.6-0.8,15.8,0.7c4.3,1.5,7.1,3.3,7.6,3.6
			c2.1,1.4,3.2,3.4,2.5,4.1C118,81.1,116.1,80.5,114.2,79.3"/>
		<path style="clip-path:url(#SVGID_00000178194015973218054100000007636646620550326410_);fill:#FFFFFF;" d="M103.6,85.4
			c0,2.5-3.7,4.5-8.2,4.5c-4.5,0-8.2-2-8.2-4.5c0-2.5,3.7-4.5,8.2-4.5C100,80.9,103.6,83,103.6,85.4"/>
		<polygon style="clip-path:url(#SVGID_00000178194015973218054100000007636646620550326410_);fill:#FFFFFF;" points="132.3,38.6 
			128.1,38.6 128.1,40.5 121.1,40.5 121.1,47 118.9,47 118.9,37.2 113.3,37.2 113.3,47 109.5,47 109.5,39 103.6,39 103.6,47 
			101.9,47 101.9,36.4 92.7,36.4 92.7,47 90.2,47 90.2,38.2 81.4,38.2 81.4,39.7 77.4,39.7 77.4,47 74.7,47 74.7,40.4 67.9,40.4 
			67.9,47.9 132.3,47.9 		"/>
	</g>
	<g class="st1">
		<path d="M133.5,11.8V48c-0.3,6-1.9,13.4-10.8,23.4c-9.2,10.4-22.2,17.2-22.3,17.3l-0.2,0.1l-0.2-0.1c-0.1-0.1-13.1-6.9-22.3-17.3
			C69.4,62.1,67.4,55.8,66.8,48l0,0V11.8H133.5z M132.4,48V12.9H67.9V48c0.6,7.5,2.5,13.6,10.5,22.7c8.4,9.4,19.9,15.9,21.7,16.9
			c1.8-1,13.4-7.5,21.7-16.9C130.6,60.9,132.1,53.7,132.4,48"/>
	</g>
</g>
<g id="pgi">
	<g>
		<g>
			<g>
				<g id="XMLID_6_">
					<g>
						<path d="M199.6,52.1v31.7h-6.2V68.5h-4.3v15.3H183V52.1c0-2.4,1.9-4.4,4.4-4.4h7.8C197.6,47.7,199.6,49.7,199.6,52.1z
							 M193.4,62.4v-8.6h-4.3v8.6H193.4z"/>
						<path d="M199.1,88.4l-1.2,0.4c-0.1-0.4-0.3-0.8-0.5-1c-0.2-0.2-0.5-0.3-0.9-0.3c-0.4,0-0.6,0.1-0.8,0.3
							c-0.2,0.2-0.3,0.5-0.3,0.7c0,0.3,0.1,0.6,0.3,0.7c0.2,0.2,0.7,0.4,1.3,0.7c0.6,0.2,1,0.4,1.3,0.6c0.3,0.2,0.6,0.5,0.7,0.8
							s0.3,0.7,0.3,1.1c0,0.7-0.2,1.3-0.7,1.8c-0.5,0.5-1.2,0.7-2.1,0.7c-1.5,0-2.5-0.8-2.9-2.3l1.2-0.4c0.2,1,0.8,1.5,1.7,1.5
							c0.4,0,0.8-0.1,1-0.3c0.2-0.2,0.3-0.5,0.3-0.9c0-0.3-0.1-0.5-0.2-0.7c-0.2-0.2-0.6-0.4-1.2-0.7c-0.7-0.3-1.2-0.5-1.5-0.6
							c-0.3-0.2-0.6-0.4-0.8-0.8c-0.2-0.3-0.3-0.7-0.3-1.2c0-0.7,0.2-1.2,0.7-1.7c0.5-0.5,1.1-0.7,1.9-0.7
							C197.8,86.3,198.7,87,199.1,88.4z"/>
						<polygon points="179.5,47.7 179.5,83.8 173.4,83.8 173.4,68.5 169.2,68.5 169.2,83.8 163,83.8 163,47.7 169.2,47.7 
							169.2,62.4 173.4,62.4 173.4,47.7 						"/>
						<polygon points="170.2,93.7 170.2,94.9 165.3,94.9 165.3,86.5 170.1,86.5 170.1,87.6 166.7,87.6 166.7,90 166.7,91.1 
							166.7,93.7 						"/>
						<rect x="166.7" y="90" width="2.7" height="1.1"/>
						<path d="M159.5,52.1v31.7h-6.2v-30h-4.2v30H143V47.7h12.2C157.6,47.7,159.5,49.7,159.5,52.1z"/>
						<polygon points="140.7,86.5 140.7,94.9 139.4,94.9 139.4,87.7 138.5,87.5 138.7,86.5 						"/>
						<path d="M139.5,52.1v31.7h-6.2V68.5h-4.3v15.3H123V52.1c0-2.4,1.9-4.4,4.4-4.4h7.8C137.5,47.7,139.5,49.7,139.5,52.1z
							 M133.4,62.4v-8.6h-4.3v8.6H133.4z"/>
						<polygon points="139.4,87.7 137.4,94.9 136.4,94.9 134.5,87.7 134.5,94.9 133.3,94.9 133.3,86.5 135.4,86.5 137,92.5 
							138.5,87.5 						"/>
						<path d="M119.5,71.3v12.5h-6.2V70H109v13.8H103V47.7h12.1c2.4,0,4.4,2,4.4,4.4v10.4c0,2.4-1.8,4.3-4.1,4.5
							C117.7,67.1,119.5,69,119.5,71.3z M113.3,63.9V53.8H109v10.1H113.3z"/>
						<path d="M107.2,86.5l2.3,8.4h-1.4l-0.5-2.1h-2.5l-0.5,2.1h-1.3l2.4-8.4H107.2z M107.3,91.7l-1-3.8l-1,3.8H107.3z"/>
						<rect x="93.1" y="47.7" width="6.1" height="36.1"/>
						<path d="M89.9,52.1V65c0,2.6-1.7,5-4.5,5h-6v13.8h-6.2V47.7h12.2C87.9,47.7,89.9,49.7,89.9,52.1z M83.7,63.9V53.8h-4.3v10.1
							H83.7z"/>
						<path d="M79.5,90.6V95h-0.7l-0.2-1.1c-0.4,0.8-1.1,1.2-2,1.2c-0.9,0-1.7-0.4-2.2-1.1c-0.5-0.8-0.8-1.8-0.8-3.1
							c0-1.4,0.3-2.5,0.8-3.3c0.5-0.8,1.3-1.2,2.4-1.2c1.5,0,2.4,0.9,2.7,2.6l-1.3,0.3c-0.1-0.7-0.3-1.2-0.6-1.4
							c-0.3-0.2-0.5-0.3-0.9-0.3c-1.1,0-1.7,1.1-1.7,3.2c0,2.1,0.6,3.2,1.7,3.2c1,0,1.4-0.7,1.4-2.2h-1.5v-1.1H79.5z"/>
					</g>
					<g>
					</g>
				</g>
			</g>
		</g>
		<path d="M33.1,105c-18,0-32.6-14.6-32.6-32.6s14.6-32.6,32.6-32.6c18,0,32.6,14.6,32.6,32.6S51.1,105,33.1,105z M33.1,42.3
			c-16.6,0-30,13.5-30,30s13.5,30,30,30c16.6,0,30-13.5,30-30S49.6,42.3,33.1,42.3z"/>
		<g>
			<g id="XMLID_5_">
				<g>
					<path d="M55.8,60.9c-0.8-7.4-7.1-11-7.2-11.1l-1.3-0.7l0.8,1.2c1.3,2.2,3.5,6.6,3.2,9.2c-0.4,3.4-6.2,4.5-6.3,4.5l-1.8,0.3
						l1.7,0.4c2.9,0.7,4,1.9,4.4,4.7l0.1,0.4l0.4-0.1C50,69.8,56.5,67.6,55.8,60.9z M50.2,68.9c-0.4-2.3-1.5-3.6-3.6-4.4
						c1.9-0.6,5.2-1.9,5.6-4.8c0.3-2.5-1.4-6.2-2.5-8.2c1.8,1.5,4.9,4.6,5.4,9.5C55.6,66.2,51.5,68.4,50.2,68.9z"/>
					<path d="M26.1,65.6L27,65l-1.1-0.1c-3.7-0.3-5.2-0.6-8-1.9c-2.7-1.3-3.9-3.3-3.5-5.8c0.6-3.5,3.2-7,3.3-7.1l1.1-1.5l-1.6,0.9
						C17,49.7,9.7,54,9.8,61.8C9.9,69.7,23.3,74,23.9,74.2l0.9,0.3l-0.4-0.8C23,71.1,23.1,67.6,26.1,65.6z M23.3,73.2
						c-2.9-1.1-12.7-5.1-12.7-11.4v0c-0.1-5.2,3.4-8.8,5.5-10.5c-0.9,1.4-1.9,3.6-2.3,5.7c-0.5,2.8,0.9,5.2,3.9,6.6
						c2.6,1.3,4.2,1.6,7.3,1.9C22.5,67.7,22.4,70.8,23.3,73.2z"/>
					<path d="M48.6,74.4c0-0.4-0.2-0.8-0.4-1.2c-0.2-0.4-0.4-0.8-0.5-1.3c-0.1-0.5-0.1-0.9,0-1.3c0-0.7,0.1-1.3-0.4-2.3
						c-1.5-2.9-5-2.6-8.4-2.3c-1.2,0.1-2.3,0.2-3.3,0.2c-0.7,0-1.4-0.2-2.1-0.4c-0.3-0.1-0.7-0.2-1-0.2c-0.2,0-0.5-0.1-0.8-0.2
						c-0.9-0.3-2-0.6-2.9-0.2c-1.7,0.7-3.2,2.6-3.5,4.5c-0.3,1.9,0.4,4.3,1.5,4.8c0.4,0.2,0.9,0.3,1.2,0.4c1.2,0.3,1.8,0.4,1.4,2.2
						c-0.7,3.1,2.5,5.4,4.8,6.1c2,0.5,3.1,3.2,3.1,5.5c0,1.4-0.3,2.3-0.5,3c-0.2,0.6-0.3,1-0.3,1.6c0.1,2.1,1.3,4.8,1.8,5.4
						c0.5,0.6,1.2,1.3,1.7,1.3c0.1,0,0.2,0,0.2,0c0.1,0,0.4-0.2,0.3-0.7c-0.2-1.4,0.5-6.4,1.4-7.6c0.3-0.3,0.5-1,0.7-2.1
						c0,0,0-0.1,0-0.1c-0.1,0.8-0.2,1.7-0.3,2.3c-0.1,1.2-0.4,2.1-1,3.5c-0.5,1.3-0.4,3-0.1,3.5c0.1,0.2,0.3,0.2,0.4,0.2
						c0.3,0,0.6,0,2.3-3.8c1.7-3.8,3.5-9.9,3.7-15.9c0-0.5,0.1-1,0.2-1.6c0-0.3,0.2-0.6,0.3-1C48.4,76.3,48.7,75.6,48.6,74.4
						L48.6,74.4z M47.5,76.6c-0.1,0.4-0.3,0.7-0.3,1.1C47,78.3,47,78.9,47,79.4c-0.2,5.9-2,11.9-3.6,15.6c-0.8,1.9-1.3,2.8-1.5,3.1
						c-0.1-0.5-0.1-1.5,0.3-2.5c0.5-1.4,0.9-2.5,1-3.7c0.1-0.7,0.2-1.6,0.3-2.5c0.4-2.8,0.5-3.6,0.2-4c-0.1-0.1-0.2-0.2-0.3-0.2
						c-0.6,0-0.7,0.7-1.1,2.8c-0.1,0.5-0.2,1-0.3,1.4c-0.2,1-0.4,1.6-0.6,1.8c-1,1.2-1.8,6-1.6,7.9c-0.2-0.1-0.5-0.4-0.9-0.9
						c-0.4-0.5-1.6-3.1-1.6-5c0-0.4,0.1-0.8,0.3-1.3c0.2-0.8,0.6-1.7,0.6-3.3c0-2.5-1.1-5.5-3.6-6.2c-2.1-0.6-4.8-2.7-4.3-5.2
						c0.6-2.5-0.7-2.8-1.9-3.1c-0.4-0.1-0.8-0.2-1.1-0.3c-0.6-0.2-1.3-2.2-1-4c0.3-1.7,1.6-3.3,3.1-4c0.2-0.1,0.5-0.1,0.7-0.1
						c0.6,0,1.2,0.2,1.7,0.4c0.3,0.1,0.6,0.2,0.9,0.2c0.3,0.1,0.6,0.1,1,0.2c0.8,0.2,1.5,0.4,2.3,0.4c1.1,0,2.2-0.1,3.3-0.2
						c3.3-0.3,6.4-0.6,7.6,1.9c0.4,0.8,0.4,1.3,0.3,1.9c0,0.4,0,0.9,0.1,1.5c0.1,0.6,0.3,1,0.5,1.5c0.2,0.4,0.3,0.7,0.4,1
						C47.9,75.5,47.7,76,47.5,76.6z"/>
					<path d="M36.6,73.7c0,0-2.2-2.2-3.6-1.8c-0.6,0.2-1,0.7-1,1.4c-0.1,1.4,0.9,3.5,1.7,3.9l0,0c0.6,0.3,1.9,0.4,3,0.4
						c0.8,0,1.6,0,1.7-0.1l0.6,0l-0.2-0.5C38.6,77,37.6,74.8,36.6,73.7z"/>
				</g>
			</g>
		</g>
	</g>
</g>
</svg>
