<?xml version="1.0" encoding="utf-8"?>
<!-- Generator: Adobe Illustrator 27.9.3, SVG Export Plug-In . SVG Version: 9.03 Build 53313)  -->
<svg version="1.1" id="Layer_1" xmlns="http://www.w3.org/2000/svg" xmlns:xlink="http://www.w3.org/1999/xlink" x="0px" y="0px"
	 viewBox="0 0 200 200" style="enable-background:new 0 0 200 200;" xml:space="preserve">
<style type="text/css">
	.st0{fill:url(#SVGID_1_);}
	.st1{fill:url(#SVGID_00000116201336555323756260000017441144315238250113_);}
	.st2{fill:url(#SVGID_00000148635925960872567570000010149673460489550257_);}
	.st3{fill:url(#SVGID_00000003815090366843099200000003346391428694261386_);}
	.st4{fill:url(#SVGID_00000082342822866005429290000009869422432262214323_);}
	.st5{fill:url(#SVGID_00000088847131691293955500000006398264942406829246_);}
	.st6{fill:url(#SVGID_00000090991525729408439600000015453461884088356749_);}
	.st7{fill:url(#SVGID_00000078749147013473644510000008160036641718759354_);}
	.st8{fill:url(#SVGID_00000110436444507446335040000017558910036872841345_);}
	.st9{fill:url(#SVGID_00000168824765769779940470000015347300055463018115_);}
	.st10{fill:url(#SVGID_00000111873923215972539580000015625901225089103033_);}
	.st11{fill:url(#SVGID_00000054972733327146296680000006588266712525920177_);}
</style>
<g>
	<linearGradient id="SVGID_1_" gradientUnits="userSpaceOnUse" x1="-477.0121" y1="-459.9092" x2="133.7054" y2="150.8082">
		<stop  offset="0" style="stop-color:#828282"/>
		<stop  offset="1" style="stop-color:#383838"/>
	</linearGradient>
	<path class="st0" d="M61.8,151.4c0,0,18.7-9,29-31.6c6.1-13.5,7.7-12.4,7.7-12.4s-2.5,11.6,3.3,18.4c5.7,6.6,18.5-1.1,18.5-1.1
		s-9.7-0.4-13-9.7c-3-8.5-0.7-13.3-0.7-13.3c2.6-0.7,28.8-9.2,22.8-26.1c-3.1-8.8-15.6-12.2-29.3-8.8c-22.8,5.5-25.9,22-25.9,22
		s2-1.9,4.5,0.8c7.7,8.6,2.5,31.4-3.4,42.2C69.4,142.7,61.8,151.4,61.8,151.4z M100.6,78.1c9.1-4.2,16.8-1,17.8,4.9
		c1.6,9.4-19.2,20.1-23.6,10.1C93.4,90,90.9,82.6,100.6,78.1z"/>
	
		<linearGradient id="SVGID_00000110434258292212109710000005901730298731377840_" gradientUnits="userSpaceOnUse" x1="-449.3144" y1="-428.2841" x2="114.4034" y2="135.4337">
		<stop  offset="0" style="stop-color:#828282"/>
		<stop  offset="1" style="stop-color:#383838"/>
	</linearGradient>
	<path style="fill:url(#SVGID_00000110434258292212109710000005901730298731377840_);" d="M65.2,112.3c6.1,10.1-1.5,31-1.5,31
		s26.3-27.4,7-50.3c-9.4-11.1,16.3-31.8,38.7-31.1c25.5,0.8,23,19.2,23,19.2c4-12.9-5.7-25.8-26.3-25.8c-12.4,0-33.2,4.1-52,24
		c-20.9,22-32.9,49.1-32.9,49.1S52.7,91.6,65.2,112.3z"/>
	
		<linearGradient id="SVGID_00000137813424699394233350000005504928344963036827_" gradientUnits="userSpaceOnUse" x1="-286.3422" y1="-180.4842" x2="94.3433" y2="200.2013">
		<stop  offset="0" style="stop-color:#828282"/>
		<stop  offset="1" style="stop-color:#383838"/>
	</linearGradient>
	<path style="fill:url(#SVGID_00000137813424699394233350000005504928344963036827_);" d="M75,175.7c-1.9-11.6,4-20.3,5.7-22.9
		c0,0-2,1.4-3.9,2.2c-1.2,0.5-2.3,0.8-2.9,0.5c-10.7-5.7-31.1,11.2-27.3,27.4c1.9,8.2,8.7,11.5,14.3,11.1c9-0.6,9.9-6.8,9.9-6.8
		s-2.1,1.7-7.7,0.3c-5.3-1.3-7.6-6.6-7.1-10.9c0.9-8.4,10.6-10.8,10.6-10.8s-4.9,15.8,6.5,21.9c5.5,2.9,9.6-0.4,9.6-0.4
		S76.6,185.5,75,175.7z"/>
	
		<linearGradient id="SVGID_00000049195438524589772970000011208351766539962291_" gradientUnits="userSpaceOnUse" x1="-239.7032" y1="-168.2929" x2="122.4077" y2="193.818">
		<stop  offset="0" style="stop-color:#828282"/>
		<stop  offset="1" style="stop-color:#383838"/>
	</linearGradient>
	<path style="fill:url(#SVGID_00000049195438524589772970000011208351766539962291_);" d="M102.6,168.6c-2.5-11.1,4.1-19.2,4.1-19.2
		s-15.7,8-12.8,24.8c0.7,3.9-3.4,5.6-6.1-2.3c-3.6-10.3,3.4-20.3,3.4-20.3s-12.2,6-12.5,18.8c-0.3,11,6.2,15.6,12.1,16.5
		c4.3,0.6,8.6-0.7,11-3.1c0.5,0.2,2.9,0.5,3.7,0.4c3.9-0.3,4.5-1.4,4.5-1.4S105.5,181.6,102.6,168.6z"/>
	
		<linearGradient id="SVGID_00000095303860131828268840000015332655956626551716_" gradientUnits="userSpaceOnUse" x1="-529.15" y1="-415.5959" x2="83.0053" y2="196.5594">
		<stop  offset="0" style="stop-color:#828282"/>
		<stop  offset="1" style="stop-color:#383838"/>
	</linearGradient>
	<path style="fill:url(#SVGID_00000095303860131828268840000015332655956626551716_);" d="M43.1,170.4c4.6-9.2,8.2-12.3,10.9-17.1
		c17.6-31.6,6.9-44.8-6.3-40.5c-9.7,3.1-25.6,15.9-30.8,25.4c-5.5,10.1-3.7,16.6-3.7,16.6s5-8.3,9-3.1c4.3,5.5,16,20.4,5.9,32.4
		c-4.7,5.6-10.3-3.6-10.3-3.6c-0.4,1.5,1.2,15.7,12.3,18.7c5.6,1.5,11.9,1.7,14.1-4.1C46.4,188.8,38.7,179.2,43.1,170.4z
		 M39.2,159.6c-2.8,0-4.6-4.3-7.6-8.4c-7.9-10.8,1.9-22.3,9.8-20.1C51.8,134.1,45.6,159.6,39.2,159.6z"/>
	
		<linearGradient id="SVGID_00000100351201319501228630000011169021326451031937_" gradientUnits="userSpaceOnUse" x1="-334.2997" y1="-345.928" x2="185.2237" y2="173.5953">
		<stop  offset="0" style="stop-color:#828282"/>
		<stop  offset="1" style="stop-color:#383838"/>
	</linearGradient>
	<path style="fill:url(#SVGID_00000100351201319501228630000011169021326451031937_);" d="M170.3,81.1c0,0-3,25.9-15.2,40.8
		c-12.2,14.9-18.1,17.3-28.2,21.4c-4.6,1.9-20.9,6-20.1,22.2c0.9,18.5,22.1,21.6,34.2,16.3c11.6-5.1,11.5-12.7,11.5-12.7
		s-5.2,6.6-9.6-1.9c-4-7.9,0.1-14.5,5.6-20.7C176.4,115.3,170.3,81.1,170.3,81.1z M119.9,166.9c-3-10.9,13.8-17.7,13.8-17.7
		s-4.6,4.3-2.9,13.6c1.9,10.2,8.5,11.9,8.5,11.9S123.5,179.9,119.9,166.9z"/>
	
		<linearGradient id="SVGID_00000090995909619353773450000017012319680214118543_" gradientUnits="userSpaceOnUse" x1="-203.6707" y1="-206.2129" x2="147.1299" y2="144.5876">
		<stop  offset="0" style="stop-color:#828282"/>
		<stop  offset="1" style="stop-color:#383838"/>
	</linearGradient>
	<path style="fill:url(#SVGID_00000090995909619353773450000017012319680214118543_);" d="M158.9,102c3.5-10.3,1.4-23.3,1.4-23.3
		s-4.7,29.7-28.5,32.8c-18.6,2.4,4.9-24.9,4.9-24.9s-21.8,12.1-23.6,24.3c-1.5,10.6,12,11.2,12,11.2s-2,5.2-12.6,13.9
		c-10.6,8.7-39.9,13.3-39.9,13.3s30.3-0.2,48.6-8.7C139.7,132,153.4,118.4,158.9,102z"/>
	
		<linearGradient id="SVGID_00000103251388599481280530000014608398199996960171_" gradientUnits="userSpaceOnUse" x1="-677.4291" y1="-704.6255" x2="160.0198" y2="132.8234">
		<stop  offset="0" style="stop-color:#828282"/>
		<stop  offset="1" style="stop-color:#383838"/>
	</linearGradient>
	<path style="fill:url(#SVGID_00000103251388599481280530000014608398199996960171_);" d="M48,83.5c0,0.6,0.1,1.1,0.2,1.6
		c0-18.4,23.5-34.5,53.6-36.3c30.1-1.8,55.8,11.4,58.6,29.7c0-0.5,0-1.1-0.1-1.7c-1.5-19.1-27.8-33.1-58.8-31.3
		C70.5,47.4,46.5,64.4,48,83.5z"/>
	
		<linearGradient id="SVGID_00000023991339157236681850000002907026257778340023_" gradientUnits="userSpaceOnUse" x1="-1152.317" y1="-1184.978" x2="194.3465" y2="161.6855">
		<stop  offset="0" style="stop-color:#828282"/>
		<stop  offset="1" style="stop-color:#383838"/>
	</linearGradient>
	<path style="fill:url(#SVGID_00000023991339157236681850000002907026257778340023_);" d="M187.1,65.8c-1.2-16.3-15.6-30-36.7-37.9
		C141.3,10.4,120.8-1.2,98,0.1C75.2,1.4,56.7,15.3,50.3,33.8C30.6,44.1,18.5,59.3,19.7,75.7c0.7,9.8,6.2,18.6,14.9,25.8
		c-6.4-6.3-10.3-13.6-10.9-21.6c-2-26.3,32.2-49.7,76.3-52.3c44.1-2.6,81.6,16.6,83.6,42.8c0.6,8-2.1,15.7-7.5,22.7
		C183.8,85,187.8,75.6,187.1,65.8z M99.6,21c-14.7,0.9-28.4,4-40.1,8.6c7.1-15,23.1-26,42.5-27.1c20.9-1.2,39.8,9.3,48.3,25.3
		C135.8,22.5,118.3,19.9,99.6,21z"/>
	
		<linearGradient id="SVGID_00000098218882307253490450000011662266452927985062_" gradientUnits="userSpaceOnUse" x1="-27.6169" y1="-0.8755" x2="43.8219" y2="70.5634">
		<stop  offset="0" style="stop-color:#828282"/>
		<stop  offset="1" style="stop-color:#383838"/>
	</linearGradient>
	<path style="fill:url(#SVGID_00000098218882307253490450000011662266452927985062_);" d="M42.6,65.8c0-2-1.6-3.6-3.6-3.6
		s-3.6,1.6-3.6,3.6c0,2,1.6,3.6,3.6,3.6C40.9,69.3,42.6,67.8,42.6,65.8z"/>
	
		<linearGradient id="SVGID_00000018198506288991025180000008426212126506512559_" gradientUnits="userSpaceOnUse" x1="33.8864" y1="-30.576" x2="105.3252" y2="40.8628">
		<stop  offset="0" style="stop-color:#828282"/>
		<stop  offset="1" style="stop-color:#383838"/>
	</linearGradient>
	<path style="fill:url(#SVGID_00000018198506288991025180000008426212126506512559_);" d="M104.1,36.1c0-2-1.6-3.6-3.6-3.6
		c-2,0-3.6,1.6-3.6,3.6c0,2,1.6,3.6,3.6,3.6C102.4,39.6,104.1,38,104.1,36.1z"/>
	
		<linearGradient id="SVGID_00000101820590179315630080000015459589505360178337_" gradientUnits="userSpaceOnUse" x1="99.6272" y1="-7.9445" x2="171.066" y2="63.4943">
		<stop  offset="0" style="stop-color:#828282"/>
		<stop  offset="1" style="stop-color:#383838"/>
	</linearGradient>
	<path style="fill:url(#SVGID_00000101820590179315630080000015459589505360178337_);" d="M169.8,58.7c0-2-1.6-3.6-3.6-3.6
		s-3.6,1.6-3.6,3.6c0,2,1.6,3.6,3.6,3.6C168.2,62.3,169.8,60.7,169.8,58.7z"/>
</g>
</svg>
