<?xml version="1.0" encoding="utf-8"?>
<!-- Generator: Adobe Illustrator 27.9.3, SVG Export Plug-In . SVG Version: 9.03 Build 53313)  -->
<svg version="1.1" id="Layer_1" xmlns="http://www.w3.org/2000/svg" xmlns:xlink="http://www.w3.org/1999/xlink" x="0px" y="0px"
	 viewBox="0 0 200 200" style="enable-background:new 0 0 200 200;" xml:space="preserve">
<style type="text/css">
	.st0{opacity:5.000000e-02;}
</style>
<g class="st0">
	<path d="M89.3,148.2c0.6-0.2,17.5-4.3,26.3-10.6c11.3-8.1,13.5-15.7,13.5-15.7s-8.4,1.3-11.1-4.2c-5.7-11.6,13.8-25.1,16.7-26.5
		c-2.1,2.4-11.6,12.7-8.2,19.4c3.3,6.5,16.6,1.2,23.2-3.8c8-6,12-18.6,12.8-21.4c0,0.5,0.1,1,0.1,1.6c0,10.5-1.9,18.1-7.6,26.8
		c-4.8,7.5-10.6,13.6-19,19.3c-7.8,5.3-16.8,8.9-28,12.2C100.4,147.5,91.3,148.3,89.3,148.2z"/>
	<path d="M184,60.8c-2.3-16.3-17.5-29.2-39.2-35.7C134.5,8,113.2-2.3,90.4,0.5C67.6,3.2,49.9,18.4,44.7,37.3
		C25.5,48.9,14.3,65,16.6,81.3c1.4,9.8,7.4,18.3,16.6,25c-6.8-5.9-11.2-13-12.3-21C17.3,59,50.1,33.4,94.2,27.9
		c44.2-5.4,83,11.5,86.7,37.7c1.1,8-1.1,15.9-6.1,23.2C181.9,80.2,185.4,70.6,184,60.8z M93.3,21.3C78.6,23.1,65,27.1,53.6,32.5
		C59.7,17,75.1,5,94.5,2.6C115.5,0,135,9.5,144.6,25C129.8,20.5,112,19,93.3,21.3z"/>
	<circle cx="34.8" cy="68.5" r="3.6"/>
	<path d="M99.2,37.9c0-2-1.7-3.6-3.7-3.5c-2,0-3.6,1.7-3.5,3.7c0,2,1.7,3.6,3.7,3.5C97.6,41.5,99.2,39.9,99.2,37.9z"/>
	<circle cx="157.2" cy="48.9" r="3.6"/>
	<path d="M68.5,148.3c2.8-3.7,6.7-9.1,10-15.2c1.5-2.8,3-6.3,4.2-10.2c1.3-4,2.2-8.3,2.7-12.2c0.6-4.5,0.6-8.5,0.1-11.9
		c-0.6-4-1.9-7.1-3.8-9.3c-1.1-1.2-2.3-1.8-3.5-1.8c-0.1,0-0.1,0-0.2,0c0.6-1.6,1.7-4.1,3.7-6.7c2.1-2.7,4.6-5.1,7.6-7
		c3.8-2.5,8.3-4.4,13.3-5.6c3.4-0.8,6.7-1.2,9.9-1.2c4.5,0,8.6,0.9,11.8,2.5c1.6,0.8,3,1.8,4,3c1.1,1.2,1.9,2.5,2.5,4
		c0.7,1.9,0.9,3.7,0.8,5.5c-0.1,1.6-0.6,3.2-1.4,4.8c-1.1,2.1-2.8,4.1-5,6c-1.9,1.6-4.2,3.1-6.8,4.5c-5.2,2.8-9.7,4-9.8,4.1
		c0,0-3.2,5.8,0,14.7c0.8,2.3,2.1,4.3,3.7,5.9c1.3,1.3,2.9,2.3,4.7,3.1c0.9,0.4,1.7,0.7,2.5,0.9c-2.3,1-5.6,2.3-8.8,2.3
		c-5.9-0.1-10.9-4.6-10.7-13.1c0.1-4.1,1.4-8,0.6-8.1c-1.7-0.3-5.3,8.6-7.9,13.5C82.7,139.8,70.1,147.2,68.5,148.3z M110.7,73.9
		c-5.2-0.3-14.9,4.3-16.2,10.9c-0.4,2.3,0.1,4.8,1.3,7.6c1.4,3.1,4,4.3,7.8,4.6c5.1,0.4,11.5-3.1,15.2-7.5c2.2-2.6,3.2-5.4,2.7-8
		C120.8,77,116.4,73.9,110.7,73.9z"/>
	<path d="M62.1,194.2c-2.8,0-5.3-0.9-7.5-2.5c-2.5-1.8-4.2-4.6-5-7.9c-0.7-3-0.9-6.2,0.1-9.4c1.6-5.5,5-11.3,12.3-15.2
		c3.1-1.6,6-2.5,8.9-2.5c3.4,0,3.5,0.9,5.7,0.9c1.9,0,2.7-0.4,2.8-0.4c-0.7,1.3-6.2,10.1-3.4,19.8c2.8,9.3,6,11.2,6.5,11.6
		c-0.7,0.3-1.7,0.6-2.9,0.6c0,0,0,0,0,0c-1.4,0-8.7-1.5-11.1-13.5c-1.2-5.8,1.5-10.2,1.5-10.2s-3.5,0.3-7.1,2.8
		c-3.5,2.5-5.9,5.7-6.2,9.5c-0.3,2.5,0.4,5.1,1.6,7.3c2.6,5.1,9.4,5.4,10.7,5.4c0.7,0,1.4-0.1,1.9-0.2c-0.2,0.3-1.2,1.8-3.3,2.9
		C66.5,193.7,64.9,194.2,62.1,194.2z"/>
	<path d="M95.3,187.2c-5.5-0.3-7.9-2.1-9.8-4.3c-2.4-2.8-3.9-6.7-3.8-11.5c0.1-2.8,1.1-5.3,2.3-7.8c2-4.4,5.8-7.2,6.6-7.8
		c-0.4,0.8-0.7,1.7-1.1,2.8c-0.8,2.3-1.3,4.6-1.4,6.8c-0.2,2.8,0.2,5.5,1,8c0.7,2,1.5,3.6,2.5,4.7c1.2,1.4,2.3,1.6,3,1.6
		c0,0,0,0,0,0c0.8,0,1.5-0.3,2-0.9c0.7-0.8,1-2.1,0.7-3.6c-0.6-3.7-0.5-6.7,0.7-10.5c1.1-3.6,4.2-8,7.7-10.7
		c-0.2,0.5-0.4,0.9-0.6,1.5c-0.8,2.1-1.4,4.2-1.6,6.4c-0.3,2.7-0.2,5.4,0.4,8.1c2,8.8,4.7,12.5,6.4,14.1c-2.8,1.3-6.5-0.2-6.5-0.2
		S101.9,186.8,95.3,187.2z"/>
	<path d="M37.9,200.1c-1.7,0-7.8-0.6-12-4.5s-4.9-9.2-5.2-10.7c0,0,0,0,0,0c1.9,2,3.8,3.1,5.7,3.1c1.6,0,3-0.7,4.2-2.2
		c2.5-3,3.9-6.3,4.2-10c0.3-3-0.3-6.3-1.5-9.8c-2.2-6.1-5.4-11-6.7-12.6c-1.4-1.6-4.2-3.8-5.7-3.8c-2.9,0.2-5.2,3-5.3,3.1
		c0-0.5,0.9-7.2,3.9-13.4c3.5-7.2,6.5-10.6,12.7-15.7c5.1-4.2,11.7-7.6,16.3-8.8c9-2.3,15.7,4,15.1,16.3
		c-0.7,13.5-8.3,23.3-12.1,27.6c-2.4,2.7-5.3,6-7.5,12.1c-1.7,4.6-1.2,10.9,0.1,15.8c0.9,3.4,1.7,6.2,0.9,9.1
		C44.3,198.7,42,200.1,37.9,200.1C33.8,200.1,37.9,200.1,37.9,200.1z M41.3,130.5c-2,0-4.1,0.7-5.9,2c-1.8,1.3-3.3,3-4.4,5
		c-1.1,2.2-1.6,4.7-1.4,7.2c0.2,2.8,1.3,5.5,3.1,8c0.8,1.1,1.5,2.2,2.2,3.2c2,3.1,3.7,5.7,6.3,5.7l0,0c2,0,3.9-1.7,5.6-4.9
		c1.4-2.7,2.5-6.3,3-9.9c0.4-2.6,0.6-6.4-0.4-9.8c-1-3.3-2.9-5.4-5.6-6.2C42.9,130.6,42.1,130.5,41.3,130.5z"/>
	<path d="M117.3,180c-6.3-4.9-7.1-9.2-7.1-13.6c0-16,19.1-21.1,19.6-21.3c10.2-4.1,18.4-8.3,28.8-21.9c2.7-3.6,5.5-7.9,7.7-13
		c1.8-4.1,3.4-8.6,4.7-13.6c0.6-2.2,1.1-4.3,1.5-6.2c0,3.2-0.3,7.4-1,12.1c-1.1,7.2-3.2,14.2-6.2,20.9c-3.7,8.3-8.8,16.2-15.1,23.2
		c-2.4,2.6-5.2,6.2-6.6,10.1c-0.7,1.9-1,3.9-0.9,5.7c0.1,2.1,0.7,4.1,1.7,6.2c0.9,1.7,1.8,3,2.9,3.8c2.3,1.6,5.1,0.9,5.9,0.4
		c-0.2,0.4-2.2,6.2-10.2,9C134.6,184.9,123,184.4,117.3,180z M139.1,148.2c-0.2,0.1-7.6,2.7-11.5,5.9c-2.4,1.9-8.6,6.7-6.2,14.1
		c2.5,7.5,8,9.7,13.6,9.7c7.3,0,8.2-2.4,8.2-2.4s-7.6-0.7-8.8-11.9C133.8,157.2,139.1,148.2,139.1,148.2z"/>
	<path d="M69.5,136.8c0.3-1.4,2.3-9.1,1.7-14.8c-0.9-8.3-4.1-16.7-14.5-17c-11.4-0.4-24.6,11.8-27.7,15.5
		c1.8-4.6,10.1-23.6,27.7-40.1c15.1-14.2,35.9-24,51.8-23.3c9.4,0.4,19.1,4.2,24.2,11.6c-0.1-0.1-0.1-0.1-0.2-0.2
		c-1.9-2.3-16-10.6-34.5-6c-12.9,3.2-23.1,13.2-26.7,17.8c-3.4,4.4-4.3,9.4,0.3,14.2c4.5,4.7,6.5,10.6,6.7,16.7
		C78.8,120.8,72.4,132.7,69.5,136.8z"/>
</g>
</svg>
