<?xml version="1.0" encoding="utf-8"?>
<!-- Generator: Adobe Illustrator 27.9.3, SVG Export Plug-In . SVG Version: 9.03 Build 53313)  -->
<svg version="1.1" xmlns="http://www.w3.org/2000/svg" xmlns:xlink="http://www.w3.org/1999/xlink" x="0px" y="0px"
	 viewBox="0 0 32 32" style="enable-background:new 0 0 32 32;" xml:space="preserve">
<style type="text/css">
	.st0{display:none;}
	.st1{display:inline;}
	.st2{fill:#383838;}
	.st3{fill:url(#SVGID_1_);}
	.st4{fill:url(#SVGID_00000155143226344572552830000015711328545829653145_);}
	.st5{fill:url(#SVGID_00000165230828197419849220000015142479779490972843_);}
	.st6{fill:url(#SVGID_00000107565216287805916800000003384943757066224777_);}
	.st7{fill:url(#SVGID_00000008110971220620586380000010858791635449002407_);}
	.st8{fill:#027CB2;}
</style>
<g id="Layer_1" class="st0">
	<g class="st1">
		<path class="st2" d="M15.7,15.1c1.1-2.4,1.4-2.2,1.4-2.2s-0.4,2.1,0.6,3.2c1,1.2,3.3-0.2,3.3-0.2s-1.7-0.1-2.3-1.7
			c-0.5-1.5-0.1-2.3-0.1-2.3c0.5-0.1,5.1-1.6,4-4.6c-0.6-1.5-2.7-2.1-5.2-1.6c-4,1-4.6,3.9-4.6,3.9s0.4-0.3,0.8,0.1
			c1.4,1.5,0.4,5.5-0.6,7.4c-1,1.9-2.4,3.4-2.4,3.4S13.8,19.1,15.7,15.1z M17.4,7.7c1.6-0.7,3-0.2,3.1,0.9c0.3,1.6-3.4,3.5-4.2,1.8
			C16.1,9.8,15.7,8.5,17.4,7.7z"/>
		<path class="st2" d="M11.1,13.8c1.1,1.8-0.3,5.5-0.3,5.5s4.6-4.8,1.2-8.9c-1.6-2,2.9-5.6,6.8-5.5C23.4,5,23,8.3,23,8.3
			c0.7-2.3-1-4.5-4.6-4.5c-2.2,0-5.8,0.7-9.2,4.2c-3.7,3.9-5.8,8.7-5.8,8.7S8.9,10.1,11.1,13.8z"/>
		<path class="st2" d="M12.9,24.9c-0.3-2,0.7-3.6,1-4c0,0-0.3,0.2-0.7,0.4c-0.2,0.1-0.4,0.1-0.5,0.1c-1.9-1-5.5,2-4.8,4.8
			c0.3,1.4,1.5,2,2.5,2c1.6-0.1,1.7-1.2,1.7-1.2s-0.4,0.3-1.4,0.1c-0.9-0.2-1.3-1.2-1.3-1.9c0.2-1.5,1.9-1.9,1.9-1.9
			s-0.9,2.8,1.1,3.9c1,0.5,1.7-0.1,1.7-0.1S13.2,26.6,12.9,24.9z"/>
		<path class="st2" d="M17.7,23.7c-0.4-2,0.7-3.4,0.7-3.4s-2.8,1.4-2.3,4.4c0.1,0.7-0.6,1-1.1-0.4c-0.6-1.8,0.6-3.6,0.6-3.6
			s-2.1,1.1-2.2,3.3c0,1.9,1.1,2.8,2.1,2.9c0.8,0.1,1.5-0.1,1.9-0.5c0.1,0,0.5,0.1,0.7,0.1c0.7,0,0.8-0.2,0.8-0.2S18.3,26,17.7,23.7
			z"/>
		<path class="st2" d="M7.2,24c0.8-1.6,1.4-2.2,1.9-3c3.1-5.6,1.2-7.9-1.1-7.1c-1.7,0.6-4.5,2.8-5.4,4.5c-1,1.8-0.7,2.9-0.7,2.9
			s0.9-1.5,1.6-0.5c0.8,1,2.8,3.6,1,5.7c-0.8,1-1.8-0.6-1.8-0.6C2.7,26,3,28.5,4.9,29c1,0.3,2.1,0.3,2.5-0.7
			C7.8,27.2,6.5,25.5,7.2,24z M6.6,22.1c-0.5,0-0.8-0.8-1.3-1.5c-1.4-1.9,0.3-3.9,1.7-3.5C8.8,17.6,7.7,22.1,6.6,22.1z"/>
		<path class="st2" d="M24.8,23.4c-0.7-1.4,0-2.6,1-3.7c4.9-5.5,3.9-11.5,3.9-11.5s-0.5,4.6-2.7,7.2s-3.2,3.1-5,3.8
			c-0.8,0.3-3.7,1.1-3.5,3.9c0.2,3.3,3.9,3.8,6,2.9c2-0.9,2-2.2,2-2.2S25.6,24.9,24.8,23.4z M20.8,23.4c-0.5-1.9,2.4-3.1,2.4-3.1
			s-0.8,0.8-0.5,2.4c0.3,1.8,1.5,2.1,1.5,2.1S21.4,25.7,20.8,23.4z"/>
		<path class="st2" d="M27.7,11.9c0.6-1.8,0.2-4.1,0.2-4.1s-0.8,5.2-5,5.8c-3.3,0.4,0.9-4.4,0.9-4.4s-3.8,2.1-4.2,4.3
			c-0.3,1.9,2.1,2,2.1,2s-0.3,0.9-2.2,2.4c-1.9,1.5-7,2.3-7,2.3s5.3,0,8.6-1.5C24.3,17.2,26.7,14.8,27.7,11.9z"/>
	</g>
</g>
<g id="Layer_2" class="st0">
	<g class="st1">
		
			<linearGradient id="SVGID_1_" gradientUnits="userSpaceOnUse" x1="15.3233" y1="11.4665" x2="26.5785" y2="22.7218" gradientTransform="matrix(0.9999 1.200517e-02 -1.200517e-02 0.9999 -6.0914 -0.8669)">
			<stop  offset="0" style="stop-color:#383838"/>
			<stop  offset="1" style="stop-color:#383838"/>
		</linearGradient>
		<path class="st3" d="M15.7,13c-4.9,0.3-8.7,3-8.4,6c0,0.1,0,0.2,0,0.3c0-2.9,3.7-5.4,8.4-5.7c4.7-0.3,8.8,1.8,9.2,4.7
			c0-0.1,0-0.2,0-0.3C24.7,15,20.6,12.8,15.7,13z"/>
		
			<linearGradient id="SVGID_00000159459391367624544090000015222403250192524422_" gradientUnits="userSpaceOnUse" x1="15.7543" y1="11.0355" x2="27.0096" y2="22.2907" gradientTransform="matrix(0.9999 1.200517e-02 -1.200517e-02 0.9999 -6.0914 -0.8669)">
			<stop  offset="0" style="stop-color:#383838"/>
			<stop  offset="1" style="stop-color:#383838"/>
		</linearGradient>
		<path style="fill:url(#SVGID_00000159459391367624544090000015222403250192524422_);" d="M29.2,16.2c-0.2-2.6-2.5-4.7-5.8-6
			c-1.4-2.8-4.7-4.6-8.3-4.4c-3.6,0.2-6.5,2.4-7.5,5.3c-3.1,1.6-5,4-4.8,6.6c0.1,1.5,1,2.9,2.4,4.1c-1-1-1.6-2.1-1.7-3.4
			c-0.3-4.1,5.1-7.8,12-8.2c7-0.4,12.9,2.6,13.2,6.8c0.1,1.3-0.3,2.5-1.2,3.6C28.7,19.2,29.3,17.8,29.2,16.2z M15.4,9.2
			c-2.3,0.1-4.5,0.6-6.3,1.4c1.1-2.4,3.6-4.1,6.7-4.3c3.3-0.2,6.3,1.5,7.6,4C21.1,9.4,18.4,9,15.4,9.2z"/>
		
			<linearGradient id="SVGID_00000026874164437840143540000007253640068140260008_" gradientUnits="userSpaceOnUse" x1="11.0096" y1="15.7802" x2="22.2648" y2="27.0355" gradientTransform="matrix(0.9999 1.200517e-02 -1.200517e-02 0.9999 -6.0914 -0.8669)">
			<stop  offset="0" style="stop-color:#383838"/>
			<stop  offset="1" style="stop-color:#383838"/>
		</linearGradient>
		<circle style="fill:url(#SVGID_00000026874164437840143540000007253640068140260008_);" cx="5.9" cy="16.2" r="0.6"/>
		
			<linearGradient id="SVGID_00000053546967634659048160000004224095282989941892_" gradientUnits="userSpaceOnUse" x1="18.2237" y1="8.5661" x2="29.479" y2="19.8213" gradientTransform="matrix(0.9999 1.200517e-02 -1.200517e-02 0.9999 -6.0914 -0.8669)">
			<stop  offset="0" style="stop-color:#383838"/>
			<stop  offset="1" style="stop-color:#383838"/>
		</linearGradient>
		<path style="fill:url(#SVGID_00000053546967634659048160000004224095282989941892_);" d="M16.1,11.5c0-0.3-0.2-0.6-0.6-0.6
			c-0.3,0-0.6,0.2-0.6,0.6c0,0.3,0.2,0.6,0.6,0.6C15.9,12.1,16.1,11.9,16.1,11.5z"/>
		
			<linearGradient id="SVGID_00000168111564407352773810000014237921080802584766_" gradientUnits="userSpaceOnUse" x1="21.703" y1="5.0868" x2="32.9583" y2="16.342" gradientTransform="matrix(0.9999 1.200517e-02 -1.200517e-02 0.9999 -6.0914 -0.8669)">
			<stop  offset="0" style="stop-color:#383838"/>
			<stop  offset="1" style="stop-color:#383838"/>
		</linearGradient>
		<circle style="fill:url(#SVGID_00000168111564407352773810000014237921080802584766_);" cx="25.9" cy="15.1" r="0.6"/>
	</g>
</g>
<g id="Layer_3">
	<g>
		<path class="st8" d="M10.5,18.6c0,0,0.1,0,0.1,0C10.6,18.6,10.5,18.6,10.5,18.6z"/>
		<g>
			<path class="st8" d="M14.5,19.2c1-2.2,1.2-2,1.2-2s-0.4,1.9,0.5,2.9c0.9,1.1,3-0.2,3-0.2s-1.6-0.1-2.1-1.6
				c-0.5-1.4-0.1-2.1-0.1-2.1c0.4-0.1,4.6-1.5,3.6-4.2c-0.5-1.4-2.5-1.9-4.7-1.4c-3.6,0.9-4.1,3.5-4.1,3.5s0.3-0.3,0.7,0.1
				c1.2,1.4,0.4,5-0.5,6.8c-0.9,1.7-2.2,3.1-2.2,3.1S12.9,22.8,14.5,19.2z M16.1,12.5c1.5-0.7,2.7-0.2,2.8,0.8
				c0.3,1.5-3.1,3.2-3.8,1.6C14.9,14.4,14.5,13.2,16.1,12.5z"/>
			<path class="st8" d="M10.4,18c1,1.6-0.2,5-0.2,5s4.2-4.4,1.1-8c-1.5-1.8,2.6-5.1,6.2-5c4.1,0.1,3.7,3.1,3.7,3.1
				c0.6-2.1-0.9-4.1-4.2-4.1c-2,0-5.3,0.7-8.3,3.8c-3.3,3.5-5.3,7.9-5.3,7.9S8.4,14.7,10.4,18z"/>
			<path class="st8" d="M12,28.1c-0.3-1.9,0.6-3.3,0.9-3.7c0,0-0.3,0.2-0.6,0.4c-0.2,0.1-0.4,0.1-0.5,0.1c-1.7-0.9-5,1.8-4.4,4.4
				c0.3,1.3,1.4,1.8,2.3,1.8c1.4-0.1,1.6-1.1,1.6-1.1S11,30.2,10.1,30C9.3,29.8,8.9,29,9,28.3c0.1-1.3,1.7-1.7,1.7-1.7
				s-0.8,2.5,1,3.5c0.9,0.5,1.5-0.1,1.5-0.1S12.3,29.7,12,28.1z"/>
			<path class="st8" d="M16.4,27c-0.4-1.8,0.7-3.1,0.7-3.1s-2.5,1.3-2,4c0.1,0.6-0.5,0.9-1-0.4c-0.6-1.7,0.5-3.3,0.5-3.3s-2,1-2,3
				c0,1.8,1,2.5,1.9,2.6c0.7,0.1,1.4-0.1,1.8-0.5c0.1,0,0.5,0.1,0.6,0.1c0.6,0,0.7-0.2,0.7-0.2S16.9,29.1,16.4,27z"/>
			<path class="st8" d="M6.9,27.3c0.7-1.5,1.3-2,1.7-2.7c2.8-5,1.1-7.2-1-6.5c-1.5,0.5-4.1,2.5-4.9,4.1c-0.9,1.6-0.6,2.7-0.6,2.7
				s0.8-1.3,1.4-0.5c0.7,0.9,2.6,3.3,0.9,5.2c-0.8,0.9-1.7-0.6-1.7-0.6c-0.1,0.2,0.2,2.5,2,3c0.9,0.2,1.9,0.3,2.3-0.7
				C7.4,30.2,6.2,28.7,6.9,27.3z M6.3,25.5c-0.4,0-0.7-0.7-1.2-1.3c-1.3-1.7,0.3-3.6,1.6-3.2C8.3,21.5,7.3,25.5,6.3,25.5z"/>
			<path class="st8" d="M22.9,26.8c-0.6-1.3,0-2.3,0.9-3.3c4.5-5,3.5-10.5,3.5-10.5s-0.5,4.1-2.4,6.5s-2.9,2.8-4.5,3.4
				c-0.7,0.3-3.3,1-3.2,3.6c0.1,3,3.5,3.5,5.5,2.6c1.9-0.8,1.8-2,1.8-2S23.6,28.1,22.9,26.8z M19.2,26.7c-0.5-1.7,2.2-2.8,2.2-2.8
				s-0.7,0.7-0.5,2.2c0.3,1.6,1.4,1.9,1.4,1.9S19.8,28.8,19.2,26.7z"/>
			<path class="st8" d="M25.4,16.3c0.6-1.7,0.2-3.7,0.2-3.7s-0.8,4.8-4.6,5.3c-3,0.4,0.8-4,0.8-4s-3.5,1.9-3.8,3.9
				c-0.2,1.7,1.9,1.8,1.9,1.8s-0.3,0.8-2,2.2c-1.7,1.4-6.4,2.1-6.4,2.1s4.8,0,7.8-1.4C22.3,21.1,24.5,18.9,25.4,16.3z"/>
		</g>
		<g>
			<path class="st8" d="M16.2,7.3c-5,0.3-8.8,3-8.6,6.1c0,0.1,0,0.2,0,0.3c0-3,3.8-5.5,8.6-5.8c4.8-0.3,8.9,1.8,9.4,4.7
				c0-0.1,0-0.2,0-0.3C25.4,9.2,21.2,7,16.2,7.3z"/>
			<path class="st8" d="M29.9,10.5c-0.2-2.6-2.5-4.8-5.9-6.1c-1.5-2.8-4.7-4.7-8.4-4.4C12,0.2,9.1,2.5,8.1,5.4C4.9,7,3,9.5,3.2,12.1
				c0.1,1.6,1,3,2.4,4.1c-1-1-1.6-2.2-1.7-3.5C3.5,8.6,9,4.8,16,4.4c7.1-0.4,13,2.7,13.4,6.9c0.1,1.3-0.3,2.5-1.2,3.6
				C29.4,13.6,30,12.1,29.9,10.5z M15.9,3.4C13.6,3.5,11.4,4,9.5,4.7c1.1-2.4,3.7-4.2,6.8-4.3c3.4-0.2,6.4,1.5,7.7,4.1
				C21.7,3.6,18.9,3.2,15.9,3.4z"/>
			<circle class="st8" cx="6.2" cy="10.5" r="0.6"/>
			<path class="st8" d="M16.7,5.8c0-0.3-0.3-0.6-0.6-0.6c-0.3,0-0.6,0.3-0.6,0.6s0.3,0.6,0.6,0.6C16.4,6.3,16.6,6.1,16.7,5.8z"/>
			<circle class="st8" cx="26.6" cy="9.4" r="0.6"/>
		</g>
	</g>
</g>
</svg>
