<?xml version="1.0" encoding="utf-8"?>
<!-- Generator: Adobe Illustrator 27.9.3, SVG Export Plug-In . SVG Version: 9.03 Build 53313)  -->
<svg version="1.1" id="Layer_1" xmlns="http://www.w3.org/2000/svg" xmlns:xlink="http://www.w3.org/1999/xlink" x="0px" y="0px"
	 viewBox="0 0 32 32" style="enable-background:new 0 0 32 32;" xml:space="preserve">
<style type="text/css">
	.st0{display:none;}
	.st1{fill:#027CB2;}
</style>
<g id="Layer_1_00000103955927442792354250000000328351670360540597_" class="st0">
</g>
<g id="Layer_2_00000087387783497270688580000001046479328946137512_" class="st0">
</g>
<g>
	<path class="st1" d="M18.9,18.8c0.4,0.9,1.8,0.7,1.8,0.7s-0.4,1.2-2.2,2.5c-1.4,1-4.1,1.7-4.2,1.7c0.3,0,1.8-0.1,3-0.5
		c1.8-0.5,3.2-1.1,4.5-1.9c1.3-0.9,2.3-1.9,3-3.1c0.9-1.4,1.2-2.6,1.2-4.3c0-0.1,0-0.2,0-0.3c-0.1,0.4-0.8,2.5-2,3.4
		c-1.1,0.8-3.2,1.6-3.7,0.6c-0.5-1.1,1-2.7,1.3-3.1C21.1,14.8,18,17,18.9,18.8z"/>
	<path class="st1" d="M29.4,9.7c-0.4-2.6-2.8-4.7-6.3-5.7c-1.6-2.7-5-4.4-8.7-3.9C10.8,0.5,8,2.9,7.2,6c-3.1,1.9-4.9,4.4-4.5,7
		c0.2,1.6,1.2,2.9,2.7,4c-1.1-0.9-1.8-2.1-2-3.4C2.8,9.4,8,5.3,15.1,4.5c7.1-0.9,13.3,1.8,13.9,6c0.2,1.3-0.2,2.5-1,3.7
		C29.1,12.8,29.7,11.3,29.4,9.7z M14.9,3.4c-2.4,0.3-4.5,0.9-6.4,1.8c1-2.5,3.4-4.4,6.5-4.8c3.4-0.4,6.5,1.1,8,3.6
		C20.8,3.3,17.9,3,14.9,3.4z"/>
	<circle class="st1" cx="5.6" cy="10.9" r="0.6"/>
	<path class="st1" d="M15.9,6.1c0-0.3-0.3-0.6-0.6-0.6c-0.3,0-0.6,0.3-0.6,0.6c0,0.3,0.3,0.6,0.6,0.6C15.6,6.6,15.9,6.4,15.9,6.1z"
		/>
	<circle class="st1" cx="25.2" cy="7.8" r="0.6"/>
	<path class="st1" d="M13.2,19.7c-0.2,0.6-0.4,1.2-0.7,1.6c-0.5,1-1.2,1.8-1.6,2.4c0.3-0.2,2.3-1.4,3.9-4.4c0.4-0.8,1-2.2,1.3-2.2
		c0.1,0-0.1,0.7-0.1,1.3c0,1.4,0.8,2.1,1.7,2.1c0.5,0,1-0.2,1.4-0.4c-0.1,0-0.3-0.1-0.4-0.1c-0.3-0.1-0.5-0.3-0.7-0.5
		c-0.3-0.3-0.5-0.6-0.6-0.9c-0.5-1.4,0-2.4,0-2.4c0,0,0.7-0.2,1.6-0.6c0.4-0.2,0.8-0.5,1.1-0.7c0.4-0.3,0.6-0.6,0.8-1
		c0.1-0.2,0.2-0.5,0.2-0.8c0-0.3,0-0.6-0.1-0.9c-0.1-0.2-0.2-0.5-0.4-0.6c-0.2-0.2-0.4-0.3-0.6-0.5c-0.5-0.3-1.2-0.4-1.9-0.4
		c-0.5,0-1,0.1-1.6,0.2c-0.8,0.2-1.5,0.5-2.1,0.9c-0.5,0.3-0.9,0.7-1.2,1.1c-0.3,0.4-0.5,0.8-0.6,1.1c0,0,0,0,0,0
		c0.2,0,0.4,0.1,0.6,0.3c0.3,0.4,0.5,0.9,0.6,1.5c0.1,0.6,0.1,1.2,0,1.9C13.6,18.3,13.4,19,13.2,19.7z M15.1,13.6
		c0.2-1.1,1.8-1.8,2.6-1.7c0.9,0,1.6,0.5,1.7,1.2c0.1,0.4-0.1,0.8-0.4,1.3c-0.6,0.7-1.6,1.3-2.4,1.2c-0.6,0-1-0.2-1.3-0.7
		C15.1,14.3,15,13.9,15.1,13.6z"/>
	<path class="st1" d="M12.2,28.3c-0.5-1.5,0.4-3,0.5-3.2c0,0-0.1,0.1-0.4,0.1c-0.4,0-0.4-0.1-0.9-0.1c-0.5,0-0.9,0.1-1.4,0.4
		c-1.2,0.6-1.7,1.6-2,2.4c-0.2,0.5-0.1,1,0,1.5c0.1,0.5,0.4,1,0.8,1.3c0.3,0.3,0.7,0.4,1.2,0.4c0.4,0,0.7-0.1,0.9-0.2
		c0.3-0.2,0.5-0.4,0.5-0.5c-0.1,0-0.2,0-0.3,0c-0.2,0-1.3-0.1-1.7-0.9c-0.2-0.4-0.3-0.8-0.2-1.2c0.1-0.6,0.4-1.1,1-1.5
		c0.6-0.4,1.1-0.4,1.1-0.4s-0.4,0.7-0.2,1.6c0.4,1.9,1.6,2.2,1.8,2.2c0,0,0,0,0,0c0.2,0,0.3,0,0.5-0.1
		C13.1,30.1,12.6,29.8,12.2,28.3z"/>
	<path class="st1" d="M16.6,27.2c-0.1-0.4-0.1-0.9-0.1-1.3c0-0.3,0.1-0.7,0.3-1c0-0.1,0.1-0.2,0.1-0.2c-0.6,0.4-1.1,1.1-1.2,1.7
		c-0.2,0.6-0.2,1.1-0.1,1.7c0,0.2,0,0.4-0.1,0.6c-0.1,0.1-0.2,0.2-0.3,0.2c0,0,0,0,0,0c-0.1,0-0.3,0-0.5-0.3
		c-0.2-0.2-0.3-0.4-0.4-0.7c-0.1-0.4-0.2-0.8-0.2-1.3c0-0.4,0.1-0.7,0.2-1.1c0.1-0.2,0.1-0.3,0.2-0.4c-0.1,0.1-0.7,0.6-1.1,1.3
		c-0.2,0.4-0.4,0.8-0.4,1.2c0,0.8,0.2,1.4,0.6,1.8c0.3,0.4,0.7,0.6,1.6,0.7c1.1-0.1,1.4-0.5,1.4-0.5s0.6,0.2,1,0
		C17.4,29.2,16.9,28.6,16.6,27.2z"/>
	<path class="st1" d="M7.1,27.3c0.4-1,0.8-1.5,1.2-1.9c0.6-0.7,1.8-2.2,1.9-4.4c0.1-2-1-3-2.4-2.6C7,18.6,6,19.1,5.2,19.8
		c-1,0.8-1.5,1.4-2,2.5c-0.5,1-0.6,2.1-0.6,2.1c0,0,0.4-0.5,0.8-0.5c0.2,0,0.7,0.3,0.9,0.6c0.2,0.3,0.7,1,1.1,2
		c0.2,0.5,0.3,1.1,0.2,1.6c0,0.6-0.3,1.1-0.7,1.6c-0.2,0.2-0.4,0.4-0.7,0.4c-0.3,0-0.6-0.2-0.9-0.5c0,0,0,0,0,0
		c0,0.2,0.2,1.1,0.8,1.7S5.8,32,6.1,32c0,0,0,0,0,0c0.7,0,1-0.2,1.1-0.7s0-0.9-0.1-1.5C6.9,29.1,6.8,28.1,7.1,27.3z M6.6,25.8
		c-0.4,0-0.7-0.4-1-0.9c-0.1-0.2-0.2-0.3-0.3-0.5c-0.3-0.4-0.5-0.8-0.5-1.3c0-0.4,0-0.8,0.2-1.1c0.2-0.3,0.4-0.6,0.7-0.8
		C6,21,6.3,20.9,6.6,20.9c0.1,0,0.3,0,0.4,0.1c0.4,0.1,0.7,0.5,0.9,1C8.1,22.5,8,23.1,8,23.5c-0.1,0.6-0.3,1.1-0.5,1.6
		C7.2,25.6,6.9,25.8,6.6,25.8L6.6,25.8z"/>
	<path class="st1" d="M26.6,17.6c-0.4,0.8-0.8,1.5-1.2,2.1c-1.7,2.2-3,2.8-4.6,3.5c-0.1,0-3.1,0.8-3.1,3.4c0,0.7,0.1,1.4,1.1,2.2
		c0.9,0.7,2.8,0.8,4.1,0.3c1.3-0.4,1.6-1.4,1.6-1.4c-0.1,0.1-0.6,0.2-0.9-0.1c-0.2-0.1-0.3-0.3-0.5-0.6c-0.2-0.3-0.3-0.7-0.3-1
		c0-0.3,0-0.6,0.1-0.9c0.2-0.6,0.7-1.2,1.1-1.6c1-1.1,1.8-2.4,2.4-3.7c0.5-1.1,0.8-2.2,1-3.3c0.1-0.8,0.2-1.4,0.2-1.9
		c-0.1,0.3-0.1,0.6-0.2,1C27.1,16.2,26.9,17,26.6,17.6z M22.9,28c0,0-0.1,0.4-1.3,0.4c-0.9,0-1.8-0.3-2.2-1.5c-0.4-1.2,0.6-2,1-2.3
		c0.6-0.5,1.8-0.9,1.8-0.9c0,0-0.8,1.5-0.7,2.5C21.7,27.9,22.9,28,22.9,28z"/>
	<path class="st1" d="M9.1,16.8c1.7,0.1,2.2,1.4,2.3,2.7c0.1,0.9-0.2,2.1-0.3,2.4c0.5-0.7,1.5-2.6,1.4-4.1c0-1-0.4-1.9-1.1-2.7
		c-0.7-0.8-0.6-1.6-0.1-2.3c0.6-0.7,2.2-2.3,4.3-2.8c2.9-0.7,5.2,0.6,5.5,1c0,0,0,0,0,0c-0.8-1.2-2.4-1.8-3.9-1.9
		c-2.5-0.1-5.9,1.5-8.3,3.7c-2.8,2.6-4.1,5.7-4.4,6.4C5.1,18.7,7.3,16.7,9.1,16.8z"/>
</g>
</svg>
