<?xml version="1.0" encoding="utf-8"?>
<!-- Generator: Adobe Illustrator 27.9.3, SVG Export Plug-In . SVG Version: 9.03 Build 53313)  -->
<svg version="1.1" id="Layer_1" xmlns="http://www.w3.org/2000/svg" xmlns:xlink="http://www.w3.org/1999/xlink" x="0px" y="0px"
	 viewBox="0 0 3840 3840" style="enable-background:new 0 0 3840 3840;" xml:space="preserve">
<style type="text/css">
	.st0{fill:#F5F5F5;}
</style>
<path class="st0" d="M3119.4,1638.2c-16.3,52.3-91.5,294.8-245.7,410.2c-128,95.8-381.7,197.9-445.7,72.7
	c-66-129.1,116.7-326.9,156.6-372.8c-55.2,26.6-428.6,285.2-319.7,508c51.1,104.5,212.1,79.9,212.1,79.9s-42.7,146.3-258.6,302.3
	c-168.4,121.6-493.3,201.2-505.1,204.1c38,3.1,212.5-12.5,361.6-56c213.9-62.5,386.7-131.1,536.6-233.3
	c160.4-109.4,270.9-226.5,363.8-370.2c107.7-166.6,145.1-312.6,145.1-514.3C3120.4,1658.1,3119.9,1647.9,3119.4,1638.2z
	 M2967,2177.6c-96.9,149.8-208.2,263.1-361,367.3c-71.9,49-151.2,91.7-242.6,130.6c-82.1,35-177.4,68.1-291.2,101.4
	c-91.6,26.8-193.1,42.9-266,50.6c112.8-33.2,302.1-97.2,418.1-180.9c62.2-44.9,149.7-118.2,212.8-212.2
	c38.1-56.7,49.2-93.9,49.6-95.4l4.4-15l-15.5,2.4c-0.2,0-16.1,2.4-39,2.4c-22.9,0-56.9-2.4-88.6-14c-35-12.8-59.9-33.9-74.1-62.9
	c-23.1-47.2-24.8-99.9-5.2-156.6c30.6-88.5,107.4-170.6,166.3-223.9c35.2-31.8,70.3-59,98.6-79.1c-25.6,31.2-56.4,72-81.6,116.3
	c-50.3,88.4-61.3,161.4-32.9,217c11.2,21.9,28.3,38.5,50.7,49.1c20.2,9.6,44.8,14.4,73.1,14.4c62.2,0,130.1-22.9,176.1-42.2
	c57.1-23.9,115.7-56.9,160.7-90.6c66.3-49.6,125.9-127.6,177.2-231.8c23.4-47.5,40.9-92.1,53.2-126.6
	C3106.5,1888.9,3065.3,2025.5,2967,2177.6z"/>
<path class="st0" d="M3531,1165.6c-44-313.2-336.7-560-753-686.1C2580.8,152.7,2172.3-46.3,1734.1,7.4
	C1296.1,61,956.4,351.6,856,714.8c-367.9,222.2-582.9,531.4-538.8,844.7c26.3,187.4,141.6,350.9,319.1,479.1
	c-130.2-113.1-214.2-249.7-235.7-403.1C329.9,1131.6,960,638.8,1807.9,534.9c847.9-103.9,1592.7,220.3,1663.4,724.2
	c21.5,153.3-21.9,305.6-116.5,446.3C3491,1538.8,3557.2,1352.9,3531,1165.6z M2775,478.6c-284.3-85.5-625.7-114.9-984.9-70.9
	c-283,34.7-542.9,110.8-763.1,215.4c117.7-297.9,413.5-528.7,786-574.3C2215.4-0.6,2590.8,180.3,2775,478.6z M3481.3,1257.7
	c-15.4-109.6-62.2-212.8-139.1-306.9c-74-90.6-174-170.4-297.3-237.4C2923,647.1,2782.2,595.5,2626.4,560
	c-158.7-36.2-328.3-54.5-504.1-54.5c-104.1,0-210.2,6.6-315.6,19.5c-138.1,16.9-273.5,44.6-402.5,82.2
	c-125.1,36.5-244.1,82.2-353.6,136.1c-216.4,106.4-392.1,242.5-508.1,393.6c-60.2,78.5-103.8,160.2-129.6,243
	c-26.7,85.6-34.2,172.1-22.2,257.1c10.7,76.5,37.1,150.7,78.4,220.4c10.3,17.5,21.6,34.7,33.8,51.6c-28-30-52.9-61.1-74.6-93.2
	c-54.5-80.6-88.5-167.3-101.2-257.5c-10.6-75.6-6-152.6,13.6-229c19.2-74.4,52.7-148.7,99.7-220.6
	c46.3-70.9,105.8-139.7,176.7-204.6c70.7-64.7,152.8-125.4,244-180.5l3.4-2.1l1.1-3.8c24.6-88.9,63.8-174.2,116.7-253.3
	c52.4-78.5,117.2-149.6,192.5-211.4C1331.4,124.4,1525.2,43,1735.3,17.3c46.8-5.7,94.2-8.6,141-8.6c149.1,0,295.8,29.3,430,85.4
	c-113-41.2-235.4-63.4-361.5-63.4c-44.1,0-88.9,2.7-133,8.2c-181.7,22.3-352.3,89.5-493.3,194.5
	c-137.4,102.2-241.4,235.7-300.8,386.1l-9.3,23.6l22.9-10.9c110.9-52.7,230.8-97.6,356.5-133.4c129.5-36.9,265.3-64.2,403.6-81.2
	c109.4-13.4,219.7-20.2,327.7-20.2c116.4,0,231.6,7.9,342.1,23.4c108.1,15.2,212.5,37.8,310.3,67.2l0,0l3.7,1.1
	c103.3,31.3,199.3,70.2,285.3,115.6c86.4,45.6,162.8,97.8,227,155.2c65.3,58.2,118.2,121.9,157.2,189.2
	c40.1,69.1,65.8,142.4,76.4,218c12.6,90.2,3.6,182.1-26.8,273.1c-12.3,36.9-28.2,73.6-47.4,109.9c7.5-20.1,14-40.3,19.4-60.4
	C3487,1412.3,3492,1334.3,3481.3,1257.7z"/>
<path class="st0" d="M736.4,1310.4c-1.4-38.4-33.7-68.3-72.1-66.8c-38.4,1.4-68.3,33.7-66.8,72.1c1.4,38.4,33.7,68.3,72.1,66.8
	C708,1381,737.9,1348.7,736.4,1310.4z M710.6,1353.4c-10.8,11.7-25.5,18.4-41.4,19c-0.8,0-1.5,0-2.3,0c0,0,0,0,0,0
	c-32.1,0-58.2-25.2-59.4-57.3c-0.6-15.9,5-31,15.8-42.7c10.8-11.7,25.5-18.4,41.4-19c0.8,0,1.5,0,2.3,0c32.1,0,58.2,25.2,59.4,57.3
	C727,1326.6,721.4,1341.8,710.6,1353.4z"/>
<path class="st0" d="M1902.2,725.5c-0.9-38.4-32.8-68.6-71.2-67.7c-38.4,0.9-68.6,32.8-67.7,71.2c0.9,38.4,32.8,68.6,71.2,67.7
	C1872.8,795.7,1903.2,763.8,1902.2,725.5z M1875.9,768.2c-11,11.5-25.7,18.1-41.6,18.5c-0.5,0-1,0-1.5,0c0,0,0,0,0,0
	c-15.6,0-30.3-6-41.5-16.9c-11.2-10.9-17.6-25.5-18-41.1c-0.8-32.8,25.2-60.1,57.9-60.9c0.5,0,1,0,1.5,0c15.6,0,30.3,6,41.5,16.9
	c11.2,10.9,17.6,25.5,18,41.1C1892.6,741.6,1886.8,756.7,1875.9,768.2z"/>
<path class="st0" d="M3086.7,933.9c-1.4-38.4-33.7-68.3-72.1-66.8c-38.4,1.4-68.3,33.7-66.8,72.1c1.4,38.4,33.7,68.3,72.1,66.8
	S3088.2,972.2,3086.7,933.9z M3060.9,976.9c-10.8,11.7-25.5,18.4-41.4,19c-0.8,0-1.5,0-2.3,0c0,0,0,0,0,0
	c-32.1,0-58.2-25.2-59.4-57.3c-1.2-32.8,24.4-60.5,57.2-61.7c0.8,0,1.5,0,2.3,0c32.1,0,58.2,25.2,59.4,57.3
	C3077.3,950.1,3071.7,965.3,3060.9,976.9z"/>
<g>
	<path class="st0" d="M2123.8,1407.6c-3.2-0.2-6.5-0.3-9.9-0.3c-54.5,0-125.4,23-185.1,60c-69.8,43.3-114.5,99-125.9,157
		c-8.8,44.7-0.1,94.6,26.4,152.3c14.3,31.1,34.4,53.7,61.6,69.1c24.9,14.1,56.5,22.4,96.8,25.5c5.2,0.4,10.6,0.6,16,0.6
		c47.2,0,100.2-15.1,153.4-43.6c49.8-26.7,96-63.6,130.1-103.9c44.8-53,63.8-108.6,55-160.8
		C2326.4,1470.3,2238.7,1407.7,2123.8,1407.6z M2279.5,1717.9c-70.2,83.1-192.9,150.9-291,143.4c-74.2-5.7-122.8-29.4-150.1-88.9
		c-24.6-53.6-34.3-102.1-25.6-146.3c24.7-126.5,210.6-214.3,310.8-208.6c110,0,193.9,59.3,208.8,147.6
		C2340.6,1614.4,2322.3,1667.2,2279.5,1717.9z"/>
	<path class="st0" d="M2513.3,1466.9c-10.1-28.4-26.1-54.2-47.4-76.8c-20.9-22.2-47-41.3-77.7-56.9c-61.4-31.3-140-47.8-227.3-47.8
		c-61.1,0-124.9,8-189.8,23.7c-97.5,23.6-183.7,59.8-256.1,107.6c-57.7,38.1-107,83.5-146.3,135.2c-38.8,50.9-60.3,98-71.6,128.8
		c1,0,1.9-0.1,2.9-0.1c23.9,0,46.5,11.7,67.1,34.7c37.8,42.2,62.5,102.3,73.5,178.7c9.6,66.3,8.7,143.4-2.5,229.2
		c-10,76.2-28.1,157.5-52.6,235.1c-23.3,74.1-51.3,141.8-80.8,195.7c-63.9,116.5-138.5,221.6-192.1,291.8
		c30.8-21,272.9-164.2,468.6-534.1c49.7-94,119.9-265.2,152-259.5c13.7,2.4-10,78.1-12.2,156.4c-4.6,163.3,92.1,249.1,204.7,251.8
		c60.1,1.4,124.6-23.5,168.2-43.2c-14.4-4.1-30.5-9.6-47.3-17.1c-34-15.2-64.1-35.4-89.3-60.1c-31.6-31-55.4-68.9-71-112.9
		c-60.5-170.9,0.9-282.8,0.9-282.8c0.9-0.2,87.6-24.7,187.5-77.9c50.2-26.8,94-55.8,130.1-86.2c43.6-36.7,76.2-75.5,96.9-115.4
		c15.4-29.7,24.4-60.5,26.8-91.7C2531.5,1538.7,2526.3,1503,2513.3,1466.9z M2518.8,1572.1c-2.3,29.8-11,59.4-25.7,87.9
		c-20.1,38.8-51.8,76.6-94.4,112.4c-35.6,30-78.8,58.6-128.4,85c-98.5,52.5-184.6,76.9-185.5,77.1l-4.1,1.1l-2,3.7
		c-0.7,1.2-16.3,30.1-24.2,80.6c-7.3,46.2-9.3,120.1,22.7,210.4c16.1,45.4,40.8,84.6,73.4,116.7c26,25.6,57.1,46.5,92.2,62.1
		c7.5,3.3,15.2,6.4,23,9.3c-52.3,21.5-96.6,31.9-134.9,31.9c-1.6,0-3.1,0-4.7-0.1c-52.8-1.2-100.9-21.9-135.3-58.1
		c-41.2-43.4-61.9-106.8-59.7-183.4c1-35.2,6.4-69.9,10.8-97.8c6.9-43.8,10.3-65.7-6.8-68.8c-1.1-0.2-2.2-0.3-3.3-0.3
		c-27.3,0-58.1,57.7-117.2,180.1c-15,31-29.1,60.4-42.1,84.8c-77.5,146.5-171.2,274.4-278.6,380.2c-55.4,54.6-103.6,92.5-137.7,117
		c47.9-65.8,106.1-152,157.4-245.4c29.8-54.4,58.1-122.7,81.6-197.5c24.6-78.2,42.9-160,52.9-236.8c11.3-86.7,12.2-164.7,2.5-231.9
		c-11.3-78.4-36.9-140.3-76-184c-19.4-21.7-40.6-34.2-63.2-37.3c12-29.5,32.2-70.1,65.3-113.5c38.7-50.7,87.1-95.5,143.9-132.9
		c71.5-47.1,156.6-82.9,252.9-106.2c64-15.5,127.1-23.4,187.4-23.4c85.8,0,162.8,16.2,222.8,46.7c29.6,15.1,54.8,33.6,74.9,54.9
		c20.3,21.6,35.6,46.3,45.3,73.3C2516.4,1505.1,2521.4,1539.3,2518.8,1572.1z"/>
</g>
<path class="st0" d="M1460.3,3394.2c-55.1-185.8,51.1-355.8,64.7-380.6c-2,0.9-16.8,8.5-53.2,8.6c-43,0.1-44.2-17.5-109.8-17.1
	c-56.7,0.3-112.8,16.4-171.4,48c-140.9,76-205.3,186.5-236.7,292.2c-18.2,61.3-15.2,124-1.9,181.1c15,64.2,48.1,116.9,95.7,152.4
	c41.4,30.8,89.9,47.8,143.8,47.8s83.4-10.5,109.3-23.5c40.1-20.1,59.5-49.6,62.8-54.9c-10.4,1.8-22.5,3-36.6,3
	c-24.7,0-153.7-6.4-204.5-103.3c-22.2-42.3-34.9-92.1-29.9-139.5c7.7-72.6,51.9-133.8,120-181.4c68.5-47.9,135.4-54,135.4-54
	s-51.5,84.2-29.1,196.2c45.8,229.1,186.2,258.2,212.1,258.2c0,0,0,0,0,0c21.9,0,40.6-5,54.9-10.7
	C1575.6,3609.8,1513.2,3572.7,1460.3,3394.2z M1531,3617.3c-11.7,0-51.1-7.4-92.3-41c-24-19.5-44.9-44.8-62.3-75.2
	c-21.3-37.2-37.4-82.3-47.7-134c-11.1-55.6-3-103.9,5.8-134.7c9.6-33.5,22-54.1,22.1-54.3l10.3-17l-19.8,1.8
	c-2.8,0.3-70.4,6.9-140.2,55.7c-35.8,25-64.4,53.2-85.2,83.9c-22,32.5-35.1,67.7-39,104.6c-4.9,46.2,6.1,97.8,31,145.1
	c55.4,105.6,197.4,108.7,213.4,108.7c4.8,0,9.5-0.1,14.1-0.4c-9.7,10.4-24.4,23.2-44.7,33.4c-26.9,13.4-55,22.4-104.9,22.4
	c-50.7,0-97-15.4-137.8-45.8c-45.7-34.1-77.5-84.8-91.9-146.6c-14.8-63.3-14.2-122.5,1.7-176c17.5-59,42.3-109.4,75.7-154.1
	c39.8-53.3,92.4-97.8,156.1-132.1c57.9-31.2,112.4-46.5,166.7-46.8c0.6,0,1.3,0,1.9,0c33.3,0,48.2,4.8,62.7,9.4
	c12.4,4,24.2,7.7,44.7,7.7l0.5,0c12,0,23.1-0.9,32.8-2.5c-86.4,160.6-77.4,287.9-53.8,367.3c22.1,74.5,48.4,133.6,78.3,175.9
	c13.8,19.6,26.2,32.2,35.5,40.2C1553.4,3615.9,1542.2,3617.3,1531,3617.3z"/>
<path class="st0" d="M1993.8,3258.6c-11.5-51.3-14.4-103.5-8.4-155.3c4.8-41.4,15.1-82.5,30.7-122.2c3.9-10,8-19.4,12.1-28.2
	c-68.1,52-126.3,137.5-148.3,206.2c-22.9,71.8-26,130.8-13.9,201.3c4.7,27.2-0.5,52.1-14.2,68.4c-9.9,11.7-23.5,18.1-38.3,18.1
	c0,0,0,0,0,0c-13.6,0-34.6-5.5-57.2-31.5c-18.1-20.8-34.1-51.1-47.5-89.9c-16.6-48.1-23.3-99.8-19.9-153.5
	c2.7-42.7,11.7-86.7,26.8-130.9c6.7-19.6,14-37.4,21.1-53.1c-15.1,11.8-87.2,66.5-126.5,150.6c-22.4,48.1-42.3,96.8-43.6,149.7
	c-2.2,92.1,26.4,167.4,73.4,220.7c37.3,42.4,82,77,188.5,82.3c126.5-7.1,163.9-65.5,163.9-65.5s70.7,29.1,125.2,3.2
	C2083.9,3499.3,2031.9,3427.8,1993.8,3258.6z M2065.2,3529.8c-36.4,0-68.7-13.1-69-13.2l-7.7-3.1l-4.5,7
	c-0.1,0.1-9.2,13.6-32.7,27.8c-39.5,23.8-88.5,31.2-122.9,33.1c-47.5-2.4-85.4-11-115.7-26.2c-29.7-14.9-49.7-35-65.3-52.7
	c-48.4-55-72.9-128.9-70.9-213.9c1.2-52.8,22.7-102.9,42.6-145.7c14.4-30.8,41.7-75,92.6-121.1c-2,5.4-3.9,10.8-5.8,16.1
	c-15.4,45.1-24.6,90-27.3,133.5c-3.5,55.1,3.4,108.1,20.5,157.4c13.9,40.1,30.5,71.4,49.5,93.2c25.1,28.9,49.1,34.9,64.8,34.9
	c17.9,0,34.2-7.7,46-21.7c15.6-18.5,21.6-46.4,16.4-76.5c-12.2-71.1-8.3-128,13.6-196.6c18.7-58.6,62.9-125.7,113.3-174.2
	c-13.7,37.2-22.9,75.6-27.3,114.1c-6.1,52.9-3.2,106.2,8.6,158.6c34.1,151.6,79.6,227,115.2,264.5
	C2089,3528.3,2077.6,3529.8,2065.2,3529.8z"/>
<g>
	<path class="st0" d="M931.8,2204.5c-88.6,23.1-213.8,89.1-312.4,169c-119.6,97-176.2,162.4-244.4,300.7
		c-58.7,119.1-75.1,247.2-75.1,257.1c1.7-1.9,45.6-55.3,101.2-58.6c27.5-1.6,82.3,40.6,108.9,72.1c26.6,31.5,86.5,125.3,129.4,242
		c24.3,66,34,129,29.1,187.3c-6,70.1-33.3,134.5-81.2,191.5c-23.5,28-50.6,42.1-80.4,42.1c-35.2,0-71.7-19.8-108.6-58.8
		c-0.1-0.1-0.2-0.2-0.4-0.4c5.2,27.5,19.4,129.7,98.9,204.9c79.5,75.1,197.7,86.6,229.7,86.6c0,0,0,0,0,0
		c79.3,0,122.5-27.2,137.4-83s0.7-108.3-16.8-174.3c-24.8-93.8-34.4-214.4-2-303.6c42.5-117.1,97.3-180,144.1-232.7
		c73.6-82.8,220.6-269.8,233.1-529.6C1233.7,2281,1104.4,2159.4,931.8,2204.5z M1212.3,2516.4c-5.4,111.4-36.5,221.4-92.5,327
		c-36.4,68.6-81.5,132.8-138.1,196.5c-45.5,51.2-102.1,114.9-146,235.9c-15.6,42.9-22.6,94.6-21,153.7
		c1.4,50.9,9.3,104.7,22.8,155.8l0.6,2.4c16.9,63.8,30.2,114.2,16.1,166.8c-6.9,25.7-20,44.2-40.1,56.5
		c-21.1,12.8-49.7,19.1-87.6,19.1h0c-4.3,0-43.4-0.4-94.3-14.7c-52.4-14.8-95.6-38-128.5-69.1c-58.7-55.5-80.6-125.7-90-168.7
		c31.3,26.8,62.6,40.3,93.2,40.3c32.9,0,62.6-15.4,88.1-45.7c49.3-58.5,77.3-124.8,83.5-197c5.1-59.8-4.9-124.3-29.6-191.6
		c-42.6-115.8-103.1-211.7-131.2-245c-26.2-30.9-82.1-75.7-115-75.7c-0.7,0-1.5,0-2.2,0.1c-11.6,0.7-47.9,5.7-86.9,40.2
		c2.4-14.7,6.2-34.4,11.6-57.1c10.1-42.3,28.4-105.6,58.7-167.2c34.7-70.5,65.1-119.5,101.7-163.9c34.3-41.8,76.2-81.7,140.1-133.4
		c94.1-76.4,218.2-143.5,308.6-167.1c22.7-5.9,45-8.9,66.3-8.9c54.8,0,103,20.1,139.2,58.1c25.3,26.5,44.4,61.1,56.8,102.6
		C1209.8,2409.8,1215,2460.4,1212.3,2516.4z"/>
	<path class="st0" d="M840.7,2501.1c-15.7-4.5-32-6.8-48.6-6.8c-40.8,0-82.1,13.7-119.5,39.5c-36.3,25.1-66.4,59.8-87,100.5
		c-22.5,44.4-32.4,93.9-28.7,143.1c4.2,55.3,24.8,108.6,61.4,158.5c15,20.4,28.3,41.1,41.2,61.1c19,29.5,36.9,57.4,56.8,78.1
		c23.1,24,46.8,35.7,72.5,35.7l0.4,0c41.9-0.2,81.9-34.3,115.5-98.6c27.6-52.8,49-123.1,58.7-192.7c7-50.7,11.3-125.3-8.5-192.2
		C935.4,2560.7,895.8,2517.1,840.7,2501.1z M953.6,2818c-9.5,68.6-30.5,137.6-57.6,189.5c-31.8,60.8-68.7,93-106.6,93.2l-0.4,0
		c-50.6,0-83.2-50.6-120.9-109.2c-13-20.2-26.4-41-41.6-61.7C591,2881.6,571,2830,567,2776.6c-3.6-47.4,6-95,27.7-137.8
		c19.8-39.2,48.8-72.7,83.7-96.8c35.7-24.7,75.1-37.7,113.8-37.7c15.6,0,31,2.2,45.8,6.4c51.7,15,88.9,56.2,107.5,119.3
		C964.7,2695.2,960.5,2768.2,953.6,2818z"/>
</g>
<g>
	<path class="st0" d="M2622.6,3258.7c-17.7-33.4-29.1-74.3-33.8-121.5c-11.7-116.5,87-287.9,88-289.6l14.6-25.1l-26.9,10.8
		c-0.2,0.1-0.7,0.3-1.5,0.5c-35.2,13-155.2,59.8-222.7,113.5l-3.1,2.4c-24.5,19.4-65.4,51.9-95.1,98.3
		c-36.6,57.2-44.5,118.2-23.6,181.4c22.7,68.7,60.7,119.7,112.7,151.8c43.5,26.8,96.8,40.3,158.6,40.3
		c142.8,0,164.4-46.9,166.4-52.2l4.6-12.3l-13-1.2c-0.3,0-35-3.7-71.7-32.1C2654.6,3307,2636.7,3285.1,2622.6,3258.7z
		 M2589.9,3411.5c-107.4,0-214.4-41.8-261.9-185.3s73.3-235.2,118.5-271.2c75.5-60.1,218.2-111.2,221.7-112.6
		c0,0-101.5,174.5-89.3,295.6c21.6,214.3,168,227.6,168,227.6S2729.9,3411.5,2589.9,3411.5z"/>
	<path class="st0" d="M3282.2,1854.8c-25.8,94.5-56.5,182.1-91.1,260.4c-43.5,98.4-95.9,180.4-148.6,249.4
		c-199.1,260.4-357.8,340.4-553.2,419.6c-9.2,3.7-375.8,101.1-375.7,409.1c0,84.5,15.6,167.3,136.1,260.7
		c109.7,84.9,333.2,93.5,495.2,37.3c154.2-53.6,193.4-165.1,196.6-172.6c-14.8,7.8-68.7,22.1-112.7-8.5
		c-21.3-14.8-39.5-40.5-56.3-73.3c-20-39.2-31.2-79-33.3-118.4c-1.9-36.1,3.8-73.2,16.9-110.2c27-76,82.3-143.8,127.5-194.4
		c121.4-135.9,218.9-286,289.8-446c56.7-128.1,96.6-262.8,118.6-400.5c14.5-91.1,19.1-171,19.5-232.4
		C3303.6,1771.3,3294,1811.9,3282.2,1854.8z M3282.1,1965.8c-21.8,136.8-61.5,270.8-117.8,398c-70.4,159.1-167.4,308.2-288.1,443.4
		c-45.8,51.3-101.9,120.1-129.5,197.7c-13.6,38.2-19.5,76.6-17.5,114.1c2.2,40.8,13.7,82,34.3,122.4c18.9,37.1,38.4,62.3,59.5,77
		c19.3,13.4,43,20.5,68.5,20.5c11.8,0,22.4-1.5,31.2-3.4c-11,21-24.1,38.3-34.3,50c-37,42.9-86.5,75.3-147,96.3
		c-65.3,22.7-143.2,35.2-219.4,35.2c-111.1,0-208.2-25.8-266.4-70.9c-54.1-41.9-90.2-84.3-110.2-129.8c-19.4-43.9-22-86.8-22-123
		c0-65.2,17-125.8,50.7-180c27.6-44.4,66.4-85,115.5-120.7c56.5-41.1,125.2-74.9,198.5-97.6c3-0.9,4-1.3,4.8-1.6
		c107.5-43.6,191.3-82.7,277.2-142.9c97.5-68.4,186.5-157.3,280.2-279.9c61.6-80.6,110.6-162.8,149.8-251.5
		c34.8-78.7,65.7-166.8,91.6-261.8c1.8-6.6,3.6-13.3,5.4-20C3294,1880.2,3289,1923.1,3282.1,1965.8z"/>
</g>
<path class="st0" d="M2081,1095.2c-304.3-13.4-703.8,175-994,447.6c-337.5,317-497.4,681.5-531,769.5
	c59.2-71.8,313.2-306.3,532.2-298.3c198.1,7.2,261.1,168.2,277.7,327.1c11.4,109.1-25.8,256.6-32.2,284
	c54-78.2,176.7-306.6,168.6-492.2c-5.1-116.5-42.2-229.8-128.9-319.6c-89.7-92.9-72.3-188.6-6.7-273.5
	c68.8-89,265.2-279.9,512.9-341.8c354.1-88.5,624.7,71.9,661.7,115.7c1.1,1.3,2.2,2.6,3.3,3.9
	C2447.3,1176.2,2261.9,1103.2,2081,1095.2z M2401.2,1220.4c-67.2-26.8-175.7-58.7-310.7-58.7c-71.1,0-142.9,8.9-213.3,26.5
	c-58.7,14.7-118.2,37.5-177.1,67.8c-50.7,26.1-101.2,58-150,94.6c-110.2,82.8-174.3,161-191.3,182.9c-36.5,47.2-55.7,94.2-57,139.6
	c-1.5,51.7,20.2,101.2,64.4,147c40.5,41.9,71.8,91.2,93,146.4c19.4,50.6,30.6,106.7,33.2,166.7c3.4,78.6-17.4,176.1-60.3,282.2
	c-24.1,59.7-52.1,114.1-75.9,155.1c19.3-94,25.9-171.3,19.7-230.5c-9.9-94.6-34.3-170.3-72.6-225.1
	c-49-70.2-121.3-107.5-214.8-110.9c-3.7-0.1-7.5-0.2-11.3-0.2c-51.5,0-108.1,12.6-168.4,37.5c-50.4,20.8-103.3,50.1-157.2,87.1
	c-70.7,48.5-128,99.4-165.2,136.5c23.7-54,65.6-141,129.6-246.2c107.5-176.4,234.6-334.1,377.8-468.6
	c69-64.8,144.8-125.5,225.4-180.2c79.7-54.1,162.5-101.6,246.2-141c173-81.4,340.5-124.4,484.6-124.4c10.3,0,20.5,0.2,30.5,0.7
	c92,4.1,181.7,24.9,259.4,60.3c40.8,18.6,77.9,41,110.4,66.7c10.1,8,19.7,16.3,28.9,24.9C2457.3,1244.9,2431,1232.3,2401.2,1220.4z"
	/>
</svg>
