<?xml version="1.0" encoding="utf-8"?>
<!-- Generator: Adobe Illustrator 27.9.3, SVG Export Plug-In . SVG Version: 9.03 Build 53313)  -->
<svg version="1.1" id="Layer_1" xmlns="http://www.w3.org/2000/svg" xmlns:xlink="http://www.w3.org/1999/xlink" x="0px" y="0px"
	 viewBox="0 0 3840 3840" style="enable-background:new 0 0 3840 3840;" xml:space="preserve">
<style type="text/css">
	.st0{opacity:5.000000e-02;}
	.st1{fill:#FFFFFF;}
</style>
<g class="st0">
	<path class="st1" d="M1295.3,2221.9c4.1,0.9,8.2,1.8,12.4,2.6C1303.6,2223.5,1299.5,2222.6,1295.3,2221.9z"/>
	<g>
		<path class="st1" d="M1775.8,2294.5c116.5-256.1,147.1-235.3,147.1-235.3s-47.7,220.9,63.3,349.7
			c108.5,125.8,350.8-20.5,350.8-20.5s-184.2-7.8-246.7-184.4c-57.3-161.9-12.6-252-12.6-252c48.5-13.5,546.5-174.9,432-495
			c-59.7-166.9-296.3-230.9-556.3-167.9c-432.6,104.8-491.7,416.9-491.7,416.9s38.7-36.1,84.5,15.1c145.9,163,48.4,596.4-63.9,801.2
			c-112.4,205-257,371.5-257,371.5S1580.7,2723.3,1775.8,2294.5z M1960.9,1502.5c172.5-79.8,318.7-18.2,337.3,92.2
			c30,177.7-363.7,380.7-447.4,192.2C1824.4,1727.2,1777.3,1587.5,1960.9,1502.5z"/>
		<path class="st1" d="M1288.7,2151.2c116.1,192.2-27.8,588.2-27.8,588.2s498.9-519.5,132.7-954.6
			c-177.6-211,308.7-604.6,735.5-591.2c484.7,15.3,437,365,437,365c76-244.2-107.8-490.1-500.1-490.1
			c-236.3,0-629.5,77.9-988.1,455.4c-396,416.9-625.4,932-625.4,932S1051.8,1758.8,1288.7,2151.2z"/>
		<path class="st1" d="M1475.7,3354.5c-36.9-220.8,75.5-386,109.2-434.2c0,0-37.6,26.5-73.8,42.3c-22,9.6-43.4,15.3-55.7,8.7
			c-203-108.5-590.3,213-518.4,520.9c36.2,155,164.5,219,271.5,211.6c170.2-11.8,187.6-129.9,187.6-129.9s-40.2,32.1-146.5,6.5
			c-100.1-24.1-143.7-124.9-135.1-206.6c16.8-159.3,201.6-205.5,201.6-205.5s-92.3,300.5,123.4,415.9c104,55.6,181.8-8.3,181.8-8.3
			S1506.7,3540.4,1475.7,3354.5z"/>
		<path class="st1" d="M1999.8,3220.2c-47.5-211.2,77.7-363.6,77.7-363.6s-297.4,152-242.5,471.5c12.6,73.3-64.2,105.6-116-44.2
			c-67.8-196.3,64.4-385.9,64.4-385.9s-231.4,114.9-237.1,356.8c-5,209.4,118.3,297,230,313.7c81.2,12.2,163.1-12.7,208.2-58.5
			c9.3,3,54.4,9.4,70.5,8.2c73.5-5.2,84.7-26.9,84.7-26.9S2055.3,3466.6,1999.8,3220.2z"/>
		<path class="st1" d="M869.4,3253.6c86.4-175.5,155.2-232.7,206.4-324.7c333.3-599,130.8-851-119.7-769.8
			c-183.7,59.6-485.8,301.1-584.2,481.6c-104.7,192.2-71.1,315.5-71.1,315.5s94-156.7,170.5-58.6c81.1,104,304.2,386.8,111.5,615.8
			c-89.5,106.4-196-68.8-196-68.8c-6.9,28.6,22.2,298.3,234.2,354.4c106.5,28.2,226.5,32.4,267.6-77.6
			C932.7,3603.9,786.7,3421.7,869.4,3253.6z M796.5,3049.4c-53.2,0.3-86.7-82-143.8-159.7c-149.9-204.2,36-424.3,186.1-380.9
			C1035.8,2565.8,916.6,3048.7,796.5,3049.4z"/>
		<path class="st1" d="M2763.4,3194.1c-76.7-150.4,1.1-275.5,106.3-393.3c530.5-593.7,415-1242.3,415-1242.3
			s-56.9,491.6-289.3,774.8c-232.3,283.3-344.5,329-535.7,406.5c-88,35.7-396.8,113.3-381.7,421.6
			c17.2,350.5,420.3,410.7,648.5,310.1c220-97,219-241,219-241S2846.1,3356.2,2763.4,3194.1z M2328,3187.4
			c-57.4-207.6,262.3-335.3,262.3-335.3s-87.2,82.5-54.7,257.7c36,194.5,161.5,225.7,161.5,225.7S2396.1,3433.6,2328,3187.4z"/>
		<path class="st1" d="M3069.2,1955.7c67.1-196.2,26.2-442.4,26.2-442.4s-89.4,564.7-540.7,623c-353.8,45.7,93.5-473.6,93.5-473.6
			s-414.8,229-448.4,460.4c-29.1,200.5,227,213.5,227,213.5s-37.5,98.8-238.4,263S1431.8,2852,1431.8,2852s575.4-4.5,923.5-165.8
			C2703.4,2525,2963,2266.3,3069.2,1955.7z"/>
	</g>
	<g>
		<path class="st1" d="M1978.1,884.9C1389.3,919.6,934.5,1242,962.3,1605c0.8,10.5,2,20.9,3.6,31.2
			c-0.2-350.1,445.3-655.1,1017-688.8c571.8-33.7,1059.6,216.4,1112.8,563.3c0-10.4-0.4-20.9-1.2-31.4
			C3066.7,1116.4,2566.9,850.2,1978.1,884.9z"/>
		<path class="st1" d="M3602.9,1268.4c-23.7-309.9-295.5-570.1-696-719.6C2733.7,216,2345.4-4.5,1912.3,21
			c-432.9,25.5-784.1,289.4-905.1,639.4c-374.6,195.1-604.6,485.1-580.8,795.1c14.2,185.4,117.1,352.9,283.3,489.7
			c-120.7-119-194.6-258.2-206.2-410C465.4,1036.6,1113.9,592.4,1952,543s1548.5,314.8,1586.6,813.4
			c11.6,151.7-40.4,298.4-141.9,430.5C3540.5,1631.9,3617,1453.7,3602.9,1268.4z M1942.4,417.1c-279.7,16.5-539.3,75-761.8,164
			c133.9-284.9,438.3-492.9,806.5-514.6C2384.8,43,2741.8,243.7,2904,547.7C2630.5,446.2,2297.4,396.2,1942.4,417.1z"/>
		<circle class="st1" cx="791.6" cy="1266.7" r="68.3"/>
		<path class="st1" d="M2027.5,703.7c0.5-37.7-29.7-68.6-67.4-69.1c-37.7-0.5-68.6,29.7-69.1,67.4s29.7,68.6,67.4,69.1
			C1996.1,771.6,2027.1,741.4,2027.5,703.7z"/>
		<circle class="st1" cx="3207.4" cy="1132.5" r="68.3"/>
	</g>
</g>
</svg>
