<?xml version="1.0" encoding="utf-8"?>
<!-- Generator: Adobe Illustrator 27.9.3, SVG Export Plug-In . SVG Version: 9.03 Build 53313)  -->
<svg version="1.1" id="Layer_1" xmlns="http://www.w3.org/2000/svg" xmlns:xlink="http://www.w3.org/1999/xlink" x="0px" y="0px"
	 viewBox="0 0 100 100" style="enable-background:new 0 0 100 100;" xml:space="preserve">
<style type="text/css">
	.st0{fill:#F5F5F5;}
</style>
<g>
	<path class="st0" d="M32.6,63.3c-2.6-5.2-8.5-0.1-7.6,4.4c0.6,3.2,3.2,7.1,5.4,5.8C33.1,71.9,34.5,66.9,32.6,63.3z"/>
	<path class="st0" d="M61.4,44c0.3-2.6-1.5-4.2-4.6-4.4c-3.1-0.2-7.8,2.2-6.3,6.1C52.3,50.2,60.9,47.8,61.4,44z"/>
	<path class="st0" d="M66.7,18.4c-4.8-6.2-13.6-9.2-22.4-7.1c-8.2,2-14.1,7.8-16,14.7c4.6-2.9,10.2-5.2,16.4-6.7
		C52.5,17.5,60.1,17.3,66.7,18.4z"/>
	<path class="st0" d="M67,70.5c-4.2-0.3-6.9,2.9-6.4,6c0.7,4,6.1,5.4,9.2,2.7C66.5,78.3,64.6,74.2,67,70.5z"/>
	<path class="st0" d="M50,0C22.4,0,0,22.4,0,50s22.4,50,50,50s50-22.4,50-50S77.6,0,50,0z M14.8,48.6C13,41.8,17,34.4,24.7,28.5
		c1.3-8.3,8.1-15.6,17.7-17.9c9.6-2.3,19.2,1.1,24.4,7.9c9.6,1.8,16.7,6.5,18.4,13.3c1,4.1,0.1,8.3-2.5,12.3c0,1.4-0.2,7.7-3,13.6
		c-4.6,9.9-10.7,11.2-10.6,16c0.1,3.2,3,4.2,5.4,5C74,79.5,73,80.8,70.6,82c-9.1,4.5-14.2-1.7-14.2-6.8c0-6.2,5.7-7.6,8.5-8.6
		c2.8-0.9,7.5-3.5,11.9-9c4.2-5.2,5.5-12.3,5.8-13.5c0,0,0,0,0,0.1c0,0,0-0.1,0-0.1c0,0,0,0,0-0.1c0,0,0,0,0,0
		c1.7-3.3,2.3-6.8,1.4-10.1c-2.8-11-20.2-16.3-38.8-11.9c-18.6,4.4-31.3,17-28.5,28c0.9,3.4,3.1,6.2,6.2,8.4
		C18.8,56.1,15.9,52.7,14.8,48.6z M40.9,47.5c1.9,2,2.7,4.4,2.8,6.9c0.2,4-2.5,9-3.7,10.7c0.1-0.6,0.9-3.8,0.7-6.2
		c-0.4-3.5-1.7-6.9-6-7.1c-4.8-0.2-10.3,4.9-11.6,6.5c0.7-1.9,4.2-9.8,11.5-16.7c6.3-5.9,15-10,21.6-9.7c3.9,0.2,8,1.8,10.1,4.8
		c0,0-3.9-5.2-14.4-2.6c-5.4,1.3-8.9,5.3-10.4,7.2C39.5,44,39,45.5,40.9,47.5z M45.8,58c3.2-9.6-2.1-13.3-2.1-13.3
		c4.2-10.9,19.7-10.6,21.8-4.6c2.3,6.7-9.1,10.3-9.2,10.3c0,0-1.1,4.5,1.4,7.8c1.4,1.8,2.7,2.3,3,2.4c-5.4,1.4-7.8-0.7-8-4.5
		c-0.1-1.7,0.6-3.3,0.3-3.4c-0.7-0.1-3.6,10.6-13.3,17.1C40.9,68.3,43.4,65.3,45.8,58z M59.6,64.1c4.4-3.2,5.3-6.2,5.3-6.2
		s-3.3,0.5-4.3-1.6c-2.2-4.6,5.4-9.8,6.5-10.4c-0.8,0.9-4.6,5-3.2,7.6c1.3,2.6,6.5,0.5,9.1-1.5c3.2-2.4,4.7-7.3,5-8.4
		c0.9,7.9-7,23.3-28.8,24.6C49.5,68.2,56.2,66.6,59.6,64.1z M30.7,88.2c-1.4,3.3-10,2.6-9.9-4.4c0,0,0,0,0,0c0.8,0.8,2.9,1.8,4,0.4
		c2.4-3-0.2-13.8-3.9-14.7c-1.3-0.3-2.1,1.2-2.1,1.2c-0.6-2.4,4.6-15.1,13.4-15.4c3.8-0.1,6.9,2.3,6.6,7.3
		c-0.5,8.7-6.8,11.3-8.2,15.1c-0.8,2.2-0.7,4.9-0.1,6.8C30.7,85.9,31.3,86.7,30.7,88.2z M39.9,80.9c-0.5-3.3,0.7-5.3,0.7-5.3
		s-4.8,1.2-5.4,5.6c-0.6,4.8,5,6,5.2,6c-0.1,0.1-1.7,1.8-4.1,1.3c-4-0.8-5.9-5.6-4.4-9.4c1-2.3,2.7-4.8,6.2-6c2.7-1,5.5-0.3,5.9-0.1
		c-0.4,0.9-1.4,3.5-1.1,6.8c0.3,3.3,2.4,6.9,2.6,7.2C43.5,87,40.6,85.2,39.9,80.9z M44.7,79.1c-0.2-5.1,4.1-7.9,4.5-8.2
		c-0.1,0.5-2,4.6-1.1,8.1c0.6,2.3,2.3,3.5,3.4,2.9c1.7-0.9-0.4-2.3,0.8-7.1c0.8-3,2.3-4.7,3.6-5.1c-0.1,0.2-1.1,2.4-1.2,4.8
		c-0.3,3.9,1.5,7.6,4.3,9.9c-1.8,0.8-3.4-0.2-3.4-0.2s-0.9,1.5-4.1,1.8C48.9,86,45,84.9,44.7,79.1z M50,97.4c-0.2,0-0.4,0-0.6,0
		c23.7-0.3,43.1-18.6,45-41.9c0.2-1.8,0.3-3.7,0.3-5.5c0-3-0.3-6.1-0.9-9c-0.6-2.9-1.5-5.7-2.6-8.4c-1.1-2.7-2.5-5.2-4.1-7.6
		c-1.6-2.4-3.4-4.6-5.5-6.6c-2-2-4.3-3.9-6.6-5.5c-2.4-1.6-5-3-7.6-4.1c-2.7-1.1-5.5-2-8.4-2.6c-3-0.6-6-0.9-9-0.9s-6.1,0.3-9,0.9
		c-2.9,0.6-5.7,1.5-8.4,2.6c-2,0.8-3.9,1.8-5.7,2.9c-14.1,7.8-23.6,22.8-23.6,40c0,6.5,1.3,12.6,3.8,18.2c-2.8-6-4.4-12.8-4.4-19.9
		C2.6,23.8,23.8,2.6,50,2.6S97.4,23.8,97.4,50S76.2,97.4,50,97.4z"/>
</g>
</svg>
